<svg xmlns="http://www.w3.org/2000/svg" viewBox="0 0 1000 1000" style="enable-background:new 0 0 1000 1000"
     xml:space="preserve"><style>.st0{fill:#91b5ce}</style>
    <g id="Layer_1"><path class="st0" d="M-30.5 1268.7v-7.1c0-13.3-.5-28.4-1-45.8-1.5-50.1-3.9-125.8 2.4-252.9 3-60.6 57.8-112.2 74.5-126.6l.2-.2c67.3-53.9 262.5-141 271.5-145l25.8-11.9 21.2-82.8 260.2-6.2 17.9 88.8 30.8 12c40.5 14.8 227.3 99.8 295.3 154.1 32.4 23.2 45.1 39.8 59.1 77l.1.3.1.3c28.1 105.3 24.9 165.7 20.9 242.3-1.6 29.5-3.2 60-3.2 96.5v7.1H-30.5z"/>
        <path d="m618.3 597.5 17.4 86.8 34.5 13.4c37.7 13.7 225.9 99 293.6 153.1 31.5 22.5 43.2 37.9 56.8 73.9 38.5 144.5 17.5 205.6 17.5 336.9H-23.4c0-52.4-7-127.9 1.3-298.4 2.4-48.4 40.6-94.5 72-121.6 67.5-54.1 270-144 270-144l28.9-13.4 20.7-80.9 248.8-5.8m11.6-14.5-11.9.3-248.8 5.9-10.7.3-2.7 10.4-19 74.4-22.7 10.5c-9.7 4.3-205.2 91.5-273 145.9l-.2.2-.2.2c-13.5 11.6-33.1 30.7-49.5 55.7-17 25.9-26.2 51.4-27.4 75.9-6.3 127.3-3.9 203.2-2.4 253.5.5 17.4 1 32.4 1 45.6v14.2h1089.9v-14.2c0-36.3 1.6-66.7 3.1-96.1 2-37.2 3.8-72.3 1.6-110.7-2.5-42.5-9.7-85-22.7-133.8l-.2-.7-.2-.7c-7.6-20.3-14.7-34-23.7-45.7-8.9-11.6-20.2-22-37.8-34.5-68.7-54.7-256.2-140.1-297.1-155.1L648.1 674l-15.9-79.2-2.3-11.8z"/></g>
    <g id="Layer_1_copy"><path d="M504.4 22.6c249.1 0 249.1 207.1 249.1 324.1 0 117-98 333.1-249.1 337.6-147.1 0-249.1-216.1-249.1-337.6-.1-117-.1-324.1 249.1-324.1m0-14.2c-42.6 0-80.4 6-112.6 17.7C362 37 336.3 53.1 315.5 74c-17.7 17.7-32.3 39.3-43.5 64.1-9.5 21.2-16.9 45.5-21.9 72.2-9 48.7-9 97.3-8.9 136.3 0 66.2 28.1 153.4 71.6 222 24.4 38.5 52.1 69.3 82.3 91.4 34.8 25.5 71.6 38.4 109.4 38.4h.4c38.6-1.2 75.8-15 110.7-41 30.2-22.6 57.9-53.6 82.1-92.2 42.6-67.9 70.1-153.7 70.1-218.5 0-60.2 0-142.7-32.5-211.9-18.2-38.9-45-69.2-79.4-90.1C636.4 33 614.3 24 590 18c-25.6-6.4-54.4-9.6-85.6-9.6z"/>
        <path d="M699 695.9s-92.4 140.4-104 190.2l14.2 334.3-64.7-333.6 31.5-76.6-72-72-72 72 36 72-45.7 338.1V896c-13.2-54.3-102.2-198.3-102.2-198.3s77.4-190.9 77.4-138.5l184.1-22L699 695.9z"
              style="fill:#fff"/>
        <path d="m618.3 597.5 71.8 108.1c37.7 13.7 206.2 91.1 273.8 145.2 31.5 22.5 43.2 37.9 56.8 73.9 38.5 144.5 17.5 205.6 17.5 336.9H-23.4c0-52.4-7-127.9 1.3-298.4 2.4-48.4 40.6-94.5 72-121.6 67.5-54.1 270-144 270-144l49.5-94.2 248.9-5.9m7.5-14.4-7.8.2-248.8 5.9-8.3.2-3.9 7.4-47.3 89.9c-31.1 14-205.3 93.2-268.6 143.9l-.2.2-.2.2c-13.5 11.6-33.1 30.7-49.5 55.7-17 25.9-26.2 51.4-27.4 75.9-6.3 127.3-3.9 203.2-2.4 253.5.5 17.4 1 32.4 1 45.6v14.2h1089.9v-14.2c0-36.3 1.6-66.7 3.1-96.1 2-37.2 3.8-72.3 1.6-110.7-2.5-42.5-9.7-85-22.7-133.8l-.2-.7-.2-.7c-7.6-20.3-14.7-34-23.7-45.7-8.9-11.6-20.2-22-37.8-34.5-37.7-30.1-102.5-65-150.3-89.1-49.6-25-99.5-47.4-122.8-56.5l-69.2-104.3-4.3-6.5z"/>
        <path class="st0"
              d="M504.4 22.6c249.1 0 249.1 207.1 249.1 324.1s-98 333.1-249.1 337.6c-147.1 0-249.1-216.1-249.1-337.6-.1-117-.1-324.1 249.1-324.1z"/></g></svg>
