<?xml version="1.0" encoding="utf-8"?>
<!-- Generator: Adobe Illustrator 26.0.1, SVG Export Plug-In . SVG Version: 6.00 Build 0)  -->
<svg version="1.1" xmlns="http://www.w3.org/2000/svg" x="0px" y="0px"
     viewBox="0 0 300 300" style="enable-background:new 0 0 300 300;" xml:space="preserve">
<style type="text/css">
	.st0{display:none;}
	.st1{display:inline;}
	.st2{fill:#2D2D33;}
</style>
    <g id="Layer_1" class="st0">
	<g class="st1">
		<polygon class="st2" points="99.9,149.9 117.8,185.7 67.7,185.7 49.8,149.9 		"/>
        <path class="st2" d="M114,150"/>
        <polygon class="st2"
                 points="167.7,117.8 185.6,117.8 174.9,99.9 139.1,99.9 114,150 149.8,221.6 185.6,150 		"/>
        <polygon class="st2" points="200.1,149.9 182.2,185.7 232.3,185.7 250.1,149.9 		"/>
        <polygon class="st2" points="221.4,78.4 192.8,135.7 271.5,135.7 300.1,78.4 		"/>
        <path class="st2" d="M114,150"/>
        <polygon class="st2" points="-0.1,78.4 28.5,135.7 107.2,135.7 78.6,78.4 		"/>
        <path class="st2" d="M114,150"/>
        <path class="st2" d="M114,150"/>
	</g>
</g>
    <g id="Layer_2">
	<g>
		<polygon class="st2" points="112.8,155.4 69.4,155.4 87.9,192.6 94.2,206.8 128.3,186.4 		"/>
        <polygon class="st2" points="171.6,186.4 205.7,206.8 212,192.6 230.5,155.4 187.1,155.4 		"/>
        <polygon class="st2"
                 points="165.3,127.5 180.8,127.5 171.5,112 140.5,112 118.8,155.5 149.8,217.5 180.8,155.5 		"/>
        <polygon class="st2" points="91.1,99.6 0,53.8 22.9,99.6 22.9,99.6 47.7,149.2 116,149.2 		"/>
        <polygon class="st2" points="108.1,204.7 126.2,246.2 140.7,217.4 128.3,192.6 		"/>
        <polygon class="st2" points="159.2,217.4 173.7,246.2 191.8,204.7 171.6,192.6 		"/>
        <polygon class="st2" points="300,53.8 208.9,99.6 184,149.2 252.3,149.2 277.1,99.6 277.1,99.6 		"/>
	</g>
</g>
</svg>
