<?xml version="1.0" encoding="utf-8"?>
<!-- Generator: Adobe Illustrator 26.0.1, SVG Export Plug-In . SVG Version: 6.00 Build 0)  -->
<svg version="1.1" xmlns="http://www.w3.org/2000/svg" x="0px" y="0px"
     viewBox="0 0 300 300" style="enable-background:new 0 0 300 300;" xml:space="preserve">
<style type="text/css">
	.st0{display:none;}
	.st1{display:inline;}
	.st2{fill:#CCCCCB;}
	.st3{fill:#F2B6B6;}
	.st4{fill:#2E2E33;}
	.st5{fill:none;stroke:#FFFFFF;stroke-width:5.6693;stroke-miterlimit:10;}
	.st6{fill:#2D2D33;}
</style>
    <g id="Layer_1" class="st0">
	<g id="Layer_2_copy_3">
		<g class="st1">
			<g>
				<polygon class="st2" points="221.6,78.4 156,129.4 150,150 170.6,144 				"/>
			</g>
            <g>
				<polygon class="st2" points="251.3,150 168.8,139.7 150,150 168.8,160.3 				"/>
			</g>
            <g>
				<polygon class="st2" points="221.6,221.6 170.6,156 150,150 156,170.6 				"/>
			</g>
            <g>
				<polygon class="st2" points="150,251.3 160.3,168.8 150,150 139.7,168.8 				"/>
			</g>
            <g>
				<polygon class="st2" points="78.4,221.6 144,170.6 150,150 129.4,156 				"/>
			</g>
            <g>
				<polygon class="st2" points="48.7,150 131.2,160.3 150,150 131.2,139.7 				"/>
			</g>
            <g>
				<polygon class="st2" points="78.4,78.4 129.4,144 150,150 144,129.4 				"/>
			</g>
            <g>
				<polygon class="st2" points="150,48.7 139.7,131.2 150,150 160.3,131.2 				"/>
			</g>
		</g>
	</g>
        <g id="Layer_2_copy_4">
		<g class="st1">
			<g>
				<g>
					<g>
						<polygon class="st3" points="300,88.2 173.1,140.8 221.6,78.4 						"/>
                        <path class="st3" d="M150,150"/>
					</g>
				</g>
                <g>
					<g>
						<polygon class="st3" points="211.8,0 159.2,126.9 221.6,78.4 						"/>
                        <path class="st3" d="M150,150"/>
					</g>
				</g>
			</g>
            <g>
				<g>
					<g>
						<polygon class="st3" points="299.8,212.4 172.9,159.8 251.3,150 						"/>
                        <path class="st3" d="M150,150"/>
					</g>
				</g>
                <g>
					<g>
						<polygon class="st3" points="299.8,87.6 172.9,140.2 251.3,150 						"/>
                        <path class="st3" d="M150,150"/>
					</g>
				</g>
			</g>
            <g>
				<g>
					<g>
						<polygon class="st3" points="211.8,300 159.2,173.1 221.6,221.6 						"/>
                        <path class="st3" d="M150,150"/>
					</g>
				</g>
                <g>
					<g>
						<polygon class="st3" points="300,211.8 173.1,159.2 221.6,221.6 						"/>
                        <path class="st3" d="M150,150"/>
					</g>
				</g>
			</g>
            <g>
				<g>
					<g>
						<polygon class="st3" points="87.6,299.8 140.2,172.9 150,251.3 						"/>
                        <path class="st3" d="M150,150"/>
					</g>
				</g>
                <g>
					<g>
						<polygon class="st3" points="212.4,299.8 159.8,172.9 150,251.3 						"/>
                        <path class="st3" d="M150,150"/>
					</g>
				</g>
			</g>
            <g>
				<g>
					<g>
						<polygon class="st3" points="0,211.8 126.9,159.2 78.4,221.6 						"/>
                        <path class="st3" d="M150,150"/>
					</g>
				</g>
                <g>
					<g>
						<polygon class="st3" points="88.2,300 140.8,173.1 78.4,221.6 						"/>
                        <path class="st3" d="M150,150"/>
					</g>
				</g>
			</g>
            <g>
				<g>
					<g>
						<polygon class="st3" points="0.2,87.6 127.1,140.2 48.7,150 						"/>
                        <path class="st3" d="M150,150"/>
					</g>
				</g>
                <g>
					<g>
						<polygon class="st3" points="0.2,212.4 127.1,159.8 48.7,150 						"/>
                        <path class="st3" d="M150,150"/>
					</g>
				</g>
			</g>
            <g>
				<g>
					<g>
						<polygon class="st3" points="88.2,0 140.8,126.9 78.4,78.4 						"/>
                        <path class="st3" d="M150,150"/>
					</g>
				</g>
                <g>
					<g>
						<polygon class="st3" points="0,88.2 126.9,140.8 78.4,78.4 						"/>
                        <path class="st3" d="M150,150"/>
					</g>
				</g>
			</g>
            <g>
				<g>
					<g>
						<polygon class="st3" points="212.4,0.2 159.8,127.1 150,48.7 						"/>
                        <path class="st3" d="M150,150"/>
					</g>
				</g>
                <g>
					<g>
						<polygon class="st3" points="87.6,0.2 140.2,127.1 150,48.7 						"/>
                        <path class="st3" d="M150,150"/>
					</g>
				</g>
			</g>
		</g>
	</g>
        <g id="flat" class="st1">
		<g>
			<polygon class="st4" points="149.8,131 150,130.6 150.2,131 150.2,130.2 179.6,78.5 150.2,26.8 150.2,26 150,26.4 149.8,26 
				149.8,26.8 120.4,78.5 149.8,130.2 			"/>
            <polygon class="st4" points="163.3,136.4 163.7,136.3 163.6,136.7 164.2,136.1 221.5,120.4 237.3,63.1 237.9,62.5 237.4,62.6
				237.5,62.2 236.9,62.7 179.6,78.5 163.9,135.8 			"/>
            <polygon class="st4" points="273.2,149.8 221.5,120.4 169.8,149.8 169,149.8 169.4,150 169,150.2 169.8,150.2 221.5,179.6
				273.2,150.2 274,150.2 273.6,150 274,149.8 			"/>
            <polygon class="st4" points="163.6,163.3 163.7,163.7 163.3,163.6 163.9,164.2 179.6,221.5 236.9,237.3 237.5,237.9 237.4,237.4
				237.9,237.5 237.3,236.9 221.5,179.6 164.2,163.9 			"/>
            <polygon class="st4" points="150.2,169 150,169.4 149.8,169 149.8,169.8 120.4,221.5 149.8,273.2 149.8,274 150,273.6 150.2,274
				150.2,273.2 179.6,221.5 150.2,169.8 			"/>
            <polygon class="st4" points="136.7,163.6 136.3,163.7 136.4,163.3 135.8,163.9 78.5,179.6 62.7,236.9 62.2,237.5 62.6,237.4
				62.5,237.9 63.1,237.3 120.4,221.5 136.1,164.2 			"/>
            <polygon class="st4" points="131,150.2 130.6,150 131,149.8 130.2,149.8 78.5,120.4 26.8,149.8 26,149.8 26.4,150 26,150.2
				26.8,150.2 78.5,179.6 130.2,150.2 			"/>
            <polygon class="st4" points="136.4,136.7 136.3,136.3 136.7,136.4 136.1,135.8 120.4,78.5 63.1,62.7 62.5,62.2 62.6,62.6
				62.2,62.5 62.7,63.1 78.5,120.4 135.8,136.1 			"/>
		</g>
	</g>
        <g class="st1">
		<g>
			<line class="st5" x1="277.1" y1="202.7" x2="22.9" y2="97.3"/>
		</g>
            <g>
			<line class="st5" x1="202.7" y1="277.1" x2="97.3" y2="22.9"/>
		</g>
            <g>
			<line class="st5" x1="97.3" y1="277.1" x2="202.7" y2="22.9"/>
		</g>
            <g>
			<line class="st5" x1="22.9" y1="202.7" x2="277.1" y2="97.3"/>
		</g>
	</g>
</g>
    <g id="Layer_2">
	<g>
		<g>
			<path class="st6" d="M237.7,62.3l-54.9,15.1c-16.7,36.6-17.6,57.3-17.6,57.3s20.7-0.8,57.3-17.6L237.7,62.3z"/>
            <path class="st6" d="M150,150"/>
		</g>
        <g>
			<path class="st6" d="M274,150l-49.5-28.1c-37.7,14.1-53,28.1-53,28.1s15.3,14.1,53,28.1L274,150z"/>
            <path class="st6" d="M150,150"/>
		</g>
        <g>
			<path class="st6"
                  d="M237.7,237.7l-15.1-54.9c-36.6-16.7-57.3-17.6-57.3-17.6s0.8,20.7,17.6,57.3L237.7,237.7z"/>
            <path class="st6" d="M150,150"/>
		</g>
        <g>
			<path class="st6" d="M150,274l28.1-49.5c-14.1-37.7-28.1-53-28.1-53s-14.1,15.3-28.1,53L150,274z"/>
            <path class="st6" d="M150,150"/>
		</g>
        <g>
			<path class="st6" d="M62.3,237.7l54.9-15.1c16.7-36.6,17.6-57.3,17.6-57.3s-20.7,0.8-57.3,17.6L62.3,237.7z"/>
            <path class="st6" d="M150,150"/>
		</g>
        <g>
			<path class="st6" d="M26,150l49.5,28.1c37.7-14.1,53-28.1,53-28.1s-15.3-14.1-53-28.1L26,150z"/>
            <path class="st6" d="M150,150"/>
		</g>
        <g>
			<path class="st6" d="M62.3,62.3l15.1,54.9c36.6,16.7,57.3,17.6,57.3,17.6s-0.8-20.7-17.6-57.3L62.3,62.3z"/>
            <path class="st6" d="M150,150"/>
		</g>
        <g>
			<path class="st6" d="M150,26l-28.1,49.5c14.1,37.7,28.1,53,28.1,53s14.1-15.3,28.1-53L150,26z"/>
            <path class="st6" d="M150,150"/>
		</g>
	</g>
</g>
</svg>
