<?xml version="1.0" encoding="utf-8"?>
<!-- Generator: Adobe Illustrator 25.4.8, SVG Export Plug-In . SVG Version: 6.00 Build 0)  -->
<svg version="1.1" xmlns="http://www.w3.org/2000/svg" x="0px" y="0px"
	 viewBox="0 0 1000 1000" style="enable-background:new 0 0 1000 1000;" xml:space="preserve">
<style type="text/css">
	.st0{fill:#91B5CE;}
	.st1{fill:#FFFFFF;}
</style>
	<g id="Layer_1">
	<g>
		<path class="st0" d="M-30.5,1268.7v-7.1c0-13.3-0.5-28.4-1-45.8c-1.5-50.1-3.9-125.8,2.4-252.9c3-60.6,57.8-112.2,74.5-126.6
			l0.2-0.2c67.3-53.9,262.5-141,271.5-145l25.8-11.9l21.2-82.8l260.2-6.2l17.9,88.8l30.8,12c40.5,14.8,227.3,99.8,295.3,154.1
			c32.4,23.2,45.1,39.8,59.1,77l0.1,0.3l0.1,0.3c28.1,105.3,24.9,165.7,20.9,242.3c-1.6,29.5-3.2,60-3.2,96.5v7.1H-30.5z"/>
		<path d="M618.3,597.5l17.4,86.8l34.5,13.4c37.7,13.7,225.9,99,293.6,153.1c31.5,22.5,43.2,37.9,56.8,73.9
			c38.5,144.5,17.5,205.6,17.5,336.9H-23.4c0-52.4-7-127.9,1.3-298.4c2.4-48.4,40.6-94.5,72-121.6c67.5-54.1,270-144,270-144
			l28.9-13.4l20.7-80.9L618.3,597.5 M629.9,583l-11.9,0.3l-248.8,5.9l-10.7,0.3l-2.7,10.4l-19,74.4l-22.7,10.5
			c-9.7,4.3-205.2,91.5-273,145.9l-0.2,0.2l-0.2,0.2c-13.5,11.6-33.1,30.7-49.5,55.7c-17,25.9-26.2,51.4-27.4,75.9
			c-6.3,127.3-3.9,203.2-2.4,253.5c0.5,17.4,1,32.4,1,45.6v14.2h14.2h1061.5h14.2v-14.2c0-36.3,1.6-66.7,3.1-96.1
			c2-37.2,3.8-72.3,1.6-110.7c-2.5-42.5-9.7-85-22.7-133.8l-0.2-0.7l-0.2-0.7c-7.6-20.3-14.7-34-23.7-45.7
			c-8.9-11.6-20.2-22-37.8-34.5c-68.7-54.7-256.2-140.1-297.1-155.1l-27.2-10.5l-15.9-79.2L629.9,583L629.9,583z"/>
	</g>
</g>
	<g id="Layer_1_copy">
	<g>
		<path d="M504.4,22.6c249.1,0,249.1,207.1,249.1,324.1c0,117-98,333.1-249.1,337.6c-147.1,0-249.1-216.1-249.1-337.6
			C255.2,229.7,255.2,22.6,504.4,22.6 M504.4,8.4c-42.6,0-80.4,6-112.6,17.7C362,37,336.3,53.1,315.5,74
			c-17.7,17.7-32.3,39.3-43.5,64.1c-9.5,21.2-16.9,45.5-21.9,72.2c-9,48.7-9,97.3-8.9,136.3c0,66.2,28.1,153.4,71.6,222
			c24.4,38.5,52.1,69.3,82.3,91.4c34.8,25.5,71.6,38.4,109.4,38.4h0.2l0.2,0c38.6-1.2,75.8-15,110.7-41
			c30.2-22.6,57.9-53.6,82.1-92.2c42.6-67.9,70.1-153.7,70.1-218.5c0-60.2,0-142.7-32.5-211.9c-18.2-38.9-45-69.2-79.4-90.1
			C636.4,33,614.3,24,590,18C564.4,11.6,535.6,8.4,504.4,8.4L504.4,8.4z"/>
	</g>
		<path class="st1" d="M699,695.9c0,0-92.4,140.4-104,190.2l14.2,334.3l-64.7-333.6l31.5-76.6l-72-72l-72,72l36,72l-45.7,338.1V896
		c-13.2-54.3-102.2-198.3-102.2-198.3s77.4-190.9,77.4-138.5l184.1-22L699,695.9z"/>
		<g>
		<path d="M618.3,597.5l71.8,108.1c37.7,13.7,206.2,91.1,273.8,145.2c31.5,22.5,43.2,37.9,56.8,73.9
			c38.5,144.5,17.5,205.6,17.5,336.9H-23.4c0-52.4-7-127.9,1.3-298.4c2.4-48.4,40.6-94.5,72-121.6c67.5-54.1,270-144,270-144
			l49.5-94.2L618.3,597.5 M625.8,583.1l-7.8,0.2l-248.8,5.9l-8.3,0.2l-3.9,7.4l-47.3,89.9c-31.1,14-205.3,93.2-268.6,143.9l-0.2,0.2
			l-0.2,0.2c-13.5,11.6-33.1,30.7-49.5,55.7c-17,25.9-26.2,51.4-27.4,75.9c-6.3,127.3-3.9,203.2-2.4,253.5c0.5,17.4,1,32.4,1,45.6
			v14.2h14.2h1061.5h14.2v-14.2c0-36.3,1.6-66.7,3.1-96.1c2-37.2,3.8-72.3,1.6-110.7c-2.5-42.5-9.7-85-22.7-133.8l-0.2-0.7l-0.2-0.7
			c-7.6-20.3-14.7-34-23.7-45.7c-8.9-11.6-20.2-22-37.8-34.5c-37.7-30.1-102.5-65-150.3-89.1c-49.6-25-99.5-47.4-122.8-56.5
			l-69.2-104.3L625.8,583.1L625.8,583.1z"/>
	</g>
		<g>
		<path class="st0" d="M504.4,22.6c249.1,0,249.1,207.1,249.1,324.1s-98,333.1-249.1,337.6c-147.1,0-249.1-216.1-249.1-337.6
			C255.2,229.7,255.2,22.6,504.4,22.6L504.4,22.6L504.4,22.6z"/>
	</g>
</g>
</svg>
