<?xml version="1.0" encoding="utf-8"?>
<!-- Generator: Adobe Illustrator 28.1.0, SVG Export Plug-In . SVG Version: 6.00 Build 0)  -->
<svg version="1.1" id="Layer_1" xmlns="http://www.w3.org/2000/svg" x="0px"
	 y="0px"
	 viewBox="0 0 100 14.8" style="enable-background:new 0 0 100 14.8;" xml:space="preserve">
<style type="text/css">
	.st0{fill:#FFFFFF;}
</style>
	<g>
	<path class="st0" d="M89.7,0l0,5.6c0,0.6,0.2,1.2,0.7,1.6c0.4,0.4,1,0.7,1.6,0.7h8V6.2h-8c-0.2,0-0.3-0.1-0.5-0.2s-0.2-0.3-0.2-0.5
		l0-3.9h8.6V0H89.7z"/>
		<path class="st0" d="M54.6,4.8h7.1v1.4h-8.5v1.7h8.6c0.9,0,1.6-0.7,1.6-1.6V4.7c0-0.9-0.7-1.6-1.6-1.6h-7.1V1.7h8.5V0h-8.9
		C53.5,0,53,0.5,53,1.2v2C53,4.1,53.7,4.8,54.6,4.8z"/>
		<path class="st0" d="M78.4,1.7l0.6,0c0.3,0,0.6,0.1,0.8,0.4L84,6.9c0.5,0.6,1.3,0.9,2,0.9h2.5V0h-1.7v6.2H86
		c-0.3,0-0.6-0.1-0.8-0.4L81,0.9C80.5,0.3,79.8,0,79,0l-2.3,0v7.9h1.7V1.7z"/>
		<path class="st0" d="M41,1.7l1,0l4.8,5.7c0.3,0.3,0.7,0.6,1.2,0.6h3V0h-1.7v6.2h-1.3l-4.8-5.7C43,0.2,42.6,0,42.1,0l-2.8,0v7.9H41
		V1.7z"/>
		<polygon class="st0" points="69.1,7.9 70.8,7.9 70.8,5.3 75.8,0 73.5,0 69.9,3.8 66.4,0 64.1,0 69.1,5.3 	"/>
		<path class="st0" d="M10.2,5.2l0-2.5c0-0.7-0.3-1.4-0.8-1.9S8.2,0,7.5,0H0v7.9h7.5C9,7.9,10.2,6.7,10.2,5.2z M1.7,1.7h5.8
		C7.8,1.7,8,1.8,8.2,2c0.2,0.2,0.3,0.4,0.3,0.7l0,2.5c0,0.6-0.5,1-1,1H1.7V1.7z"/>
		<path class="st0" d="M14.9,7.9h4.8c1.5,0,2.7-1.2,2.7-2.7l0-2.5c0-0.7-0.3-1.4-0.8-1.9C21.1,0.3,20.4,0,19.7,0h-4.8
		c-1.5,0-2.7,1.2-2.7,2.7v2.5C12.2,6.7,13.4,7.9,14.9,7.9z M13.9,2.7c0-0.6,0.5-1,1-1h4.8c0.3,0,0.5,0.1,0.7,0.3
		c0.2,0.2,0.3,0.4,0.3,0.7l0,2.5c0,0.6-0.5,1-1,1h-4.8c-0.6,0-1-0.5-1-1V2.7z"/>
		<path class="st0" d="M30.7,2l2.1,4.7c0.2,0.4,0.4,0.6,0.7,0.8c0,0,0,0,0,0c0,0,0.1,0,0.1,0.1c0,0,0,0,0,0c0,0,0.1,0,0.1,0.1
		c0,0,0,0,0,0c0.2,0.1,0.5,0.1,0.7,0.1c0,0,0,0,0,0c0,0,0,0,0.1,0c0,0,0,0,0,0c0,0,0,0,0,0c0,0,0,0,0,0c0,0,0.1,0,0.1,0c0,0,0,0,0,0
		c0,0,0,0,0.1,0c0,0,0,0,0,0c0,0,0.1,0,0.2,0c0,0,0,0,0,0c0,0,0.1,0,0.1,0c0,0,0,0,0,0c0.1,0,0.1,0,0.2,0c0,0,0,0,0,0
		c0,0,0.1,0,0.1,0l0,0c0.1,0,0.2-0.1,0.3-0.1c0,0,0,0,0,0c0.1,0,0.1-0.1,0.2-0.1c0,0,0,0,0,0c0,0,0,0-0.1,0c0,0,0,0,0,0
		c0,0,0,0-0.1,0c0,0,0,0,0,0c0,0-0.1,0-0.1,0c0,0,0,0,0,0c0,0,0,0-0.1,0c0,0,0,0,0,0c0,0-0.1,0-0.1-0.1c0,0,0,0,0,0c0,0,0,0-0.1,0
		c0,0,0,0,0,0c0,0-0.1-0.1-0.1-0.1c0,0,0,0,0,0c0,0,0,0-0.1-0.1c0,0,0,0,0,0c0,0-0.1-0.1-0.1-0.1c0,0,0,0,0,0c0,0,0-0.1-0.1-0.1
		c0,0,0,0,0,0c0-0.1-0.1-0.1-0.1-0.2c-0.1-0.1-0.2-0.3-0.2-0.4l-2.2-4.9l0,0l-0.1-0.3c-0.3-0.7-1-1.1-1.7-1.1c0,0,0,0,0,0
		c0,0-0.6,0-1.1,0.4C30.1,0.4,30.7,2,30.7,2z"/>
		<path class="st0" d="M35.9,7h0.5c0.1-0.2,0.2-0.4,0.2-0.6L37.7,0H36l-1.1,6.1l0,0.1C35.4,7,35.7,7,35.9,7z"/>
		<polygon class="st0" points="0,9.9 0.8,11.1 50,14.8 50,14.8 50,14.8 99.2,11.1 100,9.9 	"/>
		<path class="st0" d="M26.5,7.9C26.5,7.9,26.5,7.9,26.5,7.9c0.1,0,0.1,0,0.2,0c0,0,0,0,0,0c0,0,0,0,0.1,0c0,0,0,0,0,0c0,0,0,0,0.1,0
		c0,0,0,0,0,0c0,0,0,0,0.1,0c0,0,0,0,0,0c0,0,0,0,0.1,0c0,0,0,0,0,0c0,0,0,0,0.1,0c0,0,0,0,0,0c0,0,0,0,0.1,0c0,0,0,0,0,0
		c0.2-0.1,0.4-0.1,0.6-0.3c0,0,0,0,0,0c0,0,0,0-0.1,0c0,0,0,0,0,0c0,0,0,0-0.1,0c0,0,0,0,0,0c0,0,0,0-0.1,0c0,0,0,0,0,0
		c0,0,0,0-0.1,0c0,0,0,0,0,0c0,0,0,0-0.1,0c0,0,0,0,0,0c0,0-0.1,0-0.1,0c0,0,0,0,0,0c-0.1,0-0.1,0-0.2-0.1c0,0,0,0,0,0
		c0,0-0.1,0-0.1,0c0,0,0,0,0,0c0,0-0.1,0-0.1,0c0,0,0,0,0,0c0,0-0.1,0-0.1-0.1c0,0,0,0,0,0c0,0-0.1,0-0.1-0.1c0,0,0,0,0,0
		c0,0-0.1,0-0.1-0.1c0,0,0,0,0,0c0,0-0.1-0.1-0.1-0.2c0,0,0,0,0,0c0,0,0-0.1-0.1-0.1c-0.1-0.1-0.2-0.3-0.2-0.5L25.3,0h-1.7l1.1,6.3
		C24.8,7.2,25.6,7.9,26.5,7.9z"/>
		<path class="st0" d="M27.8,7.1h0.4c0.1-0.1,0.2-0.2,0.2-0.4l1.9-4.3l-0.1-0.2l0,0l0,0c0,0-0.1-0.4-0.3-0.7
		c-0.3-0.5-0.5-0.6-0.5-0.6h-0.2l-2.4,5.4C27,7,27.6,7.1,27.8,7.1z"/>
</g>
</svg>
