<svg xmlns="http://www.w3.org/2000/svg" viewBox="0 0 300 300" fill="currentColor"
     xml:space="preserve">
    <path d="m237.7 62.3-54.9 15.1c-16.7 36.6-17.6 57.3-17.6 57.3s20.7-.8 57.3-17.6l15.2-54.8zM274 150l-49.5-28.1c-37.7 14.1-53 28.1-53 28.1s15.3 14.1 53 28.1L274 150zm-36.3 87.7-15.1-54.9c-36.6-16.7-57.3-17.6-57.3-17.6s.8 20.7 17.6 57.3l54.8 15.2zM150 274l28.1-49.5c-14.1-37.7-28.1-53-28.1-53s-14.1 15.3-28.1 53L150 274zm-87.7-36.3 54.9-15.1c16.7-36.6 17.6-57.3 17.6-57.3s-20.7.8-57.3 17.6l-15.2 54.8zM26 150l49.5 28.1c37.7-14.1 53-28.1 53-28.1s-15.3-14.1-53-28.1L26 150zm36.3-87.7 15.1 54.9c36.6 16.7 57.3 17.6 57.3 17.6s-.8-20.7-17.6-57.3L62.3 62.3zM150 26l-28.1 49.5c14.1 37.7 28.1 53 28.1 53s14.1-15.3 28.1-53L150 26z"/></svg>
