<?xml version="1.0" encoding="utf-8"?>
<!-- Generator: Adobe Illustrator 27.3.1, SVG Export Plug-In . SVG Version: 6.00 Build 0)  -->
<svg version="1.1" id="Layer_1" xmlns="http://www.w3.org/2000/svg" x="0px"
	 y="0px"
	 viewBox="0 0 300 300" style="enable-background:new 0 0 300 300;" xml:space="preserve">
<style type="text/css">
	.st0{display:none;}
	.st1{display:inline;fill:#2D2D33;}
	.st2{display:inline;}
	.st3{fill:none;stroke:#2D2D33;stroke-width:24;stroke-miterlimit:10;}
	.st4{fill:none;stroke:#FFFFFF;stroke-width:42;stroke-miterlimit:10;}
	.st5{fill:none;stroke:#A03737;stroke-width:31;stroke-miterlimit:10;}
	.st6{fill:#FFFFFF;}
	.st7{fill:#2D2D33;}
	.st8{display:inline;fill:#FFFFFF;}
</style>
	<g id="Layer_1_00000070818237652578187150000009609823091443537851_" class="st0">
	<path class="st1" d="M211.9,156.3c-9.1,5-18.9,8.8-29,11.5c33.8,12.2,58.8,42.7,63.2,79.5h-27.7L150,178.9l-68.4,68.4H53.9
		c5.7-47.9,46.6-68.4,96.1-68.4c66,0,119.7-70.6,119.7-136.6V30.8h-60.9L150,89.6L91.2,30.8H30.3v11.5c0,43.4,23.2,81.5,57.9,102.5
		c9.1-5,18.9-8.8,29-11.5C83.4,121,58.3,90.5,53.9,53.7h27.7l68.4,68.4l68.4-68.4h27.7c-5.7,47.9-46.6,68.4-96.1,68.4
		c-66,0-119.7,70.6-119.7,136.6v11.5h60.9l58.8-58.8l58.8,58.8h60.9v-11.5C269.7,215.3,246.5,177.3,211.9,156.3z"/>
</g>
	<g id="Layer_10" class="st0">
	<path class="st1" d="M88.4,155.7c9.1,4.9,18.8,8.8,28.9,11.4c-33.6,12.2-58.6,42.6-62.9,79.2H82l68.1-68.1l68.1,68.1h27.6
		c-5.7-47.7-46.4-84.9-95.7-84.9C84.2,161.5,30.8,108,30.8,42.2V30.8h60.6L150,89.4l58.6-58.6h60.6v11.5
		c0,43.2-23.1,81.1-57.6,102.1c-9.1-4.9-18.8-8.8-28.9-11.4c33.6-12.2,58.6-42.6,62.9-79.2H218l-68,67.9l-68.1-68H54.3
		c5.7,47.7,46.4,84.9,95.7,84.9c65.8,0,119.2,53.5,119.2,119.2v11.5h-60.6L150,210.6l-58.6,58.6H30.8v-11.5
		C30.8,214.6,53.9,176.7,88.4,155.7z"/>
</g>
	<g id="Layer_12" class="st0">
	<g class="st2">
		<path class="st3" d="M88.5,254.7l61.5-61.5l61.5,61.5c23.9,0,41.2,0,43.2,0c0-57.8-46.9-104.7-104.7-104.7
			c-16.2,0-36.6-6.6-36.6-6.6l-67.9,67.9v43.4L88.5,254.7L88.5,254.7z"/>
		<path class="st3" d="M211.5,45.3l-61.6,60l-61.4-60c-23.9,0-41.2,0-43.2,0C45.3,103.1,92.2,150,150,150c16.2,0,36.9,6.3,36.9,6.3
			l67.6-67.6V45.3H211.5z"/>
		<g>
			<g>
				<path class="st4" d="M152.3,152.9c32.3,0,61.2,14.7,80.4,37.7"/>
				<path class="st3" d="M152.3,152.9c32.3,0,61.2,14.7,80.4,37.7"/>
			</g>
			<path class="st5" d="M152.3,152.9L152.3,152.9L152.3,152.9z"/>
			<g>
				<path class="st4" d="M152.3,152.9c-35.4,0-66.7-17.6-85.6-44.5"/>
				<path class="st3" d="M152.3,152.9c-35.4,0-66.7-17.6-85.6-44.5"/>
			</g>
		</g>
	</g>
</g>
	<g id="Layer_12_copy" class="st0">
	<g class="st2">
		<path class="st3" d="M88.5,254.7l45.9-45.9l15.6-15.6l61.5,61.5c23.9,0,41.2,0,43.2,0c0-57.8-46.9-104.7-104.7-104.7
			c-16.2,0-36.6-6.6-36.6-6.6l-67.9,67.9v43.4L88.5,254.7L88.5,254.7z"/>
		<path class="st3" d="M211.5,45.3l-61.6,60l-61.4-60c-23.9,0-41.2,0-43.2,0C45.3,103.1,92.2,150,150,150c16.2,0,36.9,6.3,36.9,6.3
			l67.6-67.6V45.3H211.5z"/>
		<g>
			<g>
				<path class="st4" d="M152.3,152.9c32.3,0,61.2,14.7,80.4,37.7"/>
				<path class="st3" d="M152.3,152.9c32.3,0,61.2,14.7,80.4,37.7"/>
			</g>
			<path class="st5" d="M152.3,152.9L152.3,152.9L152.3,152.9z"/>
			<g>
				<path class="st4" d="M152.3,152.9c-35.4,0-66.7-17.6-85.6-44.5"/>
				<path class="st3" d="M152.3,152.9c-35.4,0-66.7-17.6-85.6-44.5"/>
			</g>
		</g>
	</g>
</g>
	<g id="Layer_11_copy" class="st0">
	<g class="st2">
		<path class="st3" d="M90.5,251.3l59.5-59.5l59.5,59.5c23.1,0,39.9,0,41.8,0c0-56-45.4-101.3-101.3-101.3S48.7,195.4,48.7,251.3
			C50,251.3,66.9,251.3,90.5,251.3z"/>
		<g>
			<path class="st6" d="M251.3,48.7c0,56-45.4,101.3-101.3,101.3S48.7,104.6,48.7,48.7c1.9,0,18.7,0,41.8,0l59.5,59.5l59.5-59.5
				C233.1,48.7,250,48.7,251.3,48.7 M276.3,23.7h-25h-41.8h-10.4l-7.3,7.3L150,72.9L108.1,31l-7.3-7.3H90.5H48.7h-25v25
				c0,33.7,13.1,65.5,37,89.3s55.6,37,89.3,37s65.5-13.1,89.3-37s37-55.6,37-89.3V23.7L276.3,23.7z"/>
			<path class="st3" d="M209.5,48.7L150,108.2L90.5,48.7c-23.1,0-39.9,0-41.8,0C48.7,104.6,94,150,150,150s101.3-45.4,101.3-101.3
				C250,48.7,233.1,48.7,209.5,48.7z"/>
		</g>
		<path class="st3" d="M90.5,251.3l59.5-59.5l59.5,59.5"/>
	</g>
</g>
	<g id="Layer_11_copy_2" class="st0">
	<g class="st2">
		<g>
			<path class="st7" d="M150,162.5c-62.8,0-113.8-51.1-113.8-113.8V36.2h59.5L150,90.5l54.4-54.4h59.5v12.5
				C263.8,111.4,212.8,162.5,150,162.5z"/>
			<path class="st6" d="M251.3,48.7c0,56-45.4,101.3-101.3,101.3S48.7,104.6,48.7,48.7c1.9,0,18.7,0,41.8,0l59.5,59.5l59.5-59.5
				C233.1,48.7,250,48.7,251.3,48.7 M276.3,23.7h-25h-41.8h-10.4l-7.3,7.3L150,72.9L108.1,31l-7.3-7.3H90.5H48.7h-25v25
				c0,33.7,13.1,65.5,37,89.3s55.6,37,89.3,37s65.5-13.1,89.3-37s37-55.6,37-89.3V23.7L276.3,23.7z"/>
			<path class="st3" d="M209.5,48.7L150,108.2L90.5,48.7c-23.1,0-39.9,0-41.8,0C48.7,104.6,94,150,150,150s101.3-45.4,101.3-101.3
				C250,48.7,233.1,48.7,209.5,48.7z"/>
		</g>
		<path class="st3" d="M90.5,251.3l59.5-59.5l59.5,59.5"/>
		<g>
			<path class="st7" d="M203.5,265.8L150,212.3l-53.5,53.5H34.2v-14.5c0-63.9,52-115.8,115.8-115.8c63.9,0,115.8,52,115.8,115.8
				v14.5H203.5z"/>
			<path class="st6" d="M150,150c56,0,101.3,45.4,101.3,101.3c-1.9,0-18.7,0-41.8,0L150,191.8l-59.5,59.5c-23.5,0-40.4,0-41.8,0
				C48.7,195.4,94,150,150,150 M150,121c-34.8,0-67.5,13.6-92.2,38.2s-38.2,57.3-38.2,92.2v29h29h41.8h12l8.5-8.5l39-39l39,39
				l8.5,8.5h12h41.8h29v-29c0-34.8-13.6-67.5-38.2-92.2C217.5,134.6,184.8,121,150,121L150,121z"/>
			<path class="st3" d="M90.5,251.3l59.5-59.5l59.5,59.5c23.1,0,39.9,0,41.8,0c0-56-45.4-101.3-101.3-101.3S48.7,195.4,48.7,251.3
				C50,251.3,66.9,251.3,90.5,251.3z"/>
		</g>
	</g>
</g>
	<g id="Layer_2_copy_5" class="st0">
	<path class="st1" d="M182.9,167.8c33.8,12.2,58.8,42.7,63.2,79.5h-27.7L150,178.9l-68.4,68.4H53.9c5.7-47.9,46.6-68.4,96.1-68.4
		c66,0,119.7-70.6,119.7-136.6V30.8h-60.9L150,89.6L91.2,30.8H30.3v11.5c0,43.4,29.1,91,86.9,91C83.4,121,58.3,90.5,53.9,53.7h27.7
		l68.4,68.4l68.4-68.4h27.7c-5.7,47.9-46.6,68.4-96.1,68.4c-66,0-119.7,70.6-119.7,136.6v11.5h60.9l58.8-58.8l58.8,58.8h60.9v-11.5
		C269.7,215.3,240.5,167.8,182.9,167.8z"/>
</g>
	<g id="Layer_2_copy_6" class="st0">
	<path class="st1" d="M117.2,167.8C83.4,180,58.3,210.5,54,247.3h27.7l68.4-68.4l68.4,68.4h27.7c-5.7-47.9-46.6-87.3-96.1-87.3
		C72.2,160,28.6,109.4,30.3,42.2V30.7h60.9L150,89.6l58.8-58.8h60.9v11.5c0,43.4-29.1,91-86.9,91c33.8-12.2,58.8-42.7,63.2-79.5
		h-27.7L150,112.1L81.7,53.7H54c5.7,47.9,46.6,86.3,96.1,86.3c66,0,119.7,52.7,119.7,118.8v11.5h-60.9L150,211.4l-58.8,58.8H30.3
		v-11.5C30.3,215.3,59.6,167.8,117.2,167.8z"/>
</g>
	<g id="Layer_2_copy_7" class="st0">
	<g class="st2">
		<path class="st7" d="M182.9,166c33.8,12.2,58.8,42.7,63.2,79.5h-27.7L150,177.2l-68.4,68.4H53.9c4.4-36.8,29.4-67.3,63.2-79.5
			c-57.6,0-86.9,47.6-86.9,91v11.5h60.9l58.8-58.8l58.8,58.8h60.9V257C269.7,213.6,240.5,166,182.9,166z"/>
		<path class="st7" d="M208.8,31.5L150,90.3L91.2,31.5H30.3V43c0,43.4,29.3,91,86.9,91C83.4,121.8,58.4,91.3,54,54.5h27.7l68.4,68.4
			l68.4-68.4h27.7c-4.4,36.8-29.4,67.3-63.2,79.5c57.6,0,86.9-47.6,86.9-91V31.5H208.8z"/>
	</g>
</g>
	<g id="Layer_2_copy" class="st0">
	<g class="st2">
		<path class="st7" d="M26.3,258.8c0-33.4,13.1-68.3,36-95.6c24.3-29,55.4-45,87.7-45c53.6,0,87.2-23.6,92.1-64.8l0.2-1.4l31.5-30.6
			v21c0,33.4-13.1,68.3-36,95.6c-24.3,29-55.4,45-87.7,45c-53.6,0-87.2,23.6-92.1,64.8l-0.2,1.4l-31.5,30.6
			C26.3,279.8,26.3,258.8,26.3,258.8z"/>
		<path class="st6" d="M269.7,30.8v11.5c0,66-53.7,136.6-119.7,136.6c-49.5,0-90.4,20.4-96.1,68.4l-23.7,23v-11.5
			c0-66,53.7-136.6,119.7-136.6c49.5,0,90.4-20.4,96.1-68.4L269.7,30.8 M277.7,11.8L264.2,25l-23.7,23l-2,2l-0.3,2.8
			c-2.4,20.3-11.8,35.9-28,46.4c-15.1,9.8-35.8,14.9-60.1,14.9c-17.2,0-34.2,4.4-50.3,13c-15,8-28.6,19.2-40.4,33.4
			c-23.5,28.1-37,63.9-37,98.2v11.5v18.9L35.8,276l23.7-23l2-2l0.3-2.8c2.4-20.3,11.8-35.9,28-46.4c15.1-9.8,35.8-14.9,60.1-14.9
			c17.2,0,34.2-4.4,50.3-13c15-8,28.6-19.2,40.4-33.4c23.5-28.1,37-63.9,37-98.2V30.8v-19H277.7z"/>
	</g>
</g>
	<g id="Layer_2_copy_2" class="st0">
	<path class="st8" d="M263.7,81.7c-15.8,51.9-60.8,97.2-113.7,97.2c-44.5,0-82.1,16.5-93.3,54.8c2.6,0.6,5.2,1.1,7.9,1.6
		c4.3-14.1,12.8-25.3,25.3-33.4C105,192.1,125.7,187,150,187c17.2,0,34.2-4.4,50.3-13c15-8,28.6-19.2,40.4-33.4
		c14-16.8,24.5-36.3,30.7-56.7C268.8,83.1,266.2,82.4,263.7,81.7z"/>
</g>
	<g id="Layer_14" class="st0">
	<g class="st2">
		<path class="st3" d="M212,44.5l-62,62l-62-62c-24.1,0-41.5,0-43.5,0C44.5,102.8,91.8,150,150,150s105.5-47.2,105.5-105.5
			C254,44.5,236.4,44.5,212,44.5z"/>
		<path class="st3" d="M88,255.5l62-62l62,62c24.1,0,41.5,0,43.5,0c0-58.2-47.2-105.5-105.5-105.5S44.5,197.2,44.5,255.5
			C46,255.5,63.6,255.5,88,255.5z"/>
	</g>
</g>
	<g id="Layer_14_copy" class="st0">
	<g class="st2">
		<path class="st7" d="M209.3,260L150,200.7L90.7,260H38v-6.5c0-27.2,9.9-53.4,27.8-73.9c12-13.7,27.1-24.1,43.8-30.6
			c-16.7-6.5-31.8-16.9-43.8-30.6C47.9,98,38,71.7,38,44.5V38h52.7L150,97.3L209.3,38H262v6.5c0,27.2-9.9,53.4-27.8,73.9
			c-12,13.7-27.1,24.1-43.8,30.6c16.7,6.5,31.8,16.9,43.8,30.6c17.9,20.4,27.8,46.7,27.8,73.9v6.5H209.3z"/>
		<path class="st7" d="M255.5,44.5c0,53.3-39.6,97.4-90.9,104.5c51.4,7.1,90.9,51.1,90.9,104.5c-2,0-19.4,0-43.5,0l-62-62l-62,62
			c-24.5,0-42,0-43.5,0c0-53.3,39.6-97.4,90.9-104.5C84,141.9,44.5,97.9,44.5,44.5c2,0,19.4,0,43.5,0l62,62l62-62
			C236.4,44.5,254,44.5,255.5,44.5 M268.5,31.5h-13H212h-5.4l-3.8,3.8L150,88.1L97.2,35.3l-3.8-3.8H88H44.5h-13v13
			c0,28.8,10.5,56.5,29.4,78.2c9.5,10.8,20.7,19.7,33.1,26.3c-12.4,6.7-23.7,15.5-33.1,26.3c-19,21.6-29.4,49.4-29.4,78.2v13h13H88
			h5.4l3.8-3.8l52.8-52.8l52.8,52.8l3.8,3.8h5.4h43.5h13v-13c0-28.8-10.5-56.5-29.4-78.2c-9.5-10.8-20.7-19.7-33.1-26.3
			c12.4-6.7,23.7-15.5,33.1-26.3c19-21.6,29.4-49.4,29.4-78.2V31.5L268.5,31.5z"/>
		<path class="st6" d="M255.5,44.5c0,53.3-39.6,97.4-90.9,104.5c51.4,7.1,90.9,51.1,90.9,104.5c-2,0-19.4,0-43.5,0l-62-62l-62,62
			c-24.5,0-42,0-43.5,0c0-53.3,39.6-97.4,90.9-104.5C84,141.9,44.5,97.9,44.5,44.5c2,0,19.4,0,43.5,0l62,62l62-62
			C236.4,44.5,254,44.5,255.5,44.5 M263.5,36.5h-8H212h-3.3l-2.3,2.3L150,95.2L93.7,38.9l-2.3-2.3H88H44.5h-8v8
			c0,27.6,10,54.2,28.2,74.9c11.4,12.9,25.4,23,41,29.6c-15.6,6.6-29.6,16.7-41,29.6c-18.2,20.7-28.2,47.3-28.2,74.9v8h8H88h3.3
			l2.3-2.3l56.3-56.3l56.3,56.3l2.3,2.3h3.3h43.5h8v-8c0-27.6-10-54.2-28.2-74.9c-11.4-12.9-25.4-23-41-29.6
			c15.6-6.6,29.6-16.7,41-29.6c18.2-20.7,28.2-47.3,28.2-74.9v-8.1H263.5z"/>
	</g>
</g>
	<g id="Layer_2_copy_3" class="st0">
	<g class="st2">
		<polygon class="st7" points="150,217.1 89.7,277.3 76.9,246.3 150,173.2 223.1,246.3 210.3,277.3 		"/>
		<path class="st6" d="M150,178.9l68.4,68.4l-9.5,23L150,211.4l-58.8,58.8l-9.5-23L150,178.9 M150,167.6l-5.7,5.7L76,241.6l-3.8,3.8
			l2,4.9l9.5,23l4.6,11.1l8.5-8.5l53.2-53.2l53.2,53.2l8.5,8.5l4.6-11.1l9.5-23l2-4.9l-3.8-3.8l-68.4-68.4L150,167.6L150,167.6z"/>
	</g>
		<g class="st2">
		<polygon class="st7" points="76.9,54.7 89.7,23.7 150,83.9 210.2,23.7 223.1,54.7 150,127.8 		"/>
			<g>
			<path class="st6" d="M208.8,30.8l9.5,23L150,122.1L81.6,53.7l9.5-23L150,89.6L208.8,30.8 M88.3,16.6l-4.6,11.1l-9.5,23l-2,4.9
				l3.8,3.8l68.4,68.4l5.7,5.7l5.7-5.7L224,59.4l3.8-3.8l-2-4.9l-9.5-23l-4.6-11.1l-8.5,8.5L150,78.3L96.8,25.1L88.3,16.6L88.3,16.6
				z"/>
		</g>
	</g>
</g>
	<g id="Layer_2_copy_4" class="st0">
	<polygon class="st1" points="105.5,83.3 122.2,56.2 150,83.9 187.9,46 202.1,75.6 150,127.8 	"/>
		<path class="st8" d="M207.3,64.8L150,122.1L94.6,66.7c-1.7,2.1-3.4,4.2-5.1,6.3l54.8,54.8l5.7,5.7l5.7-5.7l56.1-56.1
		C210.3,69.4,208.8,67.1,207.3,64.8z"/>
		<path class="st8"
			  d="M194.6,45c-1.4-2.4-2.8-4.8-4.1-7.2L150,78.3l-36.2-36.2c-1.6,2.1-3.3,4.3-4.9,6.4L150,89.6L194.6,45z"/>
</g>
	<g id="guides" class="st0">
</g>
	<g>
	<g>
		<path class="st7" d="M111.1,159.5c-31.2,18.6-49.2,54-43.8,89.3c0,0-15.7-15.7-15.7-15.7l42.6,4.7c0,0-7.7,3.2-7.7,3.2
			c4.2-4.1,61-58.8,63.6-61.3c2.2,2.2,59,58.2,62.8,62c0,0-7.1-2.9-7.1-2.9s42.6-6,42.6-6s-16,16-16,16
			c5.5-35.2-12.4-70.6-43.5-89.2c0,0,0.9-1.9,0.9-1.9c18.6,5.4,36.3,16.7,49.7,32.6c13.8,16.3,22.5,37,25,58.6
			c0,0,2.1,18.5,2.1,18.5c-14.8-2.1-50.7-7.1-65.8-9.2c0,0-2-2.2-2-2.2l-53.3-58.2h9.2L102,256.5c0,0-2.3,2.6-2.3,2.6
			c-2.7,0.4-44.4,4.9-48,5.3c0,0-17.6,2-17.6,2s2-17.6,2-17.6c1.2-11,4-21.7,8.3-31.6c11.7-28.4,37.4-51.6,66-59.6
			C110.2,157.6,111.1,159.5,111.1,159.5L111.1,159.5z"/>
	</g>
		<g>
		<path class="st7" d="M188.9,140.5c31.2-18.6,49.2-54,43.8-89.3c0,0,15.7,15.7,15.7,15.7l-42.6,0.3l11.3-4.7
			c-3.6,3.1-65.4,55.5-67.1,56.9c-1.4-1.3-63.7-53.9-67.1-56.9c0,0,11.3,4.7,11.3,4.7s-42.6,0-42.6,0l16-16
			c-5.5,35.2,12.4,70.6,43.5,89.2c0,0-0.9,1.9-0.9,1.9C91.6,137,74,125.8,60.6,109.8c-13.8-16.3-22.5-37-25-58.6c0,0-1.8-16-1.8-16
			c16.1,0,51.8,0,68.1,0c0,0,3.7,4.7,3.7,4.7l49.1,62.5h-9.2l49.1-62.5l3.7-4.7c0,0,7.6,0.1,7.6,0.1c11.8,0.1,48.7,0.4,60,0.5
			c0,0-1.7,15.5-1.7,15.5c-4,41.7-34.5,80-74.3,91.2C189.8,142.4,188.9,140.5,188.9,140.5L188.9,140.5z"/>
	</g>
</g>
</svg>
