<svg version="1.1" id="Layer_3" xmlns="http://www.w3.org/2000/svg" x="0" y="0" viewBox="0 0 300 300"
     style="enable-background:new 0 0 300 300" xml:space="preserve"><style>.st0{fill:#2d2d33}</style>
    <path class="st0"
          d="M240.8 85.2c-.2 1.2-.4 2.5-.6 3.7-.5 2.6-1 5.2-1.6 7.9 24.5 10.3 43.8 25.9 43.8 48.7 0 4.6-1.6 16.4-18.6 26.4-.2.1-.5.3-.7.4-.3.2-.6.4-.9.5-.3.1-.5.3-.8.4-.3.2-.6.3-1 .5-.3.2-.6.3-.9.5-.3.2-.7.3-1 .5-.3.2-.7.3-1 .5-.3.1-.5.2-.8.4-5.2 2.3-11.5 4.5-19 6.3h-.1c-1 .2-2 .5-3 .7-.1 0-.3.1-.4.1l-3 .6c-.1 0-.3.1-.4.1-.4.1-.7.2-1.1.2-5.5 1.1-11.6 2-18.4 2.7-7 .6-9.2-7.9-5.5-14.8.7-1.2 1.4-2.4 2-3.6 1.2-2.2 2.4-4.3 3.4-6.2.2-.4.5-.9.7-1.3.1-.1.2-.3.2-.4.2-.4.5-.9.7-1.3.7-1.3 1.4-2.6 2-3.9.2-.3.3-.7.5-1 .6-1.2 1.2-2.4 1.8-3.5 2.2-4.6 4.3-9.3 6.2-14l1.8-4.5c0-.1.1-.2.1-.4.6-1.6 1.2-3.1 1.7-4.7.1-.2.2-.5.2-.7 1.1-3.2 2.2-6.3 3.2-9.5.1-.2.1-.4.2-.7.5-1.6.9-3.1 1.4-4.7 0-.2.1-.3.1-.5l1.2-4.5c0-.1.1-.2.1-.3.4-1.5.8-3.1 1.1-4.6.1-.2.1-.5.2-.7.4-1.5.7-3.1 1-4.6.8-4 1.6-7.9 2.1-11.7.1-.4.1-.7.2-1.1.1-.5.2-1.1.2-1.6.1-.4.1-.8.1-1.1.1-.5.1-1 .2-1.5 0-.4.1-.7.1-1.1.1-.6.1-1.2.2-1.8 0-.3.1-.6.1-.8.1-.8.1-1.6.2-2.4 0-.3 0-.7.1-1 0-.5.1-1 .1-1.5 0-.4 0-.7.1-1.1 0-.5 0-1 .1-1.5v-5.6c-.4-36.5-19.8-53.9-67-11.2-17.7 16-20.6 16.6-22.7 16.6s-5-.7-22.7-16.6C80.1 8 60.7 25.3 60.3 61.9v5.6c0 .5 0 1 .1 1.5 0 .4 0 .7.1 1.1 0 .5.1 1 .1 1.5 0 .3 0 .7.1 1 .1.8.1 1.6.2 2.4 0 .3.1.6.1.8.1.6.1 1.2.2 1.8 0 .4.1.7.1 1.1.1.5.1 1 .2 1.5 0 .4.1.8.1 1.1.1.5.1 1.1.2 1.6.1.4.1.7.2 1.1.6 3.8 1.3 7.7 2.1 11.7.3 1.5.7 3.1 1 4.6.1.2.1.5.2.7.4 1.5.7 3.1 1.1 4.6 0 .1.1.2.1.3l1.2 4.5c0 .2.1.3.1.5.4 1.5.9 3.1 1.4 4.7.1.2.1.4.2.7 1 3.2 2 6.3 3.2 9.5.1.2.2.5.2.7.6 1.6 1.1 3.1 1.7 4.7 0 .1.1.2.1.4l1.8 4.5c1.9 4.7 4 9.4 6.2 14 .6 1.2 1.2 2.4 1.8 3.5.2.3.3.7.5 1 .7 1.3 1.3 2.6 2 3.9.2.4.5.8.7 1.3.1.1.2.3.2.4.2.4.5.8.7 1.3 1 1.9 2.2 4 3.4 6.2.6 1.2 1.3 2.4 2 3.6 3.7 6.9 1.5 15.4-5.5 14.8-6.7-.7-12.8-1.6-18.4-2.7-.4-.1-.8-.2-1.1-.2-.1 0-.3-.1-.4-.1l-3-.6c-.1 0-.3-.1-.4-.1-1-.2-2-.5-3-.7H62c-7.5-1.8-13.8-4-19-6.3-.3-.1-.5-.2-.8-.4-.3-.2-.7-.3-1-.5-.3-.2-.7-.3-1-.5-.3-.2-.6-.3-.9-.5-.3-.2-.7-.3-1-.5-.3-.1-.5-.3-.8-.4-.3-.2-.6-.3-.9-.5-.2-.1-.5-.3-.7-.4-17.1-10-18.6-21.8-18.6-26.4 0-22.8 19.3-38.4 43.8-48.7-.6-2.7-1.1-5.3-1.6-7.9-.2-1.3-.4-2.5-.6-3.7C23.6 98.2.4 119.1.4 145c0 18.7 8.4 33.7 20.9 45.8 10.4 10 23.6 18 37.4 24.4 4.3 2 8.6 3.9 12.9 5.6 22.3 8.9 14.3 17.3 5.5 22.8-8 4-39 .1-31.9-32-5.8-3.2-11.3-6.8-16.5-10.6-21.8 50.9 13.3 76.7 42.9 73 49.8-6.2 51-26.6 78.4-25.3 27.4-1.3 28.6 19.1 78.4 25.3 29.6 3.7 64.8-22.1 42.8-73.1-5.2 3.9-10.7 7.4-16.5 10.6 7.1 32.1-23.9 36-31.9 32-8.8-5.5-16.8-13.9 5.5-22.8 4.3-1.7 8.7-3.6 12.9-5.6 13.8-6.4 27-14.4 37.4-24.4 12.6-12.1 20.9-27.1 20.9-45.8.1-25.8-23.1-46.7-58.7-59.7zm-45.9 39c-.6.9-1.2 1.7-1.8 2.6-.2.2-.3.5-.5.7-.1.1-.2.2-.3.4-.1.2-.2.3-.4.5-.1.2-.3.4-.4.5-.1.1-.2.3-.3.4-.2.2-.4.5-.5.7-.1.1-.1.2-.2.3-.2.3-.4.6-.7.9l-.2.2c-.3.3-.5.7-.8 1.1l-.1.1-.9 1.2c-3 3.9-6.8 8.7-11 13.4-8.9 10-19.4 19.6-26.8 19.6s-17.9-9.6-26.8-19.6c-4.2-4.7-8-9.5-11-13.4l-.9-1.2-.1-.1c-.3-.4-.5-.7-.8-1.1l-.2-.2c-.2-.3-.5-.6-.7-.9-.1-.1-.1-.2-.2-.3-.2-.3-.4-.5-.5-.7-.1-.1-.2-.3-.3-.4-.1-.2-.3-.4-.4-.5-.1-.2-.2-.3-.4-.5-.1-.1-.2-.2-.3-.4-.2-.3-.4-.5-.5-.7-.6-.9-1.2-1.7-1.8-2.6-12.6-18-26.2-38.7-28.6-60.4-.7-6.5-.5-13 1.1-19.6 6.6-15.3 32.6 3.9 48.9 18.8 4.1 4 3.9 8.5-3.2 8.9-14.3 1.2-27.9 3.3-40.5 6.3 1.1 3.4 2.5 6.8 4 10.1 13.2-3.5 26.5-5.8 38.3-7.2 3.8.3 5.4 3.9 1.5 7.3l.3-.1c-7.7 6.4-16.8 14.5-26.5 23.9 2.3 3.4 4.5 6.7 6.7 9.8 10.1-10.5 21.5-21.5 34.5-32.5 2.7-2.3 5.2-3.5 8.2-3.5s5.5 1.3 8.2 3.5c13 11 24.5 22 34.5 32.5 2.2-3.1 4.5-6.4 6.7-9.8-9.7-9.4-18.8-17.6-26.5-23.9l.3.1c-3.9-3.4-2.3-7 1.5-7.3 11.8 1.4 25.1 3.7 38.3 7.2 1.5-3.3 2.9-6.7 4-10.1-12.6-3-26.2-5.1-40.5-6.3-7.2-.4-7.4-4.8-3.2-8.9 16.3-14.9 42.3-34.1 48.9-18.8 1.6 6.6 1.8 13.1 1.1 19.6-2.1 21.7-15.6 42.4-28.2 60.4z"/>
    <path class="st0"
          d="M219.4 152.2c3.6 4.4 6.9 8.6 9.9 12.5 3.7 4.8 7 9.4 9.8 13.7 5.6-1.5 11-3.2 15.8-5.3-4-5.5-8.5-11.2-13.7-17-5.2-5.9-10.5-11.7-15.8-17.4-1.8 4.6-3.8 9.1-6 13.5zM60.9 178.4c2.8-4.3 6.1-8.8 9.8-13.7 3-3.9 6.3-8.1 9.9-12.5-2.1-4.4-4.2-8.9-6.1-13.6-5.3 5.7-10.6 11.5-15.8 17.4-5.2 5.9-9.7 11.6-13.7 17 4.9 2.2 10.2 3.9 15.9 5.4z"/></svg>
