<?xml version="1.0" encoding="utf-8"?>
<!-- Generator: Adobe Illustrator 27.3.1, SVG Export Plug-In . SVG Version: 6.00 Build 0)  -->
<svg version="1.1" xmlns="http://www.w3.org/2000/svg" x="0px" y="0px"
     viewBox="0 0 300 300" style="enable-background:new 0 0 300 300;" xml:space="preserve">
<style type="text/css">
	.st0{fill:#2D2D33;}
	.st1{display:none;}
	.st2{display:inline;}
	.st3{display:inline;fill:#2D2D33;}
</style>
    <g id="Layer_5_copy_3">
	<g>
		<polygon class="st0"
                 points="96.2,114.8 116.2,121.6 116.2,68.7 60.9,50 28.9,78.6 96.2,101.2 96.2,114.8 		"/>
        <polygon class="st0"
                 points="203.8,101.2 271.1,78.6 239.1,50 183.8,68.7 183.8,121.6 203.8,114.8 203.8,101.2 		"/>
        <polygon class="st0"
                 points="96.2,180.7 60.9,168.9 28.9,197.4 116.2,226.8 116.2,173.8 96.2,167.1 96.2,180.7 		"/>
        <polygon class="st0" points="203.8,121.3 203.8,121.3 183.8,128.1 183.8,128.1 171.6,132.2 171.6,52.8 150,45.5 128.4,52.8
			128.4,132.2 116.2,128.1 116.2,128.1 96.2,121.3 96.2,121.3 60.9,109.4 28.9,138 128.4,171.3 128.4,247.2 150,254.5 171.6,247.2 
			171.6,171.3 271.1,138 239.1,109.4 203.8,121.3 		"/>
        <polygon class="st0"
                 points="203.8,180.7 203.8,167.1 183.8,173.8 183.8,226.8 271.1,197.4 239.1,168.9 203.8,180.7 		"/>
	</g>
</g>
    <g id="Layer_11" class="st1">
	<g id="Layer_2_00000057841344218188071820000007789197602602080393_" class="st2">
		<g>
			<polygon class="st0" points="671.2,110.4 627.8,110.4 646.3,147.6 652.6,161.8 686.7,141.4 			"/>
            <polygon class="st0" points="730,141.4 764.1,161.8 770.4,147.6 788.9,110.4 745.5,110.4 			"/>
            <polygon class="st0"
                     points="723.7,82.5 739.2,82.5 729.9,67 698.9,67 677.2,110.5 708.2,172.5 739.2,110.5 			"/>
            <polygon class="st0"
                     points="649.5,54.6 558.4,8.8 581.3,54.6 581.3,54.6 606.1,104.2 674.4,104.2 			"/>
            <polygon class="st0" points="666.5,159.7 684.6,201.2 699.1,172.4 686.7,147.6 			"/>
            <polygon class="st0" points="717.6,172.4 732.1,201.2 750.2,159.7 730,147.6 			"/>
            <polygon class="st0"
                     points="858.4,8.8 767.3,54.6 742.4,104.2 810.7,104.2 835.5,54.6 835.5,54.6 			"/>
		</g>
	</g>
</g>
    <g id="Layer_4" class="st1">
	<path id="Layer_2_00000098206764661109339940000006061335608741977013_" class="st3" d="M237.7,62.3l-54.9,15.1
		c-16.7,36.6-17.6,57.3-17.6,57.3s20.7-0.8,57.3-17.6L237.7,62.3L237.7,62.3z M274,150l-49.5-28.1c-37.7,14.1-53,28.1-53,28.1
		s15.3,14.1,53,28.1L274,150z M237.7,237.7l-15.1-54.9c-36.6-16.7-57.3-17.6-57.3-17.6s0.8,20.7,17.6,57.3L237.7,237.7L237.7,237.7z
		 M150,274l28.1-49.5c-14.1-37.7-28.1-53-28.1-53s-14.1,15.3-28.1,53L150,274z M62.3,237.7l54.9-15.1c16.7-36.6,17.6-57.3,17.6-57.3
		s-20.7,0.8-57.3,17.6C77.5,182.9,62.3,237.7,62.3,237.7z M26,150l49.5,28.1c37.7-14.1,53-28.1,53-28.1s-15.3-14.1-53-28.1L26,150z
		 M62.3,62.3l15.1,54.9c36.6,16.7,57.3,17.6,57.3,17.6s-0.8-20.7-17.6-57.3C117.1,77.5,62.3,62.3,62.3,62.3z M150,26l-28.1,49.5
		c14.1,37.7,28.1,53,28.1,53s14.1-15.3,28.1-53L150,26z"/>
</g>
    <g id="Layer_2" class="st1">
</g>
</svg>
