<svg xmlns="http://www.w3.org/2000/svg" viewBox="0 0 300 300" style="enable-background:new 0 0 300 300"
     xml:space="preserve"><style>.st6{fill:#2d2d33}</style>
    <g id="Layer_1_copy_3"><path class="st6" d="M51.7 174.2h194.1v24.7H51.7zm122.7-57.1h71.4v24.7h-71.4zm-122.7 0h66v24.7h-66z"/>
        <path class="st6"
              d="M130.2 262.2V160.3l-36.4-41.4L27 36.8h47.6l76.2 96.4 73.9-96.4H271l-66.4 82.1-20 24.7-16 20.1v98.5z"/>
        <path d="m265 39.7-62.7 77.5-20 24.7-16.6 20.9v96.6H133v-98.2l.7-1-37.8-43L33 39.7h40.3l77.5 98.2 75.3-98.2H265m11.9-5.7h-53.6l-1.7 2.2-70.9 92.4-73-92.5L76 34H21l7.5 9.2 63 77.5.1.1.1.1 35.6 40.5V265h44.2V164.7l15.4-19.3 20-24.7 62.7-77.5 7.3-9.2z"
              style="fill:#fff"/></g></svg>
