<?xml version="1.0" encoding="utf-8"?>
<!-- Generator: Adobe Illustrator 25.4.8, SVG Export Plug-In . SVG Version: 6.00 Build 0)  -->
<svg version="1.1" xmlns="http://www.w3.org/2000/svg" x="0px" y="0px"
	 viewBox="0 0 300 300" style="enable-background:new 0 0 300 300;" xml:space="preserve">
<style type="text/css">
	.st0{display:none;}
	.st1{display:inline;}
	.st2{fill:#CCCCCB;}
	.st3{fill:#F2B6B6;}
	.st4{fill:#2E2E33;}
	.st5{fill:none;stroke:#FFFFFF;stroke-width:5.6693;stroke-miterlimit:10;}
	.st6{fill:#2D2D33;}
	.st7{display:inline;fill:#2D2D33;}
	.st8{fill:#FFFFFF;}
</style>
	<g id="Layer_1" class="st0">
	<g id="Layer_1_00000088839695728788450740000005465010154557011080_">
		<g id="Layer_2_copy_3" class="st1">
			<g>
				<g>
					<polygon class="st2" points="221.6,78.4 156,129.4 150,150 170.6,144 					"/>
				</g>
				<g>
					<polygon class="st2" points="251.3,150 168.8,139.7 150,150 168.8,160.3 					"/>
				</g>
				<g>
					<polygon class="st2" points="221.6,221.6 170.6,156 150,150 156,170.6 					"/>
				</g>
				<g>
					<polygon class="st2" points="150,251.3 160.3,168.8 150,150 139.7,168.8 					"/>
				</g>
				<g>
					<polygon class="st2" points="78.4,221.6 144,170.6 150,150 129.4,156 					"/>
				</g>
				<g>
					<polygon class="st2" points="48.7,150 131.2,160.3 150,150 131.2,139.7 					"/>
				</g>
				<g>
					<polygon class="st2" points="78.4,78.4 129.4,144 150,150 144,129.4 					"/>
				</g>
				<g>
					<polygon class="st2" points="150,48.7 139.7,131.2 150,150 160.3,131.2 					"/>
				</g>
			</g>
		</g>
		<g id="Layer_2_copy_4" class="st1">
			<g>
				<g>
					<g>
						<g>
							<polygon class="st3" points="300,88.2 173.1,140.8 221.6,78.4 							"/>
							<path class="st3" d="M150,150"/>
						</g>
					</g>
					<g>
						<g>
							<polygon class="st3" points="211.8,0 159.2,126.9 221.6,78.4 							"/>
							<path class="st3" d="M150,150"/>
						</g>
					</g>
				</g>
				<g>
					<g>
						<g>
							<polygon class="st3"
									 points="299.8,212.4 172.9,159.8 251.3,150 							"/>
							<path class="st3" d="M150,150"/>
						</g>
					</g>
					<g>
						<g>
							<polygon class="st3"
									 points="299.8,87.6 172.9,140.2 251.3,150 							"/>
							<path class="st3" d="M150,150"/>
						</g>
					</g>
				</g>
				<g>
					<g>
						<g>
							<polygon class="st3"
									 points="211.8,300 159.2,173.1 221.6,221.6 							"/>
							<path class="st3" d="M150,150"/>
						</g>
					</g>
					<g>
						<g>
							<polygon class="st3"
									 points="300,211.8 173.1,159.2 221.6,221.6 							"/>
							<path class="st3" d="M150,150"/>
						</g>
					</g>
				</g>
				<g>
					<g>
						<g>
							<polygon class="st3"
									 points="87.6,299.8 140.2,172.9 150,251.3 							"/>
							<path class="st3" d="M150,150"/>
						</g>
					</g>
					<g>
						<g>
							<polygon class="st3"
									 points="212.4,299.8 159.8,172.9 150,251.3 							"/>
							<path class="st3" d="M150,150"/>
						</g>
					</g>
				</g>
				<g>
					<g>
						<g>
							<polygon class="st3" points="0,211.8 126.9,159.2 78.4,221.6 							"/>
							<path class="st3" d="M150,150"/>
						</g>
					</g>
					<g>
						<g>
							<polygon class="st3" points="88.2,300 140.8,173.1 78.4,221.6 							"/>
							<path class="st3" d="M150,150"/>
						</g>
					</g>
				</g>
				<g>
					<g>
						<g>
							<polygon class="st3" points="0.2,87.6 127.1,140.2 48.7,150 							"/>
							<path class="st3" d="M150,150"/>
						</g>
					</g>
					<g>
						<g>
							<polygon class="st3" points="0.2,212.4 127.1,159.8 48.7,150 							"/>
							<path class="st3" d="M150,150"/>
						</g>
					</g>
				</g>
				<g>
					<g>
						<g>
							<polygon class="st3" points="88.2,0 140.8,126.9 78.4,78.4 							"/>
							<path class="st3" d="M150,150"/>
						</g>
					</g>
					<g>
						<g>
							<polygon class="st3" points="0,88.2 126.9,140.8 78.4,78.4 							"/>
							<path class="st3" d="M150,150"/>
						</g>
					</g>
				</g>
				<g>
					<g>
						<g>
							<polygon class="st3" points="212.4,0.2 159.8,127.1 150,48.7 							"/>
							<path class="st3" d="M150,150"/>
						</g>
					</g>
					<g>
						<g>
							<polygon class="st3" points="87.6,0.2 140.2,127.1 150,48.7 							"/>
							<path class="st3" d="M150,150"/>
						</g>
					</g>
				</g>
			</g>
		</g>
		<g id="flat" class="st1">
			<g>
				<polygon class="st4" points="149.8,131 150,130.6 150.2,131 150.2,130.2 179.6,78.5 150.2,26.8 150.2,26 150,26.4 149.8,26 
					149.8,26.8 120.4,78.5 149.8,130.2 				"/>
				<polygon class="st4" points="163.3,136.4 163.7,136.3 163.6,136.7 164.2,136.1 221.5,120.4 237.3,63.1 237.9,62.5 237.4,62.6 
					237.5,62.2 236.9,62.7 179.6,78.5 163.9,135.8 				"/>
				<polygon class="st4" points="273.2,149.8 221.5,120.4 169.8,149.8 169,149.8 169.4,150 169,150.2 169.8,150.2 221.5,179.6 
					273.2,150.2 274,150.2 273.6,150 274,149.8 				"/>
				<polygon class="st4" points="163.6,163.3 163.7,163.7 163.3,163.6 163.9,164.2 179.6,221.5 236.9,237.3 237.5,237.9 
					237.4,237.4 237.9,237.5 237.3,236.9 221.5,179.6 164.2,163.9 				"/>
				<polygon class="st4" points="150.2,169 150,169.4 149.8,169 149.8,169.8 120.4,221.5 149.8,273.2 149.8,274 150,273.6 
					150.2,274 150.2,273.2 179.6,221.5 150.2,169.8 				"/>
				<polygon class="st4" points="136.7,163.6 136.3,163.7 136.4,163.3 135.8,163.9 78.5,179.6 62.7,236.9 62.2,237.5 62.6,237.4 
					62.5,237.9 63.1,237.3 120.4,221.5 136.1,164.2 				"/>
				<polygon class="st4" points="131,150.2 130.6,150 131,149.8 130.2,149.8 78.5,120.4 26.8,149.8 26,149.8 26.4,150 26,150.2 
					26.8,150.2 78.5,179.6 130.2,150.2 				"/>
				<polygon class="st4" points="136.4,136.7 136.3,136.3 136.7,136.4 136.1,135.8 120.4,78.5 63.1,62.7 62.5,62.2 62.6,62.6 
					62.2,62.5 62.7,63.1 78.5,120.4 135.8,136.1 				"/>
			</g>
		</g>
		<g class="st1">
			<g>
				<line class="st5" x1="277.1" y1="202.7" x2="22.9" y2="97.3"/>
			</g>
			<g>
				<line class="st5" x1="202.7" y1="277.1" x2="97.3" y2="22.9"/>
			</g>
			<g>
				<line class="st5" x1="97.3" y1="277.1" x2="202.7" y2="22.9"/>
			</g>
			<g>
				<line class="st5" x1="22.9" y1="202.7" x2="277.1" y2="97.3"/>
			</g>
		</g>
	</g>
		<g class="st1">
		<g>
			<g>
				<polygon class="st6" points="133,161.1 133,174.2 51.7,174.2 51.7,198.9 133,198.9 133,259.3 165.8,259.3 165.8,198.9 
					245.8,198.9 245.8,174.2 165.8,174.2 165.8,162.7 182.4,141.8 245.8,141.8 245.8,117.1 202.4,117.1 265,39.7 226.1,39.7 				"/>
			</g>
		</g>
			<g>
			<polygon class="st6"
					 points="51.7,117.1 51.7,141.8 117.7,141.8 135.6,118.5 73.3,39.7 33,39.7 96,117.1 			"/>
		</g>
	</g>
</g>
	<g id="Layer_1_copy" class="st0">
	<g id="Layer_1_00000062193910993916603080000008685477105250437042_">
		<g id="Layer_2_copy_3_00000000212467149542480350000008720006886194241191_" class="st1">
			<g>
				<g>
					<polygon class="st2" points="221.6,78.4 156,129.4 150,150 170.6,144 					"/>
				</g>
				<g>
					<polygon class="st2" points="251.3,150 168.8,139.7 150,150 168.8,160.3 					"/>
				</g>
				<g>
					<polygon class="st2" points="221.6,221.6 170.6,156 150,150 156,170.6 					"/>
				</g>
				<g>
					<polygon class="st2" points="150,251.3 160.3,168.8 150,150 139.7,168.8 					"/>
				</g>
				<g>
					<polygon class="st2" points="78.4,221.6 144,170.6 150,150 129.4,156 					"/>
				</g>
				<g>
					<polygon class="st2" points="48.7,150 131.2,160.3 150,150 131.2,139.7 					"/>
				</g>
				<g>
					<polygon class="st2" points="78.4,78.4 129.4,144 150,150 144,129.4 					"/>
				</g>
				<g>
					<polygon class="st2" points="150,48.7 139.7,131.2 150,150 160.3,131.2 					"/>
				</g>
			</g>
		</g>
		<g id="Layer_2_copy_4_00000096777425764992942450000000075489937484402820_" class="st1">
			<g>
				<g>
					<g>
						<g>
							<polygon class="st3" points="300,88.2 173.1,140.8 221.6,78.4 							"/>
							<path class="st3" d="M150,150"/>
						</g>
					</g>
					<g>
						<g>
							<polygon class="st3" points="211.8,0 159.2,126.9 221.6,78.4 							"/>
							<path class="st3" d="M150,150"/>
						</g>
					</g>
				</g>
				<g>
					<g>
						<g>
							<polygon class="st3"
									 points="299.8,212.4 172.9,159.8 251.3,150 							"/>
							<path class="st3" d="M150,150"/>
						</g>
					</g>
					<g>
						<g>
							<polygon class="st3"
									 points="299.8,87.6 172.9,140.2 251.3,150 							"/>
							<path class="st3" d="M150,150"/>
						</g>
					</g>
				</g>
				<g>
					<g>
						<g>
							<polygon class="st3"
									 points="211.8,300 159.2,173.1 221.6,221.6 							"/>
							<path class="st3" d="M150,150"/>
						</g>
					</g>
					<g>
						<g>
							<polygon class="st3"
									 points="300,211.8 173.1,159.2 221.6,221.6 							"/>
							<path class="st3" d="M150,150"/>
						</g>
					</g>
				</g>
				<g>
					<g>
						<g>
							<polygon class="st3"
									 points="87.6,299.8 140.2,172.9 150,251.3 							"/>
							<path class="st3" d="M150,150"/>
						</g>
					</g>
					<g>
						<g>
							<polygon class="st3"
									 points="212.4,299.8 159.8,172.9 150,251.3 							"/>
							<path class="st3" d="M150,150"/>
						</g>
					</g>
				</g>
				<g>
					<g>
						<g>
							<polygon class="st3" points="0,211.8 126.9,159.2 78.4,221.6 							"/>
							<path class="st3" d="M150,150"/>
						</g>
					</g>
					<g>
						<g>
							<polygon class="st3" points="88.2,300 140.8,173.1 78.4,221.6 							"/>
							<path class="st3" d="M150,150"/>
						</g>
					</g>
				</g>
				<g>
					<g>
						<g>
							<polygon class="st3" points="0.2,87.6 127.1,140.2 48.7,150 							"/>
							<path class="st3" d="M150,150"/>
						</g>
					</g>
					<g>
						<g>
							<polygon class="st3" points="0.2,212.4 127.1,159.8 48.7,150 							"/>
							<path class="st3" d="M150,150"/>
						</g>
					</g>
				</g>
				<g>
					<g>
						<g>
							<polygon class="st3" points="88.2,0 140.8,126.9 78.4,78.4 							"/>
							<path class="st3" d="M150,150"/>
						</g>
					</g>
					<g>
						<g>
							<polygon class="st3" points="0,88.2 126.9,140.8 78.4,78.4 							"/>
							<path class="st3" d="M150,150"/>
						</g>
					</g>
				</g>
				<g>
					<g>
						<g>
							<polygon class="st3" points="212.4,0.2 159.8,127.1 150,48.7 							"/>
							<path class="st3" d="M150,150"/>
						</g>
					</g>
					<g>
						<g>
							<polygon class="st3" points="87.6,0.2 140.2,127.1 150,48.7 							"/>
							<path class="st3" d="M150,150"/>
						</g>
					</g>
				</g>
			</g>
		</g>
		<g id="flat_00000077304152447021065720000016667357817633804472_" class="st1">
			<g>
				<polygon class="st4" points="149.8,131 150,130.6 150.2,131 150.2,130.2 179.6,78.5 150.2,26.8 150.2,26 150,26.4 149.8,26 
					149.8,26.8 120.4,78.5 149.8,130.2 				"/>
				<polygon class="st4" points="163.3,136.4 163.7,136.3 163.6,136.7 164.2,136.1 221.5,120.4 237.3,63.1 237.9,62.5 237.4,62.6 
					237.5,62.2 236.9,62.7 179.6,78.5 163.9,135.8 				"/>
				<polygon class="st4" points="273.2,149.8 221.5,120.4 169.8,149.8 169,149.8 169.4,150 169,150.2 169.8,150.2 221.5,179.6 
					273.2,150.2 274,150.2 273.6,150 274,149.8 				"/>
				<polygon class="st4" points="163.6,163.3 163.7,163.7 163.3,163.6 163.9,164.2 179.6,221.5 236.9,237.3 237.5,237.9 
					237.4,237.4 237.9,237.5 237.3,236.9 221.5,179.6 164.2,163.9 				"/>
				<polygon class="st4" points="150.2,169 150,169.4 149.8,169 149.8,169.8 120.4,221.5 149.8,273.2 149.8,274 150,273.6 
					150.2,274 150.2,273.2 179.6,221.5 150.2,169.8 				"/>
				<polygon class="st4" points="136.7,163.6 136.3,163.7 136.4,163.3 135.8,163.9 78.5,179.6 62.7,236.9 62.2,237.5 62.6,237.4 
					62.5,237.9 63.1,237.3 120.4,221.5 136.1,164.2 				"/>
				<polygon class="st4" points="131,150.2 130.6,150 131,149.8 130.2,149.8 78.5,120.4 26.8,149.8 26,149.8 26.4,150 26,150.2 
					26.8,150.2 78.5,179.6 130.2,150.2 				"/>
				<polygon class="st4" points="136.4,136.7 136.3,136.3 136.7,136.4 136.1,135.8 120.4,78.5 63.1,62.7 62.5,62.2 62.6,62.6 
					62.2,62.5 62.7,63.1 78.5,120.4 135.8,136.1 				"/>
			</g>
		</g>
		<g class="st1">
			<g>
				<line class="st5" x1="277.1" y1="202.7" x2="22.9" y2="97.3"/>
			</g>
			<g>
				<line class="st5" x1="202.7" y1="277.1" x2="97.3" y2="22.9"/>
			</g>
			<g>
				<line class="st5" x1="97.3" y1="277.1" x2="202.7" y2="22.9"/>
			</g>
			<g>
				<line class="st5" x1="22.9" y1="202.7" x2="277.1" y2="97.3"/>
			</g>
		</g>
	</g>
		<rect x="51.7" y="174.2" class="st7" width="194.1" height="24.7"/>
		<rect x="177.7" y="117.1" class="st7" width="68.1" height="24.7"/>
		<rect x="51.7" y="117.1" class="st7" width="66" height="24.7"/>
		<g class="st1">
		<g>
			<g>
				<polygon class="st6" points="130.2,262.2 130.2,160.1 224.7,36.8 271,36.8 204.6,118.9 184.6,143.6 168.6,163.7 168.6,262.2 
									"/>
				<path class="st8" d="M265,39.7l-62.7,77.5l-20,24.7l-16.6,20.9v11.5v24.7v60.4H133v-60.4v-24.7v-13.1l93.1-121.4H265 M276.9,34
					H265h-38.9h-2.8l-1.7,2.2l-93.1,121.4l-1.2,1.5v1.9v13.1v24.7v60.4v5.7h5.7h32.8h5.7v-5.7v-60.4v-24.7v-9.5l15.4-19.3l20-24.7
					l62.7-77.5L276.9,34L276.9,34z"/>
			</g>
		</g>
			<g>
			<polygon class="st6" points="93.8,118.9 27,36.8 74.6,36.8 139.1,118.5 117.8,146.3 			"/>
				<path class="st8" d="M73.3,39.7l62.3,78.9l-17.9,23.3L96,117.1L33,39.7H73.3 M76,34h-2.7H33H21l7.5,9.2l63,77.5l0.1,0.1l0.1,0.1
				l21.7,24.7l4.6,5.2l4.2-5.5L140,122l2.7-3.5L140,115L77.7,36.2L76,34L76,34z"/>
		</g>
	</g>
</g>
	<g id="Layer_1_copy_3">
	<g id="Layer_1_00000154406297099223826640000004869530365903489205_" class="st0">
		<g id="Layer_2_copy_3_00000138551633785685682670000018329198680672551300_" class="st1">
			<g>
				<g>
					<polygon class="st2" points="221.6,78.4 156,129.4 150,150 170.6,144 					"/>
				</g>
				<g>
					<polygon class="st2" points="251.3,150 168.8,139.7 150,150 168.8,160.3 					"/>
				</g>
				<g>
					<polygon class="st2" points="221.6,221.6 170.6,156 150,150 156,170.6 					"/>
				</g>
				<g>
					<polygon class="st2" points="150,251.3 160.3,168.8 150,150 139.7,168.8 					"/>
				</g>
				<g>
					<polygon class="st2" points="78.4,221.6 144,170.6 150,150 129.4,156 					"/>
				</g>
				<g>
					<polygon class="st2" points="48.7,150 131.2,160.3 150,150 131.2,139.7 					"/>
				</g>
				<g>
					<polygon class="st2" points="78.4,78.4 129.4,144 150,150 144,129.4 					"/>
				</g>
				<g>
					<polygon class="st2" points="150,48.7 139.7,131.2 150,150 160.3,131.2 					"/>
				</g>
			</g>
		</g>
		<g id="Layer_2_copy_4_00000021803756523065141630000008356322628012742307_" class="st1">
			<g>
				<g>
					<g>
						<g>
							<polygon class="st3" points="300,88.2 173.1,140.8 221.6,78.4 							"/>
							<path class="st3" d="M150,150"/>
						</g>
					</g>
					<g>
						<g>
							<polygon class="st3" points="211.8,0 159.2,126.9 221.6,78.4 							"/>
							<path class="st3" d="M150,150"/>
						</g>
					</g>
				</g>
				<g>
					<g>
						<g>
							<polygon class="st3"
									 points="299.8,212.4 172.9,159.8 251.3,150 							"/>
							<path class="st3" d="M150,150"/>
						</g>
					</g>
					<g>
						<g>
							<polygon class="st3"
									 points="299.8,87.6 172.9,140.2 251.3,150 							"/>
							<path class="st3" d="M150,150"/>
						</g>
					</g>
				</g>
				<g>
					<g>
						<g>
							<polygon class="st3"
									 points="211.8,300 159.2,173.1 221.6,221.6 							"/>
							<path class="st3" d="M150,150"/>
						</g>
					</g>
					<g>
						<g>
							<polygon class="st3"
									 points="300,211.8 173.1,159.2 221.6,221.6 							"/>
							<path class="st3" d="M150,150"/>
						</g>
					</g>
				</g>
				<g>
					<g>
						<g>
							<polygon class="st3"
									 points="87.6,299.8 140.2,172.9 150,251.3 							"/>
							<path class="st3" d="M150,150"/>
						</g>
					</g>
					<g>
						<g>
							<polygon class="st3"
									 points="212.4,299.8 159.8,172.9 150,251.3 							"/>
							<path class="st3" d="M150,150"/>
						</g>
					</g>
				</g>
				<g>
					<g>
						<g>
							<polygon class="st3" points="0,211.8 126.9,159.2 78.4,221.6 							"/>
							<path class="st3" d="M150,150"/>
						</g>
					</g>
					<g>
						<g>
							<polygon class="st3" points="88.2,300 140.8,173.1 78.4,221.6 							"/>
							<path class="st3" d="M150,150"/>
						</g>
					</g>
				</g>
				<g>
					<g>
						<g>
							<polygon class="st3" points="0.2,87.6 127.1,140.2 48.7,150 							"/>
							<path class="st3" d="M150,150"/>
						</g>
					</g>
					<g>
						<g>
							<polygon class="st3" points="0.2,212.4 127.1,159.8 48.7,150 							"/>
							<path class="st3" d="M150,150"/>
						</g>
					</g>
				</g>
				<g>
					<g>
						<g>
							<polygon class="st3" points="88.2,0 140.8,126.9 78.4,78.4 							"/>
							<path class="st3" d="M150,150"/>
						</g>
					</g>
					<g>
						<g>
							<polygon class="st3" points="0,88.2 126.9,140.8 78.4,78.4 							"/>
							<path class="st3" d="M150,150"/>
						</g>
					</g>
				</g>
				<g>
					<g>
						<g>
							<polygon class="st3" points="212.4,0.2 159.8,127.1 150,48.7 							"/>
							<path class="st3" d="M150,150"/>
						</g>
					</g>
					<g>
						<g>
							<polygon class="st3" points="87.6,0.2 140.2,127.1 150,48.7 							"/>
							<path class="st3" d="M150,150"/>
						</g>
					</g>
				</g>
			</g>
		</g>
		<g id="flat_00000132060170914427228690000012257151514670608056_" class="st1">
			<g>
				<polygon class="st4" points="149.8,131 150,130.6 150.2,131 150.2,130.2 179.6,78.5 150.2,26.8 150.2,26 150,26.4 149.8,26 
					149.8,26.8 120.4,78.5 149.8,130.2 				"/>
				<polygon class="st4" points="163.3,136.4 163.7,136.3 163.6,136.7 164.2,136.1 221.5,120.4 237.3,63.1 237.9,62.5 237.4,62.6 
					237.5,62.2 236.9,62.7 179.6,78.5 163.9,135.8 				"/>
				<polygon class="st4" points="273.2,149.8 221.5,120.4 169.8,149.8 169,149.8 169.4,150 169,150.2 169.8,150.2 221.5,179.6 
					273.2,150.2 274,150.2 273.6,150 274,149.8 				"/>
				<polygon class="st4" points="163.6,163.3 163.7,163.7 163.3,163.6 163.9,164.2 179.6,221.5 236.9,237.3 237.5,237.9 
					237.4,237.4 237.9,237.5 237.3,236.9 221.5,179.6 164.2,163.9 				"/>
				<polygon class="st4" points="150.2,169 150,169.4 149.8,169 149.8,169.8 120.4,221.5 149.8,273.2 149.8,274 150,273.6 
					150.2,274 150.2,273.2 179.6,221.5 150.2,169.8 				"/>
				<polygon class="st4" points="136.7,163.6 136.3,163.7 136.4,163.3 135.8,163.9 78.5,179.6 62.7,236.9 62.2,237.5 62.6,237.4 
					62.5,237.9 63.1,237.3 120.4,221.5 136.1,164.2 				"/>
				<polygon class="st4" points="131,150.2 130.6,150 131,149.8 130.2,149.8 78.5,120.4 26.8,149.8 26,149.8 26.4,150 26,150.2 
					26.8,150.2 78.5,179.6 130.2,150.2 				"/>
				<polygon class="st4" points="136.4,136.7 136.3,136.3 136.7,136.4 136.1,135.8 120.4,78.5 63.1,62.7 62.5,62.2 62.6,62.6 
					62.2,62.5 62.7,63.1 78.5,120.4 135.8,136.1 				"/>
			</g>
		</g>
		<g class="st1">
			<g>
				<line class="st5" x1="277.1" y1="202.7" x2="22.9" y2="97.3"/>
			</g>
			<g>
				<line class="st5" x1="202.7" y1="277.1" x2="97.3" y2="22.9"/>
			</g>
			<g>
				<line class="st5" x1="97.3" y1="277.1" x2="202.7" y2="22.9"/>
			</g>
			<g>
				<line class="st5" x1="22.9" y1="202.7" x2="277.1" y2="97.3"/>
			</g>
		</g>
	</g>
		<rect x="51.7" y="174.2" class="st6" width="194.1" height="24.7"/>
		<rect x="174.4" y="117.1" class="st6" width="71.4" height="24.7"/>
		<rect x="51.7" y="117.1" class="st6" width="66" height="24.7"/>
		<g>
		<polygon class="st6" points="130.2,262.2 130.2,160.3 93.8,118.9 27,36.8 74.6,36.8 150.8,133.2 224.7,36.8 271,36.8 204.6,118.9 
			184.6,143.6 168.6,163.7 168.6,262.2 		"/>
			<path class="st8" d="M265,39.7l-62.7,77.5l-20,24.7l-16.6,20.9v11.5v24.7v60.4H133v-60.4v-24.7v-13.1l0.7-1l-37.8-43L33,39.7h40.3
			l77.5,98.2l75.3-98.2H265 M276.9,34H265h-38.9h-2.8l-1.7,2.2l-70.9,92.4l-73-92.5L76,34h-2.7H33H21l7.5,9.2l63,77.5l0.1,0.1
			l0.1,0.1l35.6,40.5v12.8v24.7v60.4v5.7h5.7h32.8h5.7v-5.7v-60.4v-24.7v-9.5l15.4-19.3l20-24.7l62.7-77.5L276.9,34L276.9,34z"/>
	</g>
</g>
	<g id="Layer_1_copy_2" class="st0">
	<rect x="51.7" y="174.2" class="st7" width="194.1" height="24.7"/>
		<g id="Layer_1_00000009590663184401591700000012973151950299234491_">
		<g id="Layer_2_copy_3_00000183229439981746218690000016982097685570290598_" class="st1">
			<g>
				<g>
					<polygon class="st2" points="221.6,78.4 156,129.4 150,150 170.6,144 					"/>
				</g>
				<g>
					<polygon class="st2" points="251.3,150 168.8,139.7 150,150 168.8,160.3 					"/>
				</g>
				<g>
					<polygon class="st2" points="221.6,221.6 170.6,156 150,150 156,170.6 					"/>
				</g>
				<g>
					<polygon class="st2" points="150,251.3 160.3,168.8 150,150 139.7,168.8 					"/>
				</g>
				<g>
					<polygon class="st2" points="78.4,221.6 144,170.6 150,150 129.4,156 					"/>
				</g>
				<g>
					<polygon class="st2" points="48.7,150 131.2,160.3 150,150 131.2,139.7 					"/>
				</g>
				<g>
					<polygon class="st2" points="78.4,78.4 129.4,144 150,150 144,129.4 					"/>
				</g>
				<g>
					<polygon class="st2" points="150,48.7 139.7,131.2 150,150 160.3,131.2 					"/>
				</g>
			</g>
		</g>
			<g id="Layer_2_copy_4_00000097471068336767628530000003884765167811277190_" class="st1">
			<g>
				<g>
					<g>
						<g>
							<polygon class="st3" points="300,88.2 173.1,140.8 221.6,78.4 							"/>
							<path class="st3" d="M150,150"/>
						</g>
					</g>
					<g>
						<g>
							<polygon class="st3" points="211.8,0 159.2,126.9 221.6,78.4 							"/>
							<path class="st3" d="M150,150"/>
						</g>
					</g>
				</g>
				<g>
					<g>
						<g>
							<polygon class="st3"
									 points="299.8,212.4 172.9,159.8 251.3,150 							"/>
							<path class="st3" d="M150,150"/>
						</g>
					</g>
					<g>
						<g>
							<polygon class="st3"
									 points="299.8,87.6 172.9,140.2 251.3,150 							"/>
							<path class="st3" d="M150,150"/>
						</g>
					</g>
				</g>
				<g>
					<g>
						<g>
							<polygon class="st3"
									 points="211.8,300 159.2,173.1 221.6,221.6 							"/>
							<path class="st3" d="M150,150"/>
						</g>
					</g>
					<g>
						<g>
							<polygon class="st3"
									 points="300,211.8 173.1,159.2 221.6,221.6 							"/>
							<path class="st3" d="M150,150"/>
						</g>
					</g>
				</g>
				<g>
					<g>
						<g>
							<polygon class="st3"
									 points="87.6,299.8 140.2,172.9 150,251.3 							"/>
							<path class="st3" d="M150,150"/>
						</g>
					</g>
					<g>
						<g>
							<polygon class="st3"
									 points="212.4,299.8 159.8,172.9 150,251.3 							"/>
							<path class="st3" d="M150,150"/>
						</g>
					</g>
				</g>
				<g>
					<g>
						<g>
							<polygon class="st3" points="0,211.8 126.9,159.2 78.4,221.6 							"/>
							<path class="st3" d="M150,150"/>
						</g>
					</g>
					<g>
						<g>
							<polygon class="st3" points="88.2,300 140.8,173.1 78.4,221.6 							"/>
							<path class="st3" d="M150,150"/>
						</g>
					</g>
				</g>
				<g>
					<g>
						<g>
							<polygon class="st3" points="0.2,87.6 127.1,140.2 48.7,150 							"/>
							<path class="st3" d="M150,150"/>
						</g>
					</g>
					<g>
						<g>
							<polygon class="st3" points="0.2,212.4 127.1,159.8 48.7,150 							"/>
							<path class="st3" d="M150,150"/>
						</g>
					</g>
				</g>
				<g>
					<g>
						<g>
							<polygon class="st3" points="88.2,0 140.8,126.9 78.4,78.4 							"/>
							<path class="st3" d="M150,150"/>
						</g>
					</g>
					<g>
						<g>
							<polygon class="st3" points="0,88.2 126.9,140.8 78.4,78.4 							"/>
							<path class="st3" d="M150,150"/>
						</g>
					</g>
				</g>
				<g>
					<g>
						<g>
							<polygon class="st3" points="212.4,0.2 159.8,127.1 150,48.7 							"/>
							<path class="st3" d="M150,150"/>
						</g>
					</g>
					<g>
						<g>
							<polygon class="st3" points="87.6,0.2 140.2,127.1 150,48.7 							"/>
							<path class="st3" d="M150,150"/>
						</g>
					</g>
				</g>
			</g>
		</g>
			<g id="flat_00000145745880550994115990000012759084896766383531_" class="st1">
			<g>
				<polygon class="st4" points="149.8,131 150,130.6 150.2,131 150.2,130.2 179.6,78.5 150.2,26.8 150.2,26 150,26.4 149.8,26 
					149.8,26.8 120.4,78.5 149.8,130.2 				"/>
				<polygon class="st4" points="163.3,136.4 163.7,136.3 163.6,136.7 164.2,136.1 221.5,120.4 237.3,63.1 237.9,62.5 237.4,62.6 
					237.5,62.2 236.9,62.7 179.6,78.5 163.9,135.8 				"/>
				<polygon class="st4" points="273.2,149.8 221.5,120.4 169.8,149.8 169,149.8 169.4,150 169,150.2 169.8,150.2 221.5,179.6 
					273.2,150.2 274,150.2 273.6,150 274,149.8 				"/>
				<polygon class="st4" points="163.6,163.3 163.7,163.7 163.3,163.6 163.9,164.2 179.6,221.5 236.9,237.3 237.5,237.9 
					237.4,237.4 237.9,237.5 237.3,236.9 221.5,179.6 164.2,163.9 				"/>
				<polygon class="st4" points="150.2,169 150,169.4 149.8,169 149.8,169.8 120.4,221.5 149.8,273.2 149.8,274 150,273.6 
					150.2,274 150.2,273.2 179.6,221.5 150.2,169.8 				"/>
				<polygon class="st4" points="136.7,163.6 136.3,163.7 136.4,163.3 135.8,163.9 78.5,179.6 62.7,236.9 62.2,237.5 62.6,237.4 
					62.5,237.9 63.1,237.3 120.4,221.5 136.1,164.2 				"/>
				<polygon class="st4" points="131,150.2 130.6,150 131,149.8 130.2,149.8 78.5,120.4 26.8,149.8 26,149.8 26.4,150 26,150.2 
					26.8,150.2 78.5,179.6 130.2,150.2 				"/>
				<polygon class="st4" points="136.4,136.7 136.3,136.3 136.7,136.4 136.1,135.8 120.4,78.5 63.1,62.7 62.5,62.2 62.6,62.6 
					62.2,62.5 62.7,63.1 78.5,120.4 135.8,136.1 				"/>
			</g>
		</g>
			<g class="st1">
			<g>
				<line class="st5" x1="277.1" y1="202.7" x2="22.9" y2="97.3"/>
			</g>
				<g>
				<line class="st5" x1="202.7" y1="277.1" x2="97.3" y2="22.9"/>
			</g>
				<g>
				<line class="st5" x1="97.3" y1="277.1" x2="202.7" y2="22.9"/>
			</g>
				<g>
				<line class="st5" x1="22.9" y1="202.7" x2="277.1" y2="97.3"/>
			</g>
		</g>
	</g>
		<rect x="177.7" y="117.1" class="st7" width="68.1" height="24.7"/>
		<rect x="51.7" y="117.1" class="st7" width="66" height="24.7"/>
		<g class="st1">
		<polygon class="st6" points="93.8,118.9 27,36.8 74.6,36.8 139.1,118.5 117.8,146.3 		"/>
			<path class="st8" d="M73.3,39.7l62.3,78.9l-17.9,23.3L96,117.1L33,39.7H73.3 M76,34h-2.7H33H21l7.5,9.2l63,77.5l0.1,0.1l0.1,0.1
			l21.7,24.7l4.6,5.2l4.2-5.5L140,122l2.7-3.5L140,115L77.7,36.2L76,34L76,34z"/>
	</g>
		<g class="st1">
		<polygon class="st6" points="160.2,118.5 224.8,36.8 272.4,36.8 205.6,119 181.6,146.3 		"/>
			<path class="st8" d="M266.4,39.7l-63,77.5l-21.7,24.7l-17.9-23.3l62.3-78.9H266.4 M278.4,34h-11.9h-40.3h-2.7l-1.7,2.2L159.4,115
			l-2.7,3.5l2.7,3.5l17.9,23.3l4.2,5.5l4.6-5.2l21.7-24.7l0.1-0.1l0.1-0.1l63-77.5L278.4,34L278.4,34z"/>
	</g>
		<g class="st1">
		<polygon class="st6" points="130.2,262.2 130.2,140.7 149.4,120.7 168.6,140.7 168.6,262.2 		"/>
			<g>
			<path class="st8" d="M149.4,124.8l16.4,17v117.5H133V141.8L149.4,124.8 M149.4,116.7l-4.1,4.2l-16.4,17l-1.6,1.6v2.3v117.5v5.7
				h5.7h32.8h5.7v-5.7V141.8v-2.3l-1.6-1.6l-16.4-17L149.4,116.7L149.4,116.7z"/>
		</g>
	</g>
</g>
</svg>
