<?xml version="1.0" encoding="utf-8"?>
<!-- Generator: Adobe Illustrator 26.0.1, SVG Export Plug-In . SVG Version: 6.00 Build 0)  -->
<svg version="1.1" id="Layer_3" xmlns="http://www.w3.org/2000/svg" x="0px" y="0px"
     viewBox="0 0 300 300" style="enable-background:new 0 0 300 300;" xml:space="preserve">
<style type="text/css">
	.st0{fill:#2D2D33;}
</style>
    <g>
	<path class="st0" d="M240.8,85.2c-0.2,1.2-0.4,2.5-0.6,3.7c-0.5,2.6-1,5.2-1.6,7.9c24.5,10.3,43.8,25.9,43.8,48.7
		c0,4.6-1.6,16.4-18.6,26.4c-0.2,0.1-0.5,0.3-0.7,0.4c-0.3,0.2-0.6,0.4-0.9,0.5c-0.3,0.1-0.5,0.3-0.8,0.4c-0.3,0.2-0.6,0.3-1,0.5
		c-0.3,0.2-0.6,0.3-0.9,0.5c-0.3,0.2-0.7,0.3-1,0.5c-0.3,0.2-0.7,0.3-1,0.5c-0.3,0.1-0.5,0.2-0.8,0.4c0,0,0,0,0,0
		c-5.2,2.3-11.5,4.5-19,6.3c0,0-0.1,0-0.1,0c-1,0.2-2,0.5-3,0.7c-0.1,0-0.3,0.1-0.4,0.1c-1,0.2-2,0.4-3,0.6c-0.1,0-0.3,0.1-0.4,0.1
		c-0.4,0.1-0.7,0.2-1.1,0.2c0,0,0,0,0,0c-5.5,1.1-11.6,2-18.4,2.7c-7,0.6-9.2-7.9-5.5-14.8c0,0,0,0,0,0c0.7-1.2,1.4-2.4,2-3.6
		c0,0,0,0,0,0c1.2-2.2,2.4-4.3,3.4-6.2c0.2-0.4,0.5-0.9,0.7-1.3c0.1-0.1,0.2-0.3,0.2-0.4c0.2-0.4,0.5-0.9,0.7-1.3
		c0.7-1.3,1.4-2.6,2-3.9c0.2-0.3,0.3-0.7,0.5-1c0.6-1.2,1.2-2.4,1.8-3.5c2.2-4.6,4.3-9.3,6.2-14c0.6-1.5,1.2-3,1.8-4.5
		c0-0.1,0.1-0.2,0.1-0.4c0.6-1.6,1.2-3.1,1.7-4.7c0.1-0.2,0.2-0.5,0.2-0.7c1.1-3.2,2.2-6.3,3.2-9.5c0.1-0.2,0.1-0.4,0.2-0.7
		c0.5-1.6,0.9-3.1,1.4-4.7c0-0.2,0.1-0.3,0.1-0.5c0.4-1.5,0.8-3,1.2-4.5c0-0.1,0.1-0.2,0.1-0.3c0.4-1.5,0.8-3.1,1.1-4.6
		c0.1-0.2,0.1-0.5,0.2-0.7c0.4-1.5,0.7-3.1,1-4.6c0,0,0,0,0,0c0.8-4,1.6-7.9,2.1-11.7c0.1-0.4,0.1-0.7,0.2-1.1
		c0.1-0.5,0.2-1.1,0.2-1.6c0.1-0.4,0.1-0.8,0.1-1.1c0.1-0.5,0.1-1,0.2-1.5c0-0.4,0.1-0.7,0.1-1.1c0.1-0.6,0.1-1.2,0.2-1.8
		c0-0.3,0.1-0.6,0.1-0.8c0.1-0.8,0.1-1.6,0.2-2.4c0-0.3,0-0.7,0.1-1c0-0.5,0.1-1,0.1-1.5c0-0.4,0-0.7,0.1-1.1c0-0.5,0-1,0.1-1.5
		c0-0.3,0-0.7,0-1c0-0.6,0-1.2,0-1.8c0-0.3,0-0.6,0-0.9c0-0.7,0-1.3,0-1.9c-0.4-36.5-19.8-53.9-67-11.2
		c-17.7,16-20.6,16.6-22.7,16.6s-5-0.7-22.7-16.6C80.1,8,60.7,25.3,60.3,61.9c0,0.6,0,1.3,0,1.9c0,0.3,0,0.6,0,0.9
		c0,0.6,0,1.2,0,1.8c0,0.3,0,0.7,0,1c0,0.5,0,1,0.1,1.5c0,0.4,0,0.7,0.1,1.1c0,0.5,0.1,1,0.1,1.5c0,0.3,0,0.7,0.1,1
		c0.1,0.8,0.1,1.6,0.2,2.4c0,0.3,0.1,0.6,0.1,0.8c0.1,0.6,0.1,1.2,0.2,1.8c0,0.4,0.1,0.7,0.1,1.1c0.1,0.5,0.1,1,0.2,1.5
		c0,0.4,0.1,0.8,0.1,1.1c0.1,0.5,0.1,1.1,0.2,1.6c0.1,0.4,0.1,0.7,0.2,1.1c0.6,3.8,1.3,7.7,2.1,11.7c0,0,0,0,0,0
		c0.3,1.5,0.7,3.1,1,4.6c0.1,0.2,0.1,0.5,0.2,0.7c0.4,1.5,0.7,3.1,1.1,4.6c0,0.1,0.1,0.2,0.1,0.3c0.4,1.5,0.8,3,1.2,4.5
		c0,0.2,0.1,0.3,0.1,0.5c0.4,1.5,0.9,3.1,1.4,4.7c0.1,0.2,0.1,0.4,0.2,0.7c1,3.2,2,6.3,3.2,9.5c0.1,0.2,0.2,0.5,0.2,0.7
		c0.6,1.6,1.1,3.1,1.7,4.7c0,0.1,0.1,0.2,0.1,0.4c0.6,1.5,1.2,3,1.8,4.5c1.9,4.7,4,9.4,6.2,14c0.6,1.2,1.2,2.4,1.8,3.5
		c0.2,0.3,0.3,0.7,0.5,1c0.7,1.3,1.3,2.6,2,3.9c0.2,0.4,0.5,0.8,0.7,1.3c0.1,0.1,0.2,0.3,0.2,0.4c0.2,0.4,0.5,0.8,0.7,1.3
		c1,1.9,2.2,4,3.4,6.2c0,0,0,0,0,0c0.6,1.2,1.3,2.4,2,3.6c0,0,0,0,0,0c3.7,6.9,1.5,15.4-5.5,14.8c-6.7-0.7-12.8-1.6-18.4-2.7
		c0,0,0,0,0,0c-0.4-0.1-0.8-0.2-1.1-0.2c-0.1,0-0.3-0.1-0.4-0.1c-1-0.2-2-0.4-3-0.6c-0.1,0-0.3-0.1-0.4-0.1c-1-0.2-2-0.5-3-0.7
		c0,0-0.1,0-0.1,0c-7.5-1.8-13.8-4-19-6.3c0,0,0,0,0,0c-0.3-0.1-0.5-0.2-0.8-0.4c-0.3-0.2-0.7-0.3-1-0.5c-0.3-0.2-0.7-0.3-1-0.5
		c-0.3-0.2-0.6-0.3-0.9-0.5c-0.3-0.2-0.7-0.3-1-0.5c-0.3-0.1-0.5-0.3-0.8-0.4c-0.3-0.2-0.6-0.3-0.9-0.5c-0.2-0.1-0.5-0.3-0.7-0.4
		c-17.1-10-18.6-21.8-18.6-26.4c0-22.8,19.3-38.4,43.8-48.7c-0.6-2.7-1.1-5.3-1.6-7.9c-0.2-1.3-0.4-2.5-0.6-3.7
		C23.6,98.2,0.4,119.1,0.4,145c0,18.7,8.4,33.7,20.9,45.8c0,0,0,0,0,0c10.4,10,23.6,18,37.4,24.4c0,0,0,0,0,0
		c4.3,2,8.6,3.9,12.9,5.6l0,0c22.3,8.9,14.3,17.3,5.5,22.8c-8,4-39,0.1-31.9-32c-5.8-3.2-11.3-6.8-16.5-10.6
		C6.9,251.9,42,277.7,71.6,274c49.8-6.2,51-26.6,78.4-25.3c27.4-1.3,28.6,19.1,78.4,25.3c29.6,3.7,64.8-22.1,42.8-73.1
		c-5.2,3.9-10.7,7.4-16.5,10.6c7.1,32.1-23.9,36-31.9,32c-8.8-5.5-16.8-13.9,5.5-22.8l0,0c4.3-1.7,8.7-3.6,12.9-5.6c0,0,0,0,0,0
		c13.8-6.4,27-14.4,37.4-24.4c0,0,0,0,0,0c12.6-12.1,20.9-27.1,20.9-45.8C299.6,119.1,276.4,98.2,240.8,85.2z M194.9,124.2
		c-0.6,0.9-1.2,1.7-1.8,2.6c-0.2,0.2-0.3,0.5-0.5,0.7c-0.1,0.1-0.2,0.2-0.3,0.4c-0.1,0.2-0.2,0.3-0.4,0.5c-0.1,0.2-0.3,0.4-0.4,0.5
		c-0.1,0.1-0.2,0.3-0.3,0.4c-0.2,0.2-0.4,0.5-0.5,0.7c-0.1,0.1-0.1,0.2-0.2,0.3c-0.2,0.3-0.4,0.6-0.7,0.9c-0.1,0.1-0.1,0.1-0.2,0.2
		c-0.3,0.3-0.5,0.7-0.8,1.1c0,0-0.1,0.1-0.1,0.1c-0.3,0.4-0.6,0.8-0.9,1.2c0,0,0,0,0,0c-3,3.9-6.8,8.7-11,13.4c0,0,0,0,0,0
		c-8.9,10-19.4,19.6-26.8,19.6s-17.9-9.6-26.8-19.6c0,0,0,0,0,0c-4.2-4.7-8-9.5-11-13.4c0,0,0,0,0,0c-0.3-0.4-0.6-0.8-0.9-1.2
		c0,0-0.1-0.1-0.1-0.1c-0.3-0.4-0.5-0.7-0.8-1.1c-0.1-0.1-0.1-0.1-0.2-0.2c-0.2-0.3-0.5-0.6-0.7-0.9c-0.1-0.1-0.1-0.2-0.2-0.3
		c-0.2-0.3-0.4-0.5-0.5-0.7c-0.1-0.1-0.2-0.3-0.3-0.4c-0.1-0.2-0.3-0.4-0.4-0.5c-0.1-0.2-0.2-0.3-0.4-0.5c-0.1-0.1-0.2-0.2-0.3-0.4
		c-0.2-0.3-0.4-0.5-0.5-0.7c-0.6-0.9-1.2-1.7-1.8-2.6c0,0,0,0,0,0c-12.6-18-26.2-38.7-28.6-60.4c0,0,0,0,0,0
		c-0.7-6.5-0.5-13,1.1-19.6c6.6-15.3,32.6,3.9,48.9,18.8c4.1,4,3.9,8.5-3.2,8.9l0,0c-14.3,1.2-27.9,3.3-40.5,6.3
		c1.1,3.4,2.5,6.8,4,10.1c13.2-3.5,26.5-5.8,38.3-7.2c3.8,0.3,5.4,3.9,1.5,7.3l0.3-0.1c-7.7,6.4-16.8,14.5-26.5,23.9
		c2.3,3.4,4.5,6.7,6.7,9.8c10.1-10.5,21.5-21.5,34.5-32.5c2.7-2.3,5.2-3.5,8.2-3.5s5.5,1.3,8.2,3.5c13,11,24.5,22,34.5,32.5
		c2.2-3.1,4.5-6.4,6.7-9.8c-9.7-9.4-18.8-17.6-26.5-23.9l0.3,0.1c-3.9-3.4-2.3-7,1.5-7.3c11.8,1.4,25.1,3.7,38.3,7.2
		c1.5-3.3,2.9-6.7,4-10.1c-12.6-3-26.2-5.1-40.5-6.3l0,0c-7.2-0.4-7.4-4.8-3.2-8.9c16.3-14.9,42.3-34.1,48.9-18.8
		c1.6,6.6,1.8,13.1,1.1,19.6c0,0,0,0,0,0C221,85.5,207.5,106.2,194.9,124.2C194.9,124.2,194.9,124.2,194.9,124.2z"/>
        <path class="st0" d="M219.4,152.2c3.6,4.4,6.9,8.6,9.9,12.5c3.7,4.8,7,9.4,9.8,13.7c5.6-1.5,11-3.2,15.8-5.3
		c-4-5.5-8.5-11.2-13.7-17c-5.2-5.9-10.5-11.7-15.8-17.4C223.6,143.3,221.6,147.8,219.4,152.2z"/>
        <path class="st0" d="M60.9,178.4c2.8-4.3,6.1-8.8,9.8-13.7c3-3.9,6.3-8.1,9.9-12.5c-2.1-4.4-4.2-8.9-6.1-13.6
		c-5.3,5.7-10.6,11.5-15.8,17.4c-5.2,5.9-9.7,11.6-13.7,17C49.9,175.2,55.2,176.9,60.9,178.4z"/>
</g>
</svg>
