<?xml version="1.0" encoding="utf-8"?>
<!-- Generator: Adobe Illustrator 28.1.0, SVG Export Plug-In . SVG Version: 6.00 Build 0)  -->
<svg version="1.1" id="Layer_1" xmlns="http://www.w3.org/2000/svg" x="0px"
	 y="0px"
	 viewBox="0 0 32 32" style="enable-background:new 0 0 32 32;" xml:space="preserve">
<g>
	<path d="M31,15.3l0-7.4c0-2.1-0.8-4.1-2.3-5.6S25.2,0,23.1,0H1v23.2h22.1C27.4,23.2,31,19.7,31,15.3z M5.9,4.9h17.2
		c0.8,0,1.6,0.3,2.1,0.9c0.6,0.6,0.9,1.3,0.9,2.1l0,7.4c0,1.7-1.4,3-3,3H5.9V4.9z"/>
	<polygon points="1.3,26.4 1.5,27.8 16,32 16,32 16,32 30.5,27.8 30.7,26.4 	"/>
</g>
</svg>
