<?xml version="1.0" encoding="utf-8"?>
<!-- Generator: Adobe Illustrator 25.4.8, SVG Export Plug-In . SVG Version: 6.00 Build 0)  -->
<svg version="1.1" xmlns="http://www.w3.org/2000/svg" x="0px" y="0px"
	 viewBox="0 0 919.9 728.7" style="enable-background:new 0 0 919.9 728.7;" xml:space="preserve">
<style type="text/css">
	.st0{fill:#AFD688;stroke:#000000;stroke-width:2.8346;stroke-miterlimit:10;}
	.st1{fill:#E69B2B;fill-opacity:0.5;}
	.st2{opacity:0.5;fill:#6B6B6B;}
	.st3{opacity:0.1;fill:#6B6B6B;}
	.st4{display:none;}
	.st5{display:inline;}
	.st6{fill:#2F9DA5;fill-opacity:0.5;}
	.st7{fill:#FFFFFF;}
	.st8{fill:#FFFFFF;stroke:#000000;stroke-width:0.8504;stroke-miterlimit:10;}
	.st9{fill:#E69B2B;stroke:#000000;stroke-width:0.8504;stroke-miterlimit:10;}
	.st10{fill:#FFFFFF;stroke:#000000;stroke-width:0.5669;stroke-miterlimit:10;}
	.st11{font-family:'ArialMT';}
	.st12{font-size:34.0158px;}
	.st13{fill:#E2E2E2;}
	.st14{fill:#2F9DA5;stroke:#000000;stroke-width:0.8504;stroke-miterlimit:10;}
	.st15{font-size:28.3465px;}
	.st16{fill:none;stroke:#000000;stroke-miterlimit:10;}
	.st17{font-size:25.5118px;}
	.st18{display:inline;fill:none;stroke:#000000;stroke-miterlimit:10;}
</style>
	<g id="Layer_10">
	<path class="st0" d="M320.5,728.7c-9.1-73.4,26.8-62.4,251.6-67.5c61-1.4,119,19.5,168.7,39.7c100.6,40.7,69.3-206.3,184.9-213.8
		c74-4.8,289.2,23.1,188.8,219.5S-22,958.9-22,958.9"/>
</g>
	<g id="Layer_7">
	<polygon class="st1" points="728.6,64.4 270.2,360.4 801.7,246.7 	"/>
		<polyline class="st2" points="593.1,257.3 593.1,291.1 801.7,246.7 781.8,197.1 	"/>
		<polyline class="st3" points="270.2,360.4 593.1,257.3 593.1,291.1 	"/>
</g>
	<g id="Layer_2">
	<polygon class="st1" points="733.3,687.8 298.5,523 764.2,494.5 	"/>
</g>
	<g id="Layer_6" class="st4">
	<g class="st5">
		<path class="st6" d="M361.6,500.9L361.6,500.9L361.6,500.9C361.6,500.9,361.6,500.9,361.6,500.9z"/>
		<path class="st6" d="M712.2,74.9L271.2,359.7c10.2-4.3,21.3-6.7,33.1-6.7c47,0,85,38.1,85,85c0,16.9-4.9,32.6-13.4,45.8
			L712.2,74.9z"/>
	</g>
		<g class="st5">
		<path class="st6" d="M363.3,377c16,15.5,25.9,37.1,25.9,61.1c0,47-38.1,85-85,85c-1.9,0-3.8-0.1-5.7-0.2l0,0l421,159.6L363.3,377z
			"/>
			<path class="st6" d="M354,369.1L354,369.1c0,0.1,0.1,0.1,0.2,0.1L354,369.1z"/>
	</g>
</g>
	<g id="Layer_8">
	<g>
		<g>
			<path class="st7"
				  d="M304.2,353.1c-47,0-85,38.1-85,85c0,47,38.1,85,85,85s85-38.1,85-85C389.3,391.1,351.2,353.1,304.2,353.1z"
			/>
		</g>
		<g>
			<g>
				<g>
					<g>
						<rect x="302.4" y="353.6" class="st7" width="3.7" height="9.8"/>
						<path d="M305.7,354v9h-2.9v-9H305.7 M306.5,353.2h-0.9h-2.9h-0.9v0.9v9v0.9h0.9h2.9h0.9V363v-9V353.2L306.5,353.2z"/>
					</g>
					<path class="st8" d="M305.4,354.3v8.5H303v-8.5H305.4 M305.9,353.8h-0.5H303h-0.5v0.5v8.5v0.5h0.5h2.4h0.5v-0.5v-8.5V353.8
						L305.9,353.8z"/>
				</g>
				<path class="st8" d="M304.2,438.1"/>
			</g>
			<g>
				<g>
					<g>
						<rect x="371.3" y="473" transform="matrix(0.5 -0.866 0.866 0.5 -227.3068 562.0744)" class="st7"
							  width="3.7" height="9.8"/>
						<path d="M370,474.4l7.8,4.5l-1.4,2.5l-7.8-4.5L370,474.4 M369.7,473.2l-0.4,0.7l-1.4,2.5l-0.4,0.7l0.7,0.4l7.8,4.5l0.7,0.4
							l0.4-0.7l1.4-2.5l0.4-0.7l-0.7-0.4l-7.8-4.5L369.7,473.2L369.7,473.2z"/>
					</g>
					<path class="st8" d="M376.2,481.1l-7.3-4.2l1.2-2.1l7.3,4.2L376.2,481.1 M376.4,481.7l0.2-0.4l1.2-2.1l0.2-0.4l-0.4-0.2
						l-7.3-4.2l-0.4-0.2l-0.2,0.4l-1.2,2.1l-0.2,0.4l0.4,0.2l7.3,4.2L376.4,481.7L376.4,481.7z"/>
				</g>
				<path class="st8" d="M304.2,438.1"/>
			</g>
			<g>
				<g>
					<g>
						
							<rect x="230.4" y="476" transform="matrix(0.866 -0.5001 0.5001 0.866 -207.4453 181.7042)"
								  class="st7" width="9.8" height="3.7"/>
						<path d="M238.5,474.4l1.4,2.5l-7.8,4.5l-1.4-2.5L238.5,474.4 M238.8,473.2l-0.7,0.4l-7.8,4.5l-0.7,0.4l0.4,0.7l1.4,2.5
							l0.4,0.7l0.7-0.4l7.8-4.5l0.7-0.4l-0.4-0.7l-1.4-2.5L238.8,473.2L238.8,473.2z"/>
					</g>
					<path class="st8" d="M231,479l7.3-4.2l1.2,2.1l-7.3,4.2L231,479 M230.4,478.8l0.2,0.4l1.2,2.1l0.2,0.4l0.4-0.2l7.3-4.2l0.4-0.2
						l-0.2-0.4l-1.2-2.1l-0.2-0.4l-0.4,0.2l-7.3,4.2L230.4,478.8L230.4,478.8z"/>
				</g>
				<path class="st8" d="M304.2,438.1"/>
			</g>
			<g>
				<g>
					<g>
						<rect x="302.4" y="353.6" class="st7" width="3.7" height="9.8"/>
						<path d="M305.7,354v9h-2.9v-9H305.7 M306.5,353.2h-0.9h-2.9h-0.9v0.9v9v0.9h0.9h2.9h0.9V363v-9V353.2L306.5,353.2z"/>
					</g>
					<path class="st8" d="M305.4,354.3v8.5H303v-8.5H305.4 M305.9,353.8h-0.5H303h-0.5v0.5v8.5v0.5h0.5h2.4h0.5v-0.5v-8.5V353.8
						L305.9,353.8z"/>
				</g>
				<path class="st8" d="M304.2,438.1"/>
			</g>
		</g>
		<g>
			<path class="st9" d="M304.2,353.1c-47,0-85,38.1-85,85c0,47,38.1,85,85,85s85-38.1,85-85C389.3,391.1,351.2,353.1,304.2,353.1z
				 M304.2,515.9c-42.9,0-77.7-34.8-77.7-77.7s34.8-77.7,77.7-77.7c42.9,0,77.7,34.8,77.7,77.7C382,481.1,347.2,515.9,304.2,515.9z"
			/>
		</g>
		<g>
			<g>
				<g>
					<rect x="302.8" y="354" class="st7" width="2.9" height="9"/>
					<path d="M305.4,354.3v8.5H303v-8.5H305.4 M305.9,353.8h-0.5H303h-0.5v0.5v8.5v0.5h0.5h2.4h0.5v-0.5v-8.5V353.8L305.9,353.8z"/>
				</g>
				<path class="st10" d="M304.2,438.1"/>
			</g>
			<g>
				<g>
					<rect x="371.7" y="473.4" transform="matrix(0.5 -0.866 0.866 0.5 -227.3023 562.1066)" class="st7"
						  width="2.9" height="9"/>
					<path d="M376.2,481.1l-7.3-4.2l1.2-2.1l7.3,4.2L376.2,481.1 M376.4,481.7l0.2-0.4l1.2-2.1l0.2-0.4l-0.4-0.2l-7.3-4.2l-0.4-0.2
						l-0.2,0.4l-1.2,2.1l-0.2,0.4l0.4,0.2l7.3,4.2L376.4,481.7L376.4,481.7z"/>
				</g>
				<path class="st10" d="M304.2,438.1"/>
			</g>
			<g>
				<g>
					<rect x="230.8" y="476.5" transform="matrix(0.866 -0.5 0.5 0.866 -207.4274 181.6775)" class="st7"
						  width="9" height="2.9"/>
					<path d="M231,479l7.3-4.2l1.2,2.1l-7.3,4.2L231,479 M230.4,478.8l0.2,0.4l1.2,2.1l0.2,0.4l0.4-0.2l7.3-4.2l0.4-0.2l-0.2-0.4
						l-1.2-2.1l-0.2-0.4l-0.4,0.2l-7.3,4.2L230.4,478.8L230.4,478.8z"/>
				</g>
				<path class="st10" d="M304.2,438.1"/>
			</g>
			<g>
				<g>
					<rect x="302.8" y="354" class="st7" width="2.9" height="9"/>
					<path d="M305.4,354.3v8.5H303v-8.5H305.4 M305.9,353.8h-0.5H303h-0.5v0.5v8.5v0.5h0.5h2.4h0.5v-0.5v-8.5V353.8L305.9,353.8z"/>
				</g>
				<path class="st10" d="M304.2,438.1"/>
			</g>
		</g>
	</g>
		<text transform="matrix(1 0 0 1 256.7763 448.6955)" class="st11 st12">Unit A</text>
</g>
	<g id="Layer_3">
	<g>
		<rect x="594.5" y="258.7" class="st13" width="227.8" height="220.9"/>
		<path d="M820.9,260.1v218h-225v-218H820.9 M823.7,257.3H593.1V481h230.7V257.3L823.7,257.3z"/>
	</g>
</g>
	<g id="Layer_1">
	<g>
		<path class="st7" d="M778.3,51c-54.8,0-99.2,44.4-99.2,99.2c0,54.8,44.4,99.2,99.2,99.2s99.2-44.4,99.2-99.2
			C877.5,95.5,833.1,51,778.3,51z"/>
		<g>
			<g>
				<rect x="772.9" y="52" class="st7" width="3.6" height="10.8"/>
				<path d="M776.1,52.5v9.9h-2.8v-9.9H776.1 M776.9,51.6h-0.9h-2.8h-0.9v0.9v9.9v0.9h0.9h2.8h0.9v-0.9v-9.9V51.6L776.9,51.6z"/>
			</g>
			<g>
				<rect x="694.2" y="197.9" transform="matrix(0.866 -0.5 0.5 0.866 -6.1529 376.5356)" class="st7"
					  width="10.8" height="3.7"/>
				<path d="M703.2,196.1l1.4,2.4l-8.6,5l-1.4-2.4L703.2,196.1 M703.5,194.9l-0.7,0.4l-8.6,5l-0.7,0.4l0.4,0.7l1.4,2.4l0.4,0.7
					l0.7-0.4l8.6-4.9l0.7-0.4l-0.4-0.7l-1.4-2.4L703.5,194.9L703.5,194.9z"/>
			</g>
			<g>
				<rect x="690.7" y="191.8" transform="matrix(0.866 -0.5 0.5 0.866 -3.54 373.9921)" class="st7"
					  width="10.8" height="3.7"/>
				<path d="M699.6,189.9l1.4,2.4l-8.6,5l-1.4-2.4L699.6,189.9 M699.9,188.8l-0.7,0.4l-8.6,5l-0.7,0.4l0.4,0.7l1.4,2.4l0.4,0.7
					l0.7-0.4l8.6-4.9l0.7-0.4l-0.4-0.7l-1.4-2.4L699.9,188.8L699.9,188.8z"/>
			</g>
			<g>
				
					<rect x="858.6" y="188.2" transform="matrix(0.5002 -0.8659 0.8659 0.5002 262.4177 841.824)"
						  class="st7" width="3.7" height="10.8"/>
				<path d="M856.8,189.9l8.6,5l-1.4,2.4l-8.6-5L856.8,189.9 M856.5,188.8l-0.4,0.7l-1.4,2.4l-0.4,0.7l0.7,0.4l8.6,4.9l0.7,0.4
					l0.4-0.7l1.4-2.4l0.4-0.7l-0.7-0.4l-8.6-5L856.5,188.8L856.5,188.8z"/>
			</g>
			<g>
				<rect x="780" y="52" class="st7" width="3.6" height="10.8"/>
				<path d="M783.2,52.5v9.9h-2.8v-9.9H783.2 M784,51.6h-0.9h-2.8h-0.9v0.9v9.9v0.9h0.9h2.8h0.9v-0.9v-9.9V51.6L784,51.6z"/>
			</g>
			<g>
				
					<rect x="855" y="194.4" transform="matrix(0.5002 -0.8659 0.8659 0.5002 255.276 841.7832)"
						  class="st7" width="3.7" height="10.8"/>
				<path d="M853.3,196.1l8.6,5l-1.4,2.4l-8.6-5L853.3,196.1 M853,194.9l-0.4,0.7l-1.4,2.4l-0.4,0.7l0.7,0.4l8.6,4.9l0.7,0.4
					l0.4-0.7l1.4-2.4l0.4-0.7l-0.7-0.4l-8.6-5L853,194.9L853,194.9z"/>
			</g>
		</g>
		<path class="st14" d="M778.3,51c-54.8,0-99.2,44.4-99.2,99.2c0,54.8,44.4,99.2,99.2,99.2s99.2-44.4,99.2-99.2
			C877.5,95.5,833.1,51,778.3,51z M778.3,241c-50.1,0-90.7-40.6-90.7-90.7s40.6-90.7,90.7-90.7c50.1,0,90.7,40.6,90.7,90.7
			C869,200.4,828.4,241,778.3,241z"/>
		<g>
			<g>
				<rect x="773" y="52.2" class="st7" width="3.4" height="10.5"/>
				<path d="M776.1,52.5v9.9h-2.8v-9.9H776.1 M776.6,51.9h-0.6h-2.8h-0.6v0.6v9.9v0.6h0.6h2.8h0.6v-0.6v-9.9V51.9L776.6,51.9z"/>
			</g>
			<g>
				<rect x="694.4" y="198.1" transform="matrix(0.866 -0.5 0.5 0.866 -6.146 376.5628)" class="st7"
					  width="10.5" height="3.4"/>
				<path d="M703.2,196.1l1.4,2.4l-8.6,5l-1.4-2.4L703.2,196.1 M703.4,195.3l-0.5,0.3l-8.6,5l-0.5,0.3l0.3,0.5l1.4,2.4l0.3,0.5
					l0.5-0.3l8.6-5l0.5-0.3l-0.3-0.5l-1.4-2.4L703.4,195.3L703.4,195.3z"/>
			</g>
			<g>
				<rect x="690.8" y="191.9" transform="matrix(0.866 -0.5 0.5 0.866 -3.5398 373.9927)" class="st7"
					  width="10.5" height="3.4"/>
				<path d="M699.6,189.9l1.4,2.4l-8.6,5l-1.4-2.4L699.6,189.9 M699.8,189.1l-0.5,0.3l-8.6,5l-0.5,0.3l0.3,0.5l1.4,2.4l0.3,0.5
					l0.5-0.3l8.6-5l0.5-0.3l-0.3-0.5l-1.4-2.4L699.8,189.1L699.8,189.1z"/>
			</g>
			<g>
				
					<rect x="858.7" y="188.4" transform="matrix(0.5003 -0.8659 0.8659 0.5003 262.3271 841.7401)"
						  class="st7" width="3.4" height="10.5"/>
				<path d="M856.8,189.9l8.6,5l-1.4,2.4l-8.6-5L856.8,189.9 M856.6,189.1l-0.3,0.5l-1.4,2.4l-0.3,0.5l0.5,0.3l8.6,5l0.5,0.3
					l0.3-0.5l1.4-2.4l0.3-0.5l-0.5-0.3l-8.6-5L856.6,189.1L856.6,189.1z"/>
			</g>
			<g>
				<rect x="780.1" y="52.2" class="st7" width="3.4" height="10.5"/>
				<path d="M783.2,52.5v9.9h-2.8v-9.9H783.2 M783.7,51.9h-0.6h-2.8h-0.6v0.6v9.9v0.6h0.6h2.8h0.6v-0.6v-9.9V51.9L783.7,51.9z"/>
			</g>
			<g>
				
					<rect x="855.2" y="194.5" transform="matrix(0.5003 -0.8659 0.8659 0.5003 255.2293 841.739)"
						  class="st7" width="3.4" height="10.5"/>
				<path d="M853.3,196.1l8.6,5l-1.4,2.4l-8.6-5L853.3,196.1 M853.1,195.3l-0.3,0.5l-1.4,2.4l-0.3,0.5l0.5,0.3l8.6,5l0.5,0.3
					l0.3-0.5l1.4-2.4l0.3-0.5l-0.5-0.3l-8.6-5L853.1,195.3L853.1,195.3z"/>
			</g>
		</g>
	</g>
		<g>
		<path class="st7" d="M764.2,494.5c-54.8,0-99.2,44.4-99.2,99.2c0,54.8,44.4,99.2,99.2,99.2s99.2-44.4,99.2-99.2
			C863.5,538.9,819,494.5,764.2,494.5z"/>
			<g>
			<g>
				<rect x="758.8" y="495.5" class="st7" width="3.6" height="10.8"/>
				<path d="M762,495.9v9.9h-2.8v-9.9H762 M762.9,495.1H762h-2.8h-0.9v0.9v9.9v0.9h0.9h2.8h0.9v-0.9v-9.9V495.1L762.9,495.1z"/>
			</g>
				<g>
				
					<rect x="680.2" y="641.4" transform="matrix(0.866 -0.5 0.5 0.866 -229.7664 428.9289)" class="st7"
						  width="10.8" height="3.7"/>
					<path d="M689.1,639.6l1.4,2.4l-8.6,5l-1.4-2.4L689.1,639.6 M689.5,638.4l-0.7,0.4l-8.6,5l-0.7,0.4l0.4,0.7l1.4,2.4l0.4,0.7
					l0.7-0.4l8.6-5l0.7-0.4l-0.4-0.7l-1.4-2.4L689.5,638.4L689.5,638.4z"/>
			</g>
				<g>
				
					<rect x="676.6" y="635.3" transform="matrix(0.866 -0.5 0.5 0.866 -227.1843 426.4019)" class="st7"
						  width="10.8" height="3.7"/>
					<path d="M685.6,633.4l1.4,2.4l-8.6,5l-1.4-2.4L685.6,633.4 M685.9,632.2l-0.7,0.4l-8.6,5l-0.7,0.4l0.4,0.7l1.4,2.4l0.4,0.7
					l0.7-0.4l8.6-5l0.7-0.4l-0.4-0.7l-1.4-2.4L685.9,632.2L685.9,632.2z"/>
			</g>
				<g>
				
					<rect x="844.6" y="631.7" transform="matrix(0.5002 -0.8659 0.8659 0.5002 -128.6279 1051.3431)"
						  class="st7" width="3.7" height="10.8"/>
					<path d="M842.8,633.4l8.6,5l-1.4,2.4l-8.6-5L842.8,633.4 M842.5,632.2l-0.4,0.7l-1.4,2.4l-0.4,0.7l0.7,0.4l8.6,5l0.7,0.4
					l0.4-0.7l1.4-2.4l0.4-0.7l-0.7-0.4l-8.6-5L842.5,632.2L842.5,632.2z"/>
			</g>
				<g>
				<rect x="765.9" y="495.5" class="st7" width="3.6" height="10.8"/>
					<path d="M769.1,495.9v9.9h-2.8v-9.9H769.1 M770,495.1h-0.9h-2.8h-0.9v0.9v9.9v0.9h0.9h2.8h0.9v-0.9v-9.9V495.1L770,495.1z"/>
			</g>
				<g>
				
					<rect x="841" y="637.9" transform="matrix(0.5002 -0.8659 0.8659 0.5002 -135.7539 1051.2771)"
						  class="st7" width="3.7" height="10.8"/>
					<path d="M839.2,639.6l8.6,5l-1.4,2.4l-8.6-5L839.2,639.6 M838.9,638.4l-0.4,0.7l-1.4,2.4l-0.4,0.7l0.7,0.4l8.6,5l0.7,0.4
					l0.4-0.7l1.4-2.4l0.4-0.7l-0.7-0.4l-8.6-5L838.9,638.4L838.9,638.4z"/>
			</g>
		</g>
			<path class="st14" d="M764.2,494.5c-54.8,0-99.2,44.4-99.2,99.2c0,54.8,44.4,99.2,99.2,99.2s99.2-44.4,99.2-99.2
			C863.5,538.9,819,494.5,764.2,494.5z M764.2,684.4c-50.1,0-90.7-40.6-90.7-90.7s40.6-90.7,90.7-90.7c50.1,0,90.7,40.6,90.7,90.7
			C854.9,643.8,814.3,684.4,764.2,684.4z"/>
			<g>
			<g>
				<rect x="759" y="495.7" class="st7" width="3.4" height="10.5"/>
				<path d="M762,495.9v9.9h-2.8v-9.9H762 M762.6,495.4H762h-2.8h-0.6v0.6v9.9v0.6h0.6h2.8h0.6v-0.6v-9.9V495.4L762.6,495.4z"/>
			</g>
				<g>
				
					<rect x="680.3" y="641.6" transform="matrix(0.866 -0.5 0.5 0.866 -229.7746 428.9647)" class="st7"
						  width="10.5" height="3.4"/>
					<path d="M689.1,639.6l1.4,2.4l-8.6,5l-1.4-2.4L689.1,639.6 M689.4,638.8l-0.5,0.3l-8.6,5l-0.5,0.3l0.3,0.5l1.4,2.4l0.3,0.5
					l0.5-0.3l8.6-5l0.5-0.3l-0.3-0.5l-1.4-2.4L689.4,638.8L689.4,638.8z"/>
			</g>
				<g>
				
					<rect x="676.8" y="635.4" transform="matrix(0.866 -0.5 0.5 0.866 -227.1843 426.4027)" class="st7"
						  width="10.5" height="3.4"/>
					<path d="M685.6,633.4l1.4,2.4l-8.6,5l-1.4-2.4L685.6,633.4 M685.8,632.6l-0.5,0.3l-8.6,5l-0.5,0.3l0.3,0.5l1.4,2.4l0.3,0.5
					l0.5-0.3l8.6-5l0.5-0.3l-0.3-0.5l-1.4-2.4L685.8,632.6L685.8,632.6z"/>
			</g>
				<g>
				
					<rect x="844.7" y="631.9" transform="matrix(0.5003 -0.8659 0.8659 0.5003 -128.6858 1051.2065)"
						  class="st7" width="3.4" height="10.5"/>
					<path d="M842.8,633.4l8.6,5l-1.4,2.4l-8.6-5L842.8,633.4 M842.6,632.6l-0.3,0.5l-1.4,2.4l-0.3,0.5l0.5,0.3l8.6,5l0.5,0.3
					l0.3-0.5l1.4-2.4l0.3-0.5l-0.5-0.3l-8.6-5L842.6,632.6L842.6,632.6z"/>
			</g>
				<g>
				<rect x="766.1" y="495.7" class="st7" width="3.4" height="10.5"/>
					<path d="M769.1,495.9v9.9h-2.8v-9.9H769.1 M769.7,495.4h-0.6h-2.8h-0.6v0.6v9.9v0.6h0.6h2.8h0.6v-0.6v-9.9V495.4L769.7,495.4z"
					/>
			</g>
				<g>
				
					<rect x="841.1" y="638" transform="matrix(0.5003 -0.8659 0.8659 0.5003 -135.7836 1051.2054)"
						  class="st7" width="3.4" height="10.5"/>
					<path d="M839.2,639.6l8.6,5l-1.4,2.4l-8.6-5L839.2,639.6 M839,638.8l-0.3,0.5l-1.4,2.4l-0.3,0.5l0.5,0.3l8.6,5l0.5,0.3l0.3-0.5
					l1.4-2.4l0.3-0.5l-0.5-0.3l-8.6-5L839,638.8L839,638.8z"/>
			</g>
		</g>
	</g>
</g>
	<g id="Layer_5">
	<text transform="matrix(1 0 0 1 731.9616 160.8356)" class="st11 st12">Unit B</text>
		<text transform="matrix(1 0 0 1 716.9885 604.3252)" class="st11 st12">Unit C</text>
		<text transform="matrix(1 0 0 1 657.9889 342.6732)"><tspan x="0" y="0" class="st11 st15">Building</tspan>
			<tspan x="33.9" y="34" class="st11 st15">or </tspan>
			<tspan x="-28.3" y="68" class="st11 st15">Area Terrain</tspan></text>
		<text transform="matrix(1 0 0 1 358.851 704.2921)" class="st11 st15">Concealing Area Terrain</text>
</g>
	<g id="Layer_4">
	<text transform="matrix(1 0 0 1 75.7667 201.2803)"><tspan x="0" y="0" class="st11 st15">Orange Player </tspan>
		<tspan x="0" y="34" class="st11 st15">Chosen LOS points</tspan></text>
		<polyline class="st16" points="262.1,347.9 209.7,295.5 209.7,257.3 	"/>
		<polyline class="st16" points="286.1,533.5 254.4,565.2 143.2,565.2 113.9,535.9 113.9,257.3 	"/>
		<text transform="matrix(1 0 0 1 46.1458 100.0654)" class="st11 st17">Unit B is Concealed from Unit A</text>
		<polyline class="st16" points="697.4,249.5 536.6,88.7 427.6,88.7 	"/>
		<polyline class="st16" points="559.2,675.3 505.5,621.6 396.5,621.6 	"/>
		<text transform="matrix(1 0 0 1 26.617 630.2452)" class="st11 st17">Unit C is Concealed from Unit A</text>
</g>
	<g id="Layer_9" class="st4">
	<text transform="matrix(1 0 0 1 912.848 183.9891)" class="st5"><tspan x="0" y="0" class="st11 st15">Teal Player </tspan>
		<tspan x="0" y="34" class="st11 st15">Chosen LOS points</tspan></text>
		<polyline class="st18" points="723.7,704.5 723.7,745.4 742.6,764.3 848.3,764.3 937.3,675.3 937.3,242.3 	"/>
		<polyline class="st18" points="716.6,62.4 716.6,36.8 736.9,16.5 842.8,16.5 937.3,111 937.3,132.4 	"/>
</g>
</svg>
