<?xml version="1.0" encoding="utf-8"?>
<!-- Generator: Adobe Illustrator 27.5.0, SVG Export Plug-In . SVG Version: 6.00 Build 0)  -->
<svg version="1.1" id="Layer_1" xmlns="http://www.w3.org/2000/svg" x="0px"
	 y="0px"
	 viewBox="0 0 919.9 728.7" style="enable-background:new 0 0 919.9 728.7;" xml:space="preserve">
<style type="text/css">
	.st0{fill:#FFFFFF;}
	.st1{fill:#B4D6A7;stroke:#231F20;stroke-width:2.8346;stroke-miterlimit:10;}
	.st2{fill:#E69B2B;fill-opacity:0.5;}
	.st3{opacity:0.5;fill:#6B6B6B;enable-background:new    ;}
	.st4{opacity:0.1;fill:#6B6B6B;enable-background:new    ;}
	.st5{fill:#FFFFFF;stroke:#000000;stroke-width:0.8504;stroke-miterlimit:10;}
	.st6{fill:#E69B2B;stroke:#000000;stroke-width:0.8504;stroke-miterlimit:10;}
	.st7{font-family:'ArialMT';}
	.st8{font-size:34.0158px;}
	.st9{fill:#E2E2E2;}
	.st10{fill:#2F9DA5;stroke:#000000;stroke-width:0.8504;stroke-miterlimit:10;}
	.st11{font-size:28.3465px;}
	.st12{font-size:12px;}
	.st13{fill:none;stroke:#000000;stroke-miterlimit:10;}
	.st14{font-size:25.5118px;}
</style>
	<rect class="st0" width="919.9" height="728.7"/>
	<path id="Layer_10" class="st1" d="M320.5,728.7c-9.1-73.4,26.8-62.4,251.6-67.5c61-1.4,119,19.5,168.7,39.7
	c100.6,40.7,69.3-206.3,184.9-213.8c74-4.8,289.2,23.1,188.8,219.5S-22,958.9-22,958.9"/>
	<g id="Layer_7">
	<path class="st2" d="M728.6,64.4l-458.4,296l531.5-113.7L728.6,64.4z"/>
		<path class="st3" d="M593.1,257.3v33.8l208.6-44.4l-19.9-49.6"/>
		<path class="st4" d="M270.2,360.4l322.9-103.1v33.8"/>
</g>
	<path id="Layer_2_00000144319332824659592410000009459276317318117504_" class="st2" d="M733.3,687.8L298.5,523l465.7-28.5
	L733.3,687.8z"/>
	<g id="Layer_8">
	<path class="st0" d="M304.2,353.1c-47,0-85,38.1-85,85c0,47,38.1,85,85,85s85-38.1,85-85C389.3,391.1,351.2,353.1,304.2,353.1
		L304.2,353.1z"/>
		<path class="st0" d="M302.4,353.6h3.7v9.8h-3.7V353.6z"/>
		<path d="M305.7,354v9h-2.9v-9H305.7 M306.5,353.2h-4.7V364h4.7V353.2z"/>
		<path class="st5" d="M305.4,354.3v8.5H303v-8.5H305.4 M305.9,353.8h-3.4v9.5h3.4V353.8z"/>
		<path class="st0" d="M368,477l1.9-3.2l8.5,4.9l-1.9,3.2L368,477z"/>
		<path d="M370,474.4l7.8,4.5l-1.4,2.5l-7.8-4.5L370,474.4 M369.7,473.2l-0.4,0.7l-1.4,2.5l-0.4,0.7l0.7,0.4l7.8,4.5l0.7,0.4l0.4-0.7
		l1.4-2.5l0.4-0.7l-0.7-0.4l-7.8-4.5L369.7,473.2z"/>
		<path class="st5" d="M376.2,481.1l-7.3-4.2l1.2-2.1l7.3,4.2L376.2,481.1 M376.4,481.7l0.2-0.4l1.2-2.1l0.2-0.4l-0.4-0.2l-7.3-4.2
		l-0.4-0.2l-0.2,0.4l-1.2,2.1l-0.2,0.4l0.4,0.2l7.3,4.2L376.4,481.7z"/>
		<path class="st0" d="M230.1,478.7l8.5-4.9l1.9,3.2l-8.5,4.9L230.1,478.7z"/>
		<path d="M238.5,474.4l1.4,2.5l-7.8,4.5l-1.4-2.5L238.5,474.4 M238.8,473.2l-0.7,0.4l-7.8,4.5l-0.7,0.4l0.4,0.7l1.4,2.5l0.4,0.7
		l0.7-0.4l7.8-4.5l0.7-0.4l-0.4-0.7l-1.4-2.5L238.8,473.2z"/>
		<path class="st5" d="M231,479l7.3-4.2l1.2,2.1l-7.3,4.2L231,479 M230.4,478.8l0.2,0.4l1.2,2.1l0.2,0.4l0.4-0.2l7.3-4.2l0.4-0.2
		l-0.2-0.4l-1.2-2.1l-0.2-0.4l-0.4,0.2l-7.3,4.2L230.4,478.8z"/>
		<path class="st0" d="M302.4,353.6h3.7v9.8h-3.7V353.6z"/>
		<path d="M305.7,354v9h-2.9v-9H305.7 M306.5,353.2h-4.7V364h4.7V353.2z"/>
		<path class="st5" d="M305.4,354.3v8.5H303v-8.5H305.4 M305.9,353.8h-3.4v9.5h3.4V353.8z"/>
		<path class="st6" d="M304.2,353.1c-47,0-85,38.1-85,85c0,47,38.1,85,85,85s85-38.1,85-85C389.3,391.1,351.2,353.1,304.2,353.1
		L304.2,353.1z M304.2,515.9c-42.9,0-77.7-34.8-77.7-77.7s34.8-77.7,77.7-77.7s77.7,34.8,77.7,77.7
		C382,481.1,347.2,515.9,304.2,515.9z"/>
		<path class="st0" d="M302.8,354h2.9v9h-2.9V354z"/>
		<path d="M305.4,354.3v8.5H303v-8.5H305.4 M305.9,353.8h-3.4v9.5h3.4V353.8z"/>
		<path class="st0" d="M368.5,476.9l1.5-2.5l7.8,4.5l-1.5,2.5L368.5,476.9z"/>
		<path d="M376.2,481.1l-7.3-4.2l1.2-2.1l7.3,4.2L376.2,481.1 M376.4,481.7l0.2-0.4l1.2-2.1l0.2-0.4l-0.4-0.2l-7.3-4.2l-0.4-0.2
		l-0.2,0.4l-1.2,2.1l-0.2,0.4l0.4,0.2l7.3,4.2L376.4,481.7z"/>
		<path class="st0" d="M230.7,478.9l7.8-4.5l1.4,2.5l-7.8,4.5L230.7,478.9z"/>
		<path d="M231,479l7.3-4.2l1.2,2.1l-7.3,4.2L231,479 M230.4,478.8l0.2,0.4l1.2,2.1l0.2,0.4l0.4-0.2l7.3-4.2l0.4-0.2l-0.2-0.4
		l-1.2-2.1l-0.2-0.4l-0.4,0.2l-7.3,4.2L230.4,478.8z"/>
		<path class="st0" d="M302.8,354h2.9v9h-2.9V354z"/>
		<path d="M305.4,354.3v8.5H303v-8.5H305.4 M305.9,353.8h-3.4v9.5h3.4V353.8z"/>
		<text transform="matrix(1 0 0 1 256.776 448.695)" class="st7 st8">Unit A</text>
</g>
	<g id="Layer_3">
	<path class="st9" d="M594.5,258.7h227.8v220.9H594.5V258.7z"/>
		<path d="M820.9,260.1v218h-225v-218H820.9 M823.7,257.3H593.1V481h230.7L823.7,257.3L823.7,257.3L823.7,257.3z"/>
</g>
	<g id="Layer_1_00000124155571794959447040000002504995696936914846_">
	<path class="st0" d="M778.3,51c-54.8,0-99.2,44.4-99.2,99.2s44.4,99.2,99.2,99.2s99.2-44.4,99.2-99.2C877.5,95.5,833.1,51,778.3,51
		z"/>
		<path class="st0" d="M772.9,52h3.6v10.8h-3.6V52z"/>
		<path d="M776.1,52.5v9.9h-2.8v-9.9H776.1 M776.9,51.6h-4.6v11.7h4.6V51.6z"/>
		<path class="st0" d="M694,200.8l9.4-5.4l1.8,3.2l-9.4,5.4L694,200.8z"/>
		<path d="M703.2,196.1l1.4,2.4l-8.6,5l-1.4-2.4L703.2,196.1 M703.5,194.9l-0.7,0.4l-8.6,5l-0.7,0.4l0.4,0.7l1.4,2.4l0.4,0.7l0.7-0.4
		l8.6-4.9l0.7-0.4l-0.4-0.7l-1.4-2.4L703.5,194.9z"/>
		<path class="st0" d="M690.5,194.7l9.4-5.4l1.8,3.2l-9.4,5.4L690.5,194.7z"/>
		<path d="M699.6,189.9l1.4,2.4l-8.6,5l-1.4-2.4L699.6,189.9 M699.9,188.8l-0.7,0.4l-8.6,5l-0.7,0.4l0.4,0.7l1.4,2.4l0.4,0.7l0.7-0.4
		l8.6-4.9l0.7-0.4l-0.4-0.7l-1.4-2.4L699.9,188.8z"/>
		<path class="st0" d="M854.9,192.5l1.9-3.2l9.4,5.4l-1.9,3.2L854.9,192.5z"/>
		<path d="M856.8,189.9l8.6,5l-1.4,2.4l-8.6-5L856.8,189.9 M856.5,188.8l-0.4,0.7l-1.4,2.4l-0.4,0.7l0.7,0.4l8.6,4.9l0.7,0.4l0.4-0.7
		l1.4-2.4l0.4-0.7l-0.7-0.4l-8.6-5L856.5,188.8L856.5,188.8z"/>
		<path class="st0" d="M780,52h3.6v10.8H780V52z"/>
		<path d="M783.2,52.5v9.9h-2.8v-9.9H783.2 M784,51.6h-4.6v11.7h4.6V51.6z"/>
		<path class="st0" d="M851.3,198.7l1.9-3.2l9.4,5.4l-1.9,3.2L851.3,198.7z"/>
		<path d="M853.3,196.1l8.6,5l-1.4,2.4l-8.6-5L853.3,196.1 M853,194.9l-0.4,0.7l-1.4,2.4l-0.4,0.7l0.7,0.4l8.6,4.9l0.7,0.4l0.4-0.7
		l1.4-2.4l0.4-0.7l-0.7-0.4l-8.6-5L853,194.9L853,194.9z"/>
		<path class="st10" d="M778.3,51c-54.8,0-99.2,44.4-99.2,99.2s44.4,99.2,99.2,99.2s99.2-44.4,99.2-99.2
		C877.5,95.5,833.1,51,778.3,51z M778.3,241c-50.1,0-90.7-40.6-90.7-90.7s40.6-90.7,90.7-90.7s90.7,40.6,90.7,90.7
		S828.4,241,778.3,241z"/>
		<path class="st0" d="M773,52.2h3.4v10.5H773V52.2z"/>
		<path d="M776.1,52.5v9.9h-2.8v-9.9H776.1 M776.6,51.9h-4V63h4V51.9z"/>
		<path class="st0" d="M694.3,200.9l9.1-5.2l1.7,2.9l-9.1,5.2L694.3,200.9z"/>
		<path d="M703.2,196.1l1.4,2.4l-8.6,5l-1.4-2.4L703.2,196.1 M703.4,195.3l-0.5,0.3l-8.6,5l-0.5,0.3l0.3,0.5l1.4,2.4l0.3,0.5l0.5-0.3
		l8.6-5l0.5-0.3l-0.3-0.5l-1.4-2.4L703.4,195.3z"/>
		<path class="st0" d="M690.6,194.8l9.1-5.2l1.7,2.9l-9.1,5.2L690.6,194.8z"/>
		<path d="M699.6,189.9l1.4,2.4l-8.6,5l-1.4-2.4L699.6,189.9 M699.8,189.1l-0.5,0.3l-8.6,5l-0.5,0.3l0.3,0.5l1.4,2.4l0.3,0.5l0.5-0.3
		l8.6-5l0.5-0.3l-0.3-0.5l-1.4-2.4L699.8,189.1z"/>
		<path class="st0" d="M855,192.4l1.7-2.9l9.1,5.3l-1.7,2.9L855,192.4z"/>
		<path d="M856.8,189.9l8.6,5l-1.4,2.4l-8.6-5L856.8,189.9 M856.6,189.1l-0.3,0.5l-1.4,2.4l-0.3,0.5l0.5,0.3l8.6,5l0.5,0.3l0.3-0.5
		l1.4-2.4l0.3-0.5l-0.5-0.3l-8.6-5L856.6,189.1z"/>
		<path class="st0" d="M780.1,52.2h3.4v10.5h-3.4V52.2z"/>
		<path d="M783.2,52.5v9.9h-2.8v-9.9H783.2 M783.7,51.9h-4V63h4V51.9z"/>
		<path class="st0" d="M851.5,198.5l1.7-2.9l9.1,5.3l-1.7,2.9L851.5,198.5z"/>
		<path d="M853.3,196.1l8.6,5l-1.4,2.4l-8.6-5L853.3,196.1 M853.1,195.3l-0.3,0.5l-1.4,2.4l-0.3,0.5l0.5,0.3l8.6,5l0.5,0.3l0.3-0.5
		l1.4-2.4l0.3-0.5l-0.5-0.3l-8.6-5L853.1,195.3z"/>
		<path class="st0" d="M764.2,494.5c-54.8,0-99.2,44.4-99.2,99.2s44.4,99.2,99.2,99.2s99.2-44.4,99.2-99.2
		C863.5,538.9,819,494.5,764.2,494.5z"/>
		<path class="st0" d="M758.8,495.5h3.6v10.8h-3.6V495.5z"/>
		<path d="M762,495.9v9.9h-2.8v-9.9H762 M762.9,495.1h-4.6v11.7h4.6V495.1z"/>
		<path class="st0" d="M680,644.3l9.4-5.4l1.9,3.2l-9.4,5.4L680,644.3z"/>
		<path d="M689.1,639.6l1.4,2.4l-8.6,5l-1.4-2.4L689.1,639.6 M689.5,638.4l-0.7,0.4l-8.6,5l-0.7,0.4l0.4,0.7l1.4,2.4l0.4,0.7l0.7-0.4
		l8.6-5l0.7-0.4l-0.4-0.7l-1.4-2.4L689.5,638.4z"/>
		<path class="st0" d="M676.4,638.3l9.4-5.4l1.9,3.2l-9.4,5.4L676.4,638.3z"/>
		<path d="M685.6,633.4l1.4,2.4l-8.6,5l-1.4-2.4L685.6,633.4 M685.9,632.2l-0.7,0.4l-8.6,5l-0.7,0.4l0.4,0.7l1.4,2.4l0.4,0.7l0.7-0.4
		l8.6-5l0.7-0.4l-0.4-0.7l-1.4-2.4L685.9,632.2z"/>
		<path class="st0" d="M840.8,636l1.9-3.2l9.4,5.4l-1.9,3.2L840.8,636z"/>
		<path d="M842.8,633.4l8.6,5l-1.4,2.4l-8.6-5L842.8,633.4 M842.5,632.2l-0.4,0.7l-1.4,2.4l-0.4,0.7l0.7,0.4l8.6,5l0.7,0.4l0.4-0.7
		l1.4-2.4l0.4-0.7l-0.7-0.4l-8.6-5L842.5,632.2z"/>
		<path class="st0" d="M765.9,495.5h3.6v10.8h-3.6V495.5z"/>
		<path d="M769.1,495.9v9.9h-2.8v-9.9H769.1 M770,495.1h-4.6v11.7h4.6V495.1z"/>
		<path class="st0" d="M837.3,642.1l1.9-3.2l9.4,5.4l-1.9,3.2L837.3,642.1z"/>
		<path d="M839.2,639.6l8.6,5l-1.4,2.4l-8.6-5L839.2,639.6 M838.9,638.4l-0.4,0.7l-1.4,2.4l-0.4,0.7l0.7,0.4l8.6,5l0.7,0.4l0.4-0.7
		l1.4-2.4l0.4-0.7l-0.7-0.4l-8.6-5L838.9,638.4z"/>
		<path class="st10" d="M764.2,494.5c-54.8,0-99.2,44.4-99.2,99.2s44.4,99.2,99.2,99.2s99.2-44.4,99.2-99.2
		C863.5,538.9,819,494.5,764.2,494.5z M764.2,684.4c-50.1,0-90.7-40.6-90.7-90.7s40.6-90.7,90.7-90.7s90.7,40.6,90.7,90.7
		S814.3,684.4,764.2,684.4z"/>
		<path class="st0" d="M759,495.7h3.4v10.5H759V495.7z"/>
		<path d="M762,495.9v9.9h-2.8v-9.9H762 M762.6,495.4h-4v11.1h4V495.4z"/>
		<path class="st0" d="M680.2,644.4l9.1-5.2l1.7,2.9l-9.1,5.2L680.2,644.4z"/>
		<path d="M689.1,639.6l1.4,2.4l-8.6,5l-1.4-2.4L689.1,639.6 M689.4,638.8l-0.5,0.3l-8.6,5l-0.5,0.3l0.3,0.5l1.4,2.4l0.3,0.5l0.5-0.3
		l8.6-5l0.5-0.3l-0.3-0.5l-1.4-2.4L689.4,638.8z"/>
		<path class="st0" d="M676.6,638.3l9.1-5.2l1.7,2.9l-9.1,5.2L676.6,638.3z"/>
		<path d="M685.6,633.4l1.4,2.4l-8.6,5l-1.4-2.4L685.6,633.4 M685.8,632.6l-0.5,0.3l-8.6,5l-0.5,0.3l0.3,0.5l1.4,2.4l0.3,0.5l0.5-0.3
		l8.6-5l0.5-0.3l-0.3-0.5l-1.4-2.4L685.8,632.6z"/>
		<path class="st0" d="M841,635.9l1.7-2.9l9.1,5.3l-1.7,2.9L841,635.9z"/>
		<path d="M842.8,633.4l8.6,5l-1.4,2.4l-8.6-5L842.8,633.4 M842.6,632.6l-0.3,0.5l-1.4,2.4l-0.3,0.5l0.5,0.3l8.6,5l0.5,0.3l0.3-0.5
		l1.4-2.4l0.3-0.5l-0.5-0.3l-8.6-5L842.6,632.6z"/>
		<path class="st0" d="M766.1,495.7h3.4v10.5h-3.4V495.7z"/>
		<path d="M769.1,495.9v9.9h-2.8v-9.9H769.1 M769.7,495.4h-4v11.1h4V495.4z"/>
		<path class="st0" d="M837.4,642.1l1.7-2.9l9.1,5.3l-1.7,2.9L837.4,642.1z"/>
		<path d="M839.2,639.6l8.6,5l-1.4,2.4l-8.6-5L839.2,639.6 M839,638.8l-0.3,0.5l-1.4,2.4l-0.3,0.5l0.5,0.3l8.6,5l0.5,0.3l0.3-0.5
		l1.4-2.4l0.3-0.5l-0.5-0.3l-8.6-5L839,638.8z"/>
</g>
	<g id="Layer_5">
	<text transform="matrix(1 0 0 1 731.962 160.836)" class="st7 st8">Unit B</text>
		<text transform="matrix(1 0 0 1 716.989 604.325)" class="st7 st8">Unit C</text>
		<text transform="matrix(1 0 0 1 657.989 342.673)" class="st7 st11">Building</text>
		<text transform="matrix(1 0 0 1 758.8489 342.673)" class="st7 st12">             </text>
		<text transform="matrix(1 0 0 1 691.889 376.673)" class="st7 st11">or </text>
		<text transform="matrix(1 0 0 1 724.9692 376.673)" class="st7 st12">             </text>
		<text transform="matrix(1 0 0 1 629.689 410.673)" class="st7 st11">Area Terrain</text>
		<text transform="matrix(1 0 0 1 358.851 704.292)" class="st7 st11">Concealing Area Terrain</text>
</g>
	<g id="Layer_4">
	<text transform="matrix(1 0 0 1 75.767 201.28)" class="st7 st11">Orange Player </text>
		<text transform="matrix(1 0 0 1 266.4138 201.28)" class="st7 st12">   </text>
		<text transform="matrix(1 0 0 1 75.767 235.28)" class="st7 st11">Chosen LOS points</text>
		<path class="st13" d="M262.1,347.9l-52.4-52.4v-38.2 M286.1,533.5l-31.7,31.7H143.2l-29.3-29.3V257.3"/>
		<text transform="matrix(1 0 0 1 46.146 100.065)" class="st7 st14">Unit B is Concealed from Unit A</text>
		<path class="st13" d="M697.4,249.5L536.6,88.7h-109 M559.2,675.3l-53.7-53.7h-109"/>
		<text transform="matrix(1 0 0 1 26.617 630.245)" class="st7 st14">Unit C is Concealed from Unit A</text>
</g>
</svg>
