<svg xmlns="http://www.w3.org/2000/svg" viewBox="0 0 919.9 728.7" style="enable-background:new 0 0 919.9 728.7"
     xml:space="preserve"><style>.st1{fill:#e69b2b;fill-opacity:.5}.st7,.st8{fill:#fff}.st8{stroke:#000;stroke-width:.8504;stroke-miterlimit:10}.st11{font-family:&apos;ArialMT&apos;}.st12{font-size:34.0158px}.st14{fill:#2f9da5;stroke:#000;stroke-width:.8504;stroke-miterlimit:10}.st15{font-size:28.3465px}.st16{fill:none;stroke:#000;stroke-miterlimit:10}.st17{font-size:25.5118px}</style>
    <path d="M320.5 728.7c-9.1-73.4 26.8-62.4 251.6-67.5 61-1.4 119 19.5 168.7 39.7 100.6 40.7 69.3-206.3 184.9-213.8 74-4.8 289.2 23.1 188.8 219.5S-22 958.9-22 958.9"
          style="fill:#afd688;stroke:#000;stroke-width:2.8346;stroke-miterlimit:10" id="Layer_10"/>
    <g id="Layer_7"><path class="st1" d="m728.6 64.4-458.4 296 531.5-113.7z"/>
        <path style="opacity:.5;fill:#6b6b6b" d="M593.1 257.3v33.8l208.6-44.4-19.9-49.6"/>
        <path style="opacity:.1;fill:#6b6b6b" d="m270.2 360.4 322.9-103.1v33.8"/></g>
    <path class="st1" d="M733.3 687.8 298.5 523l465.7-28.5z" id="Layer_2"/>
    <g id="Layer_8"><path class="st7" d="M304.2 353.1c-47 0-85 38.1-85 85 0 47 38.1 85 85 85s85-38.1 85-85c.1-47-38-85-85-85z"/>
        <path class="st7" d="M302.4 353.6h3.7v9.8h-3.7z"/>
        <path d="M305.7 354v9h-2.9v-9h2.9m.8-.8h-4.7V364h4.7v-10.8z"/>
        <path class="st8" d="M305.4 354.3v8.5H303v-8.5h2.4m.5-.5h-3.4v9.5h3.4v-9.5z"/>
        <path transform="rotate(-60 373.12 477.906)" class="st7" d="M371.3 473h3.7v9.8h-3.7z"/>
        <path d="m370 474.4 7.8 4.5-1.4 2.5-7.8-4.5 1.4-2.5m-.3-1.2-.4.7-1.4 2.5-.4.7.7.4 7.8 4.5.7.4.4-.7 1.4-2.5.4-.7-.7-.4-7.8-4.5-.7-.4z"/>
        <path class="st8"
              d="m376.2 481.1-7.3-4.2 1.2-2.1 7.3 4.2-1.2 2.1m.2.6.2-.4 1.2-2.1.2-.4-.4-.2-7.3-4.2-.4-.2-.2.4-1.2 2.1-.2.4.4.2 7.3 4.2.4.2z"/>
        <path transform="rotate(-30.006 235.268 477.86)" class="st7" d="M230.4 476h9.8v3.7h-9.8z"/>
        <path d="m238.5 474.4 1.4 2.5-7.8 4.5-1.4-2.5 7.8-4.5m.3-1.2-.7.4-7.8 4.5-.7.4.4.7 1.4 2.5.4.7.7-.4 7.8-4.5.7-.4-.4-.7-1.4-2.5-.4-.7z"/>
        <path class="st8"
              d="m231 479 7.3-4.2 1.2 2.1-7.3 4.2-1.2-2.1m-.6-.2.2.4 1.2 2.1.2.4.4-.2 7.3-4.2.4-.2-.2-.4-1.2-2.1-.2-.4-.4.2-7.3 4.2-.4.2z"/>
        <path class="st7" d="M302.4 353.6h3.7v9.8h-3.7z"/>
        <path d="M305.7 354v9h-2.9v-9h2.9m.8-.8h-4.7V364h4.7v-10.8z"/>
        <path class="st8" d="M305.4 354.3v8.5H303v-8.5h2.4m.5-.5h-3.4v9.5h3.4v-9.5z"/>
        <path d="M304.2 353.1c-47 0-85 38.1-85 85 0 47 38.1 85 85 85s85-38.1 85-85c.1-47-38-85-85-85zm0 162.8c-42.9 0-77.7-34.8-77.7-77.7s34.8-77.7 77.7-77.7c42.9 0 77.7 34.8 77.7 77.7.1 42.9-34.7 77.7-77.7 77.7z"
              style="fill:#e69b2b;stroke:#000;stroke-width:.8504;stroke-miterlimit:10"/>
        <path class="st7" d="M302.8 354h2.9v9h-2.9z"/>
        <path d="M305.4 354.3v8.5H303v-8.5h2.4m.5-.5h-3.4v9.5h3.4v-9.5z"/>
        <path transform="rotate(-60 373.15 477.918)" class="st7" d="M371.7 473.4h2.9v9h-2.9z"/>
        <path d="m376.2 481.1-7.3-4.2 1.2-2.1 7.3 4.2-1.2 2.1m.2.6.2-.4 1.2-2.1.2-.4-.4-.2-7.3-4.2-.4-.2-.2.4-1.2 2.1-.2.4.4.2 7.3 4.2.4.2z"/>
        <path transform="rotate(-30 235.275 477.909)" class="st7" d="M230.8 476.5h9v2.9h-9z"/>
        <path d="m231 479 7.3-4.2 1.2 2.1-7.3 4.2-1.2-2.1m-.6-.2.2.4 1.2 2.1.2.4.4-.2 7.3-4.2.4-.2-.2-.4-1.2-2.1-.2-.4-.4.2-7.3 4.2-.4.2z"/>
        <path class="st7" d="M302.8 354h2.9v9h-2.9z"/>
        <path d="M305.4 354.3v8.5H303v-8.5h2.4m.5-.5h-3.4v9.5h3.4v-9.5z"/>
        <text transform="translate(256.776 448.695)" class="st11 st12">Unit A</text></g>
    <g id="Layer_3"><path style="fill:#e2e2e2" d="M594.5 258.7h227.8v220.9H594.5z"/>
        <path d="M820.9 260.1v218h-225v-218h225m2.8-2.8H593.1V481h230.7V257.3h-.1z"/></g>
    <g id="Layer_1"><path class="st7" d="M778.3 51c-54.8 0-99.2 44.4-99.2 99.2 0 54.8 44.4 99.2 99.2 99.2s99.2-44.4 99.2-99.2c0-54.7-44.4-99.2-99.2-99.2z"/>
        <path class="st7" d="M772.9 52h3.6v10.8h-3.6z"/>
        <path d="M776.1 52.5v9.9h-2.8v-9.9h2.8m.8-.9h-4.6v11.7h4.6V51.6z"/>
        <path transform="rotate(-30 699.53 199.78)" class="st7" d="M694.2 197.9H705v3.7h-10.8z"/>
        <path d="m703.2 196.1 1.4 2.4-8.6 5-1.4-2.4 8.6-5m.3-1.2-.7.4-8.6 5-.7.4.4.7 1.4 2.4.4.7.7-.4 8.6-4.9.7-.4-.4-.7-1.4-2.4-.4-.8z"/>
        <path transform="rotate(-30 696.09 193.632)" class="st7" d="M690.7 191.8h10.8v3.7h-10.8z"/>
        <path d="m699.6 189.9 1.4 2.4-8.6 5-1.4-2.4 8.6-5m.3-1.1-.7.4-8.6 5-.7.4.4.7 1.4 2.4.4.7.7-.4 8.6-4.9.7-.4-.4-.7-1.4-2.4-.4-.8z"/>
        <path transform="rotate(-59.987 860.45 193.597)" class="st7" d="M858.6 188.2h3.7V199h-3.7z"/>
        <path d="m856.8 189.9 8.6 5-1.4 2.4-8.6-5 1.4-2.4m-.3-1.1-.4.7-1.4 2.4-.4.7.7.4 8.6 4.9.7.4.4-.7 1.4-2.4.4-.7-.7-.4-8.6-5-.7-.3z"/>
        <path class="st7" d="M780 52h3.6v10.8H780z"/>
        <path d="M783.2 52.5v9.9h-2.8v-9.9h2.8m.8-.9h-4.6v11.7h4.6V51.6z"/>
        <path transform="rotate(-59.987 856.844 199.763)" class="st7" d="M855 194.4h3.7v10.8H855z"/>
        <path d="m853.3 196.1 8.6 5-1.4 2.4-8.6-5 1.4-2.4m-.3-1.2-.4.7-1.4 2.4-.4.7.7.4 8.6 4.9.7.4.4-.7 1.4-2.4.4-.7-.7-.4-8.6-5-.7-.3z"/>
        <path class="st14"
              d="M778.3 51c-54.8 0-99.2 44.4-99.2 99.2 0 54.8 44.4 99.2 99.2 99.2s99.2-44.4 99.2-99.2c0-54.7-44.4-99.2-99.2-99.2zm0 190c-50.1 0-90.7-40.6-90.7-90.7s40.6-90.7 90.7-90.7 90.7 40.6 90.7 90.7-40.6 90.7-90.7 90.7z"/>
        <path class="st7" d="M773 52.2h3.4v10.5H773z"/>
        <path d="M776.1 52.5v9.9h-2.8v-9.9h2.8m.5-.6h-4V63h4V51.9z"/>
        <path transform="rotate(-30 699.584 199.78)" class="st7" d="M694.4 198.1h10.5v3.4h-10.5z"/>
        <path d="m703.2 196.1 1.4 2.4-8.6 5-1.4-2.4 8.6-5m.2-.8-.5.3-8.6 5-.5.3.3.5 1.4 2.4.3.5.5-.3 8.6-5 .5-.3-.3-.5-1.4-2.4-.3-.5z"/>
        <path transform="rotate(-30 696.092 193.632)" class="st7" d="M690.8 191.9h10.5v3.4h-10.5z"/>
        <path d="m699.6 189.9 1.4 2.4-8.6 5-1.4-2.4 8.6-5m.2-.8-.5.3-8.6 5-.5.3.3.5 1.4 2.4.3.5.5-.3 8.6-5 .5-.3-.3-.5-1.4-2.4-.3-.5z"/>
        <path transform="rotate(-59.982 860.368 193.595)" class="st7" d="M858.7 188.4h3.4v10.5h-3.4z"/>
        <path d="m856.8 189.9 8.6 5-1.4 2.4-8.6-5 1.4-2.4m-.2-.8-.3.5-1.4 2.4-.3.5.5.3 8.6 5 .5.3.3-.5 1.4-2.4.3-.5-.5-.3-8.6-5-.5-.3z"/>
        <path class="st7" d="M780.1 52.2h3.4v10.5h-3.4z"/>
        <path d="M783.2 52.5v9.9h-2.8v-9.9h2.8m.5-.6h-4V63h4V51.9z"/>
        <path transform="rotate(-59.982 856.818 199.744)" class="st7" d="M855.2 194.5h3.4V205h-3.4z"/>
        <path d="m853.3 196.1 8.6 5-1.4 2.4-8.6-5 1.4-2.4m-.2-.8-.3.5-1.4 2.4-.3.5.5.3 8.6 5 .5.3.3-.5 1.4-2.4.3-.5-.5-.3-8.6-5-.5-.3z"/>
        <path class="st7"
              d="M764.2 494.5c-54.8 0-99.2 44.4-99.2 99.2 0 54.8 44.4 99.2 99.2 99.2s99.2-44.4 99.2-99.2c.1-54.8-44.4-99.2-99.2-99.2z"/>
        <path class="st7" d="M758.8 495.5h3.6v10.8h-3.6z"/>
        <path d="M762 495.9v9.9h-2.8v-9.9h2.8m.9-.8h-4.6v11.7h4.6v-11.7z"/>
        <path transform="rotate(-30 685.47 643.239)" class="st7" d="M680.2 641.4H691v3.7h-10.8z"/>
        <path d="m689.1 639.6 1.4 2.4-8.6 5-1.4-2.4 8.6-5m.4-1.2-.7.4-8.6 5-.7.4.4.7 1.4 2.4.4.7.7-.4 8.6-5 .7-.4-.4-.7-1.4-2.4-.4-.7z"/>
        <path transform="rotate(-30 682.046 637.157)" class="st7" d="M676.6 635.3h10.8v3.7h-10.8z"/>
        <path d="m685.6 633.4 1.4 2.4-8.6 5-1.4-2.4 8.6-5m.3-1.2-.7.4-8.6 5-.7.4.4.7 1.4 2.4.4.7.7-.4 8.6-5 .7-.4-.4-.7-1.4-2.4-.4-.7z"/>
        <path transform="rotate(-59.987 846.423 637.106)" class="st7" d="M844.6 631.7h3.7v10.8h-3.7z"/>
        <path d="m842.8 633.4 8.6 5-1.4 2.4-8.6-5 1.4-2.4m-.3-1.2-.4.7-1.4 2.4-.4.7.7.4 8.6 5 .7.4.4-.7 1.4-2.4.4-.7-.7-.4-8.6-5-.7-.4z"/>
        <path class="st7" d="M765.9 495.5h3.6v10.8h-3.6z"/>
        <path d="M769.1 495.9v9.9h-2.8v-9.9h2.8m.9-.8h-4.6v11.7h4.6v-11.7z"/>
        <path transform="rotate(-59.987 842.803 643.246)" class="st7" d="M841 637.9h3.7v10.8H841z"/>
        <path d="m839.2 639.6 8.6 5-1.4 2.4-8.6-5 1.4-2.4m-.3-1.2-.4.7-1.4 2.4-.4.7.7.4 8.6 5 .7.4.4-.7 1.4-2.4.4-.7-.7-.4-8.6-5-.7-.4z"/>
        <path class="st14"
              d="M764.2 494.5c-54.8 0-99.2 44.4-99.2 99.2 0 54.8 44.4 99.2 99.2 99.2s99.2-44.4 99.2-99.2c.1-54.8-44.4-99.2-99.2-99.2zm0 189.9c-50.1 0-90.7-40.6-90.7-90.7s40.6-90.7 90.7-90.7 90.7 40.6 90.7 90.7-40.6 90.7-90.7 90.7z"/>
        <path class="st7" d="M759 495.7h3.4v10.5H759z"/>
        <path d="M762 495.9v9.9h-2.8v-9.9h2.8m.6-.5h-4v11.1h4v-11.1z"/>
        <path transform="rotate(-30 685.533 643.272)" class="st7" d="M680.3 641.6h10.5v3.4h-10.5z"/>
        <path d="m689.1 639.6 1.4 2.4-8.6 5-1.4-2.4 8.6-5m.3-.8-.5.3-8.6 5-.5.3.3.5 1.4 2.4.3.5.5-.3 8.6-5 .5-.3-.3-.5-1.4-2.4-.3-.5z"/>
        <path transform="rotate(-30 682.047 637.157)" class="st7" d="M676.8 635.4h10.5v3.4h-10.5z"/>
        <path d="m685.6 633.4 1.4 2.4-8.6 5-1.4-2.4 8.6-5m.2-.8-.5.3-8.6 5-.5.3.3.5 1.4 2.4.3.5.5-.3 8.6-5 .5-.3-.3-.5-1.4-2.4-.3-.5z"/>
        <path transform="rotate(-59.982 846.333 637.064)" class="st7" d="M844.7 631.9h3.4v10.5h-3.4z"/>
        <path d="m842.8 633.4 8.6 5-1.4 2.4-8.6-5 1.4-2.4m-.2-.8-.3.5-1.4 2.4-.3.5.5.3 8.6 5 .5.3.3-.5 1.4-2.4.3-.5-.5-.3-8.6-5-.5-.3z"/>
        <path class="st7" d="M766.1 495.7h3.4v10.5h-3.4z"/>
        <path d="M769.1 495.9v9.9h-2.8v-9.9h2.8m.6-.5h-4v11.1h4v-11.1z"/>
        <path transform="rotate(-59.982 842.783 643.212)" class="st7" d="M841.1 638h3.4v10.5h-3.4z"/>
        <path d="m839.2 639.6 8.6 5-1.4 2.4-8.6-5 1.4-2.4m-.2-.8-.3.5-1.4 2.4-.3.5.5.3 8.6 5 .5.3.3-.5 1.4-2.4.3-.5-.5-.3-8.6-5-.5-.3z"/></g>
    <g id="Layer_5"><text transform="translate(731.962 160.836)" class="st11 st12">Unit B</text>
        <text transform="translate(716.989 604.325)" class="st11 st12">Unit C</text>
        <text transform="translate(657.989 342.673)"><tspan x="0" y="0" class="st11 st15">Building</tspan>
            <tspan x="33.9" y="34" class="st11 st15">or </tspan>
            <tspan x="-28.3" y="68" class="st11 st15">Area Terrain</tspan></text>
        <text transform="translate(358.851 704.292)" class="st11 st15">Concealing Area Terrain</text></g>
    <g id="Layer_4"><text transform="translate(75.767 201.28)"><tspan x="0" y="0" class="st11 st15">Orange Player </tspan>
		<tspan x="0" y="34" class="st11 st15">Chosen LOS points</tspan></text>
        <path class="st16" d="m262.1 347.9-52.4-52.4v-38.2m76.4 276.2-31.7 31.7H143.2l-29.3-29.3V257.3"/>
        <text transform="translate(46.146 100.065)" class="st11 st17">Unit B is Concealed from Unit A</text>
        <path class="st16" d="M697.4 249.5 536.6 88.7h-109m131.6 586.6-53.7-53.7h-109"/>
        <text transform="translate(26.617 630.245)" class="st11 st17">Unit C is Concealed from Unit A</text></g></svg>
