<?xml version="1.0" encoding="utf-8"?>
<!-- Generator: Adobe Illustrator 27.5.0, SVG Export Plug-In . SVG Version: 6.00 Build 0)  -->
<svg version="1.1" id="Layer_1" xmlns="http://www.w3.org/2000/svg" x="0px"
     y="0px"
     viewBox="0 0 1160.7 1040.3" style="enable-background:new 0 0 1160.7 1040.3;" xml:space="preserve">
<style type="text/css">
	.st0{fill:#FFFFFF;}
	.st1{fill:#B4D6A7;stroke:#231F20;stroke-width:2.8346;stroke-miterlimit:10;}
	.st2{opacity:0.8;fill:#231F20;enable-background:new    ;}
	.st3{font-family:'ArialMT';}
	.st4{font-size:36.8504px;}
	.st5{font-size:12px;}
	.st6{fill:none;stroke:#231F20;stroke-miterlimit:10;}
	.st7{fill:#E0E0E0;stroke:#231F20;stroke-miterlimit:10;}
	.st8{fill:#231F20;}
	.st9{font-size:28.3465px;}
	.st10{fill:#FFFFFF;stroke:#231F20;stroke-width:0.8504;stroke-miterlimit:10;}
	.st11{fill:#E59A2A;stroke:#000000;stroke-width:0.8504;stroke-miterlimit:10;}
	.st12{font-size:34.0158px;}
	.st13{fill:#2E9CA4;stroke:#000000;stroke-width:0.8504;stroke-miterlimit:10;}
	.st14{font-size:22.6772px;}
	.st15{fill:#9EF471;stroke:#0A0A0A;stroke-width:2.8346;stroke-miterlimit:10;}
	.st16{fill:#F27272;stroke:#000000;stroke-width:2.8346;stroke-miterlimit:10;}
</style>
    <rect class="st0" width="1160.7" height="1040.3"/>
    <g id="Layer_10">
	<path class="st1" d="M288.9-92.4C123.8-139.8-53-278.7-34.8,410.2c2.1,77.6-202.2,263.7,139.4,336c47.6,10.1,148.6,33.9,217.1,2.9
		c170.2-77,127.4-271.2,221.2-269.7c153,2.4,510.8,190.3,608.1-55.8c52.2-132.1,95.4-497-24.1-482.3
		C1023.7-46.1,454-44.9,288.9-92.4L288.9-92.4z"/>
        <text transform="matrix(1 0 0 1 42.52 74.143)" class="st2 st3 st4">Forest Area Terrain</text>
        <text transform="matrix(1 0 0 1 817.047 897.403)" class="st3 st4">Unit A has LOS to </text>
        <text transform="matrix(1 0 0 1 1118.1659 897.403)" class="st3 st5">             </text>
        <text transform="matrix(1 0 0 1 817.047 941.603)" class="st3 st4">Unit B and Unit C </text>
        <text transform="matrix(1 0 0 1 1111.9761 941.603)" class="st3 st5">             </text>
        <text transform="matrix(1 0 0 1 817.047 985.803)" class="st3 st4">but not Unit D</text>
</g>
    <path id="guides" class="st6"
          d="M605.2,196.3l-163.1,736 M135.7,465.4l306.4,466.9 M46.5,599.3c44.8-53.3,100.6-97.9,164.9-129.9"
    />
    <g id="Layer_1_00000026151618331963528480000016458355637112529572_">
	<path class="st7" d="M278.2,605.4l79,120.4l-35.5,23.3l-79-120.4L278.2,605.4z"/>
        <text transform="matrix(0.5487 0.836 -0.836 0.5487 283.6614 672.9028)" class="st8 st3 st9">2”</text>
        <path class="st6"
              d="M376.9,877.6L46,599.9 M376.9,877.6l-26.4,2.3 M376.9,877.6l-2.3-26.4 M46,599.9l26.4-2.3 M46,599.9l2.3,26.5"
        />
        <text transform="matrix(0.7661 0.6427 -0.6427 0.7661 202.5867 721.4763)" class="st8 st3 st9">6”</text>
        <path class="st6" d="M500.7,870.7l297.8-313 M500.7,870.7l-0.6-26.5 M500.7,870.7l26.5-0.7 M798.5,557.7l0.7,26.6 M798.5,557.7
		l-26.5,0.7"/>
        <text transform="matrix(0.6894 -0.7244 0.7244 0.6894 636.6418 712.201)" class="st8 st3 st9">6”</text>
        <path class="st7" d="M501.5,469.9l32.1-140.4L575,339l-32.1,140.4L501.5,469.9z"/>
        <text transform="matrix(0.223 -0.9748 0.9748 0.223 546.5764 419.2546)" class="st8 st3 st9">2”</text>
        <path class="st6" d="M948.7,399.1L442.1,932.3"/>
        <path class="st7" d="M787.3,507.3l100-103.7l30.6,29.5l-100,103.7L787.3,507.3z"/>
        <text transform="matrix(0.6941 -0.7199 0.7199 0.6941 851.8862 487.2097)" class="st8 st3 st9">2”</text>
</g>
    <g id="Layer_8">
	<path class="st0"
          d="M442.1,847.2c-47,0-85,38.1-85,85c0,47,38.1,85,85,85s85-38.1,85-85S489.1,847.2,442.1,847.2L442.1,847.2z"/>
        <path class="st0" d="M440.2,847.8h3.7v9.8h-3.7V847.8z"/>
        <path class="st8" d="M443.5,848.2v9h-2.9v-9H443.5 M444.4,847.4h-4.7v10.8h4.7V847.4z"/>
        <path class="st10" d="M443.3,848.4v8.5h-2.4v-8.5H443.3 M443.8,848h-3.4v9.5h3.4V848z"/>
        <path class="st0" d="M505.8,971.2l1.8-3.2l8.5,4.9l-1.8,3.2L505.8,971.2z"/>
        <path class="st8" d="M507.9,968.6l7.8,4.5l-1.4,2.5l-7.8-4.5L507.9,968.6 M507.5,967.4l-0.4,0.7l-1.4,2.5l-0.4,0.7l0.7,0.4l7.8,4.5
		l0.7,0.4l0.4-0.7l1.4-2.5l0.4-0.7l-0.7-0.4l-7.8-4.5L507.5,967.4L507.5,967.4z"/>
        <path class="st10" d="M514.1,975.2l-7.3-4.2l1.2-2.1l7.3,4.2L514.1,975.2 M514.3,975.9l0.2-0.4l1.2-2.1l0.2-0.4l-0.4-0.2l-7.3-4.2
		l-0.4-0.2l-0.2,0.4l-1.2,2.1l-0.2,0.4l0.4,0.2l7.3,4.2L514.3,975.9z"/>
        <path class="st0" d="M368.1,972.8l8.5-4.9l1.9,3.2L370,976L368.1,972.8z"/>
        <path class="st8" d="M376.3,968.6l1.4,2.5l-7.8,4.5l-1.4-2.5L376.3,968.6 M376.6,967.4l-0.7,0.4l-7.8,4.5l-0.7,0.4l0.4,0.7l1.4,2.5
		l0.4,0.7l0.7-0.4l7.8-4.5l0.7-0.4l-0.4-0.7l-1.4-2.5L376.6,967.4z"/>
        <path class="st10" d="M368.9,973.1l7.3-4.2l1.2,2.1l-7.3,4.2L368.9,973.1 M368.2,973l0.2,0.4l1.2,2.1l0.2,0.4l0.4-0.2l7.3-4.2
		l0.4-0.2l-0.2-0.4l-1.2-2.1l-0.2-0.4l-0.4,0.2l-7.3,4.2L368.2,973z"/>
        <path class="st0" d="M440.2,847.8h3.7v9.8h-3.7V847.8z"/>
        <path class="st8" d="M443.5,848.2v9h-2.9v-9H443.5 M444.4,847.4h-4.7v10.8h4.7V847.4z"/>
        <path class="st10" d="M443.3,848.4v8.5h-2.4v-8.5H443.3 M443.8,848h-3.4v9.5h3.4V848z"/>
        <path class="st11" d="M442.1,847.2c-47,0-85,38.1-85,85c0,47,38.1,85,85,85s85-38.1,85-85S489.1,847.2,442.1,847.2L442.1,847.2z
		 M442.1,1010c-42.9,0-77.7-34.8-77.7-77.7s34.8-77.7,77.7-77.7s77.7,34.8,77.7,77.7S485,1010,442.1,1010L442.1,1010z"/>
        <path class="st0" d="M440.7,848.2h2.9v9h-2.9V848.2z"/>
        <path class="st8" d="M443.3,848.4v8.5h-2.4v-8.5H443.3 M443.8,848h-3.4v9.5h3.4V848z"/>
        <path class="st0" d="M506.4,971.1l1.5-2.5l7.8,4.5l-1.5,2.5L506.4,971.1z"/>
        <path class="st8" d="M514.1,975.2l-7.3-4.2l1.2-2.1l7.3,4.2L514.1,975.2 M514.3,975.9l0.2-0.4l1.2-2.1l0.2-0.4l-0.4-0.2l-7.3-4.2
		l-0.4-0.2l-0.2,0.4l-1.2,2.1l-0.2,0.4l0.4,0.2l7.3,4.2L514.3,975.9z"/>
        <path class="st0" d="M368.6,973l7.8-4.5l1.5,2.5l-7.8,4.5L368.6,973z"/>
        <path class="st8" d="M368.9,973.1l7.3-4.2l1.2,2.1l-7.3,4.2L368.9,973.1 M368.2,973l0.2,0.4l1.2,2.1l0.2,0.4l0.4-0.2l7.3-4.2
		l0.4-0.2l-0.2-0.4l-1.2-2.1l-0.2-0.4l-0.4,0.2l-7.3,4.2L368.2,973z"/>
        <path class="st0" d="M440.7,848.2h2.9v9h-2.9V848.2z"/>
        <path class="st8" d="M443.3,848.4v8.5h-2.4v-8.5H443.3 M443.8,848h-3.4v9.5h3.4V848z"/>
        <text transform="matrix(1 0 0 1 394.808 941.345)" class="st8 st3 st12">Unit A</text>
        <path class="st0" d="M139.5,374.7c-54.8,0-99.2,44.4-99.2,99.2s44.4,99.2,99.2,99.2s99.2-44.4,99.2-99.2
		C238.8,419.1,194.3,374.7,139.5,374.7z"/>
        <path class="st0" d="M134.1,375.7h3.7v10.7h-3.7V375.7z"/>
        <path class="st8" d="M137.3,376.1v9.9h-2.8v-9.9H137.3 M138.2,375.3h-4.6V387h4.6V375.3L138.2,375.3z"/>
        <path class="st0" d="M55.3,524.5l9.4-5.4l1.9,3.2l-9.4,5.4L55.3,524.5z"/>
        <path class="st8" d="M64.4,519.7l1.4,2.4l-8.6,5l-1.4-2.4L64.4,519.7 M64.8,518.6L64,519l-8.6,5l-0.7,0.4l0.4,0.7l1.4,2.4l0.4,0.7
		l0.7-0.4l8.6-5l0.7-0.4l-0.4-0.7l-1.4-2.4L64.8,518.6z"/>
        <path class="st0" d="M51.7,518.3l9.4-5.4l1.9,3.2l-9.4,5.4L51.7,518.3z"/>
        <path class="st8" d="M60.9,513.6l1.4,2.4l-8.6,5l-1.4-2.4L60.9,513.6 M61.2,512.4l-0.7,0.4l-8.6,5l-0.7,0.4l0.4,0.7l1.4,2.4
		l0.4,0.7l0.7-0.4l8.6-5l0.7-0.4l-0.4-0.7l-1.4-2.4L61.2,512.4z"/>
        <path class="st0" d="M216.1,516.1l1.9-3.2l9.4,5.4l-1.9,3.2L216.1,516.1z"/>
        <path class="st8" d="M218.1,513.6l8.6,5l-1.4,2.4l-8.6-5L218.1,513.6 M217.8,512.4l-0.4,0.7l-1.4,2.4l-0.4,0.7l0.7,0.4l8.6,5
		l0.7,0.4l0.4-0.7l1.4-2.4l0.4-0.7l-0.7-0.4l-8.6-5L217.8,512.4z"/>
        <path class="st0" d="M141.2,375.7h3.7v10.7h-3.7V375.7z"/>
        <path class="st8" d="M144.4,376.1v9.9h-2.8v-9.9H144.4 M145.3,375.3h-4.6V387h4.6V375.3L145.3,375.3z"/>
        <path class="st0" d="M212.5,522.3l1.8-3.2l9.4,5.4l-1.8,3.2L212.5,522.3z"/>
        <path class="st8" d="M214.5,519.7l8.6,5l-1.4,2.4l-8.6-5L214.5,519.7 M214.2,518.6l-0.4,0.7l-1.4,2.4l-0.4,0.7l0.7,0.4l8.6,5
		l0.7,0.4l0.4-0.7l1.4-2.4l0.4-0.7l-0.7-0.4l-8.6-5L214.2,518.6z"/>
        <path class="st13" d="M139.5,374.7c-54.8,0-99.2,44.4-99.2,99.2s44.4,99.2,99.2,99.2s99.2-44.4,99.2-99.2
		C238.8,419.1,194.3,374.7,139.5,374.7z M139.5,564.6c-50.1,0-90.7-40.6-90.7-90.7s40.6-90.7,90.7-90.7s90.7,40.6,90.7,90.7
		S189.6,564.6,139.5,564.6z"/>
        <path class="st0" d="M134.3,375.8h3.4v10.5h-3.4V375.8z"/>
        <path class="st8"
              d="M137.3,376.1v9.9h-2.8v-9.9H137.3 M137.9,375.5H134v11.1h4L137.9,375.5L137.9,375.5L137.9,375.5z"/>
        <path class="st0" d="M55.4,524.6l9.1-5.2l1.7,2.9l-9.1,5.2L55.4,524.6z"/>
        <path class="st8" d="M64.4,519.7l1.4,2.4l-8.6,5l-1.4-2.4L64.4,519.7 M64.7,518.9l-0.5,0.3l-8.6,5l-0.5,0.3l0.3,0.5l1.4,2.4
		l0.3,0.5l0.5-0.3l8.6-5l0.5-0.3l-0.3-0.5l-1.4-2.4C65,519.4,64.7,518.9,64.7,518.9z"/>
        <path class="st0" d="M52,518.4l9.1-5.3l1.7,2.9l-9.1,5.3L52,518.4z"/>
        <path class="st8" d="M60.9,513.6l1.4,2.4l-8.6,5l-1.4-2.4L60.9,513.6 M61.1,512.8l-0.5,0.3l-8.6,5l-0.5,0.3l0.3,0.5l1.4,2.4
		l0.3,0.5l0.5-0.3l8.6-5l0.5-0.3l-0.3-0.5l-1.4-2.4C61.4,513.3,61.1,512.8,61.1,512.8z"/>
        <path class="st0" d="M216.3,516.1l1.7-2.9l9.1,5.2l-1.7,2.9L216.3,516.1z"/>
        <path class="st8" d="M218.1,513.6l8.6,5l-1.4,2.4l-8.6-5L218.1,513.6 M217.9,512.8l-0.3,0.5l-1.4,2.4l-0.3,0.5l0.5,0.3l8.6,5
		l0.5,0.3l0.3-0.5l1.4-2.4l0.3-0.5l-0.5-0.3l-8.6-5L217.9,512.8z"/>
        <path class="st0" d="M141.4,375.8h3.4v10.5h-3.4V375.8z"/>
        <path class="st8" d="M144.4,376.1v9.9h-2.8v-9.9H144.4 M145,375.5h-4v11.1h4V375.5z"/>
        <path class="st0" d="M212.7,522.3l1.7-2.9l9.1,5.2l-1.7,2.9L212.7,522.3z"/>
        <path class="st8" d="M214.5,519.7l8.6,5l-1.4,2.4l-8.6-5L214.5,519.7 M214.3,518.9l-0.3,0.5l-1.4,2.4l-0.3,0.5l0.5,0.3l8.6,5
		l0.5,0.3l0.3-0.5l1.4-2.4l0.3-0.5l-0.5-0.3l-8.6-5L214.3,518.9z"/>
        <text transform="matrix(1 0 0 1 93.227 482.983)" class="st8 st3 st12">Unit B</text>
        <path class="st0" d="M1009.2,253.5c-47,0-85,38.1-85,85c0,47,38.1,85,85,85c46.9,0,85-38.1,85-85S1056.2,253.5,1009.2,253.5
		L1009.2,253.5z"/>
        <path class="st0" d="M1007.3,254h3.7v9.8h-3.7V254z"/>
        <path class="st8" d="M1010.6,254.5v9h-2.9v-9H1010.6 M1011.5,253.6h-4.7v10.8h4.7V253.6L1011.5,253.6z"/>
        <path class="st10" d="M1010.4,254.7v8.5h-2.4v-8.5L1010.4,254.7 M1010.9,254.2h-3.4v9.5h3.4V254.2z"/>
        <path class="st0" d="M1072.9,377.4l1.9-3.2l8.5,4.9l-1.9,3.2L1072.9,377.4z"/>
        <path class="st8" d="M1075,374.8l7.8,4.5l-1.4,2.5l-7.8-4.5L1075,374.8 M1074.6,373.7l-0.4,0.7l-1.4,2.5l-0.4,0.7l0.7,0.4l7.8,4.5
		l0.7,0.4l0.4-0.7l1.4-2.5l0.4-0.7l-0.7-0.4l-7.8-4.5L1074.6,373.7z"/>
        <path class="st10" d="M1081.2,381.5l-7.3-4.2l1.2-2.1l7.3,4.2L1081.2,381.5 M1081.4,382.2l0.2-0.4l1.2-2.1l0.2-0.4l-0.4-0.2
		l-7.3-4.2l-0.4-0.2l-0.2,0.4l-1.2,2.1l-0.2,0.4l0.4,0.2l7.3,4.2L1081.4,382.2z"/>
        <path class="st0" d="M935.1,379.2l8.5-4.9l1.9,3.2l-8.5,4.9L935.1,379.2z"/>
        <path class="st8" d="M943.4,374.8l1.4,2.5l-7.8,4.5l-1.4-2.5L943.4,374.8 M943.8,373.7l-0.7,0.4l-7.8,4.5l-0.7,0.4l0.4,0.7l1.4,2.5
		l0.4,0.7l0.7-0.4l7.8-4.5l0.7-0.4l-0.4-0.7l-1.4-2.5L943.8,373.7z"/>
        <path class="st10" d="M936,379.4l7.3-4.2l1.2,2.1l-7.3,4.2L936,379.4 M935.3,379.2l0.2,0.4l1.2,2.1l0.2,0.4l0.4-0.2l7.3-4.2
		l0.4-0.2V377l-1.2-2.1l-0.2-0.4l-0.4,0.2l-7.3,4.2L935.3,379.2L935.3,379.2z"/>
        <path class="st0" d="M1007.3,254h3.7v9.8h-3.7V254z"/>
        <path class="st8" d="M1010.6,254.5v9h-2.9v-9H1010.6 M1011.5,253.6h-4.7v10.8h4.7V253.6L1011.5,253.6z"/>
        <path class="st10" d="M1010.4,254.7v8.5h-2.4v-8.5L1010.4,254.7 M1010.9,254.2h-3.4v9.5h3.4V254.2z"/>
        <path class="st13" d="M1009.2,253.5c-47,0-85,38.1-85,85c0,47,38.1,85,85,85c46.9,0,85-38.1,85-85S1056.2,253.5,1009.2,253.5
		L1009.2,253.5z M1009.2,416.3c-42.9,0-77.7-34.8-77.7-77.7s34.8-77.7,77.7-77.7c42.9,0,77.7,34.8,77.7,77.7
		S1052.1,416.3,1009.2,416.3z"/>
        <path class="st0" d="M1007.8,254.5h2.9v9h-2.9V254.5z"/>
        <path class="st8" d="M1010.4,254.7v8.5h-2.4v-8.5L1010.4,254.7 M1010.9,254.2h-3.4v9.5h3.4V254.2z"/>
        <path class="st0" d="M1073.5,377.3l1.4-2.5l7.8,4.5l-1.4,2.5L1073.5,377.3z"/>
        <path class="st8" d="M1081.2,381.5l-7.3-4.2l1.2-2.1l7.3,4.2L1081.2,381.5 M1081.4,382.2l0.2-0.4l1.2-2.1l0.2-0.4l-0.4-0.2
		l-7.3-4.2l-0.4-0.2l-0.2,0.4l-1.2,2.1l-0.2,0.4l0.4,0.2l7.3,4.2L1081.4,382.2z"/>
        <path class="st0" d="M935.7,379.3l7.8-4.5l1.5,2.5l-7.8,4.5L935.7,379.3z"/>
        <path class="st8" d="M936,379.4l7.3-4.2l1.2,2.1l-7.3,4.2L936,379.4 M935.3,379.2l0.2,0.4l1.2,2.1l0.2,0.4l0.4-0.2l7.3-4.2l0.4-0.2
		V377l-1.2-2.1l-0.2-0.4l-0.4,0.2l-7.3,4.2L935.3,379.2L935.3,379.2z"/>
        <path class="st0" d="M1007.8,254.5h2.9v9h-2.9V254.5z"/>
        <path class="st8" d="M1010.4,254.7v8.5h-2.4v-8.5L1010.4,254.7 M1010.9,254.2h-3.4v9.5h3.4V254.2z"/>
        <text transform="matrix(1 0 0 1 961.946 347.61)" class="st8 st3 st12">Unit D</text>
        <path class="st0"
              d="M591.3,169.8c-47,0-85,38.1-85,85c0,47,38.1,85,85,85s85-38.1,85-85S638.2,169.8,591.3,169.8L591.3,169.8z"/>
        <path class="st0" d="M589.4,170.3h3.7v9.8h-3.7V170.3z"/>
        <path class="st8" d="M592.7,170.8v9h-2.9v-9H592.7 M593.6,169.9H589v10.8h4.7L593.6,169.9L593.6,169.9z"/>
        <path class="st10" d="M592.5,171v8.5h-2.4V171H592.5 M592.9,170.5h-3.4v9.5h3.4V170.5z"/>
        <path class="st0" d="M654.9,293.8l1.9-3.2l8.5,4.9l-1.9,3.2L654.9,293.8z"/>
        <path class="st8" d="M657,291.1l7.8,4.5l-1.4,2.5l-7.8-4.5L657,291.1 M656.7,290l-0.4,0.7l-1.4,2.5l-0.4,0.7l0.7,0.4l7.8,4.5
		l0.7,0.4l0.4-0.7l1.4-2.5l0.4-0.7l-0.7-0.4l-7.8-4.5L656.7,290z"/>
        <path class="st10" d="M663.3,297.8l-7.3-4.2l1.2-2.1l7.3,4.2L663.3,297.8 M663.4,298.5l0.2-0.4l1.2-2.1l0.2-0.4l-0.4-0.2l-7.3-4.2
		l-0.4-0.2l-0.2,0.4l-1.2,2.1l-0.2,0.4l0.4,0.2l7.3,4.2L663.4,298.5z"/>
        <path class="st0" d="M517.1,295.5l8.5-4.9l1.9,3.2l-8.5,4.9L517.1,295.5z"/>
        <path class="st8" d="M525.5,291.1l1.4,2.5l-7.8,4.5l-1.4-2.5L525.5,291.1 M525.8,290l-0.7,0.4l-7.8,4.5l-0.7,0.4l0.4,0.7l1.4,2.5
		l0.4,0.7l0.7-0.4l7.8-4.5l0.7-0.4l-0.4-0.7l-1.4-2.5L525.8,290z"/>
        <path class="st10" d="M518.1,295.7l7.3-4.2l1.2,2.1l-7.3,4.2L518.1,295.7 M517.4,295.5l0.2,0.4l1.2,2.1l0.2,0.4l0.4-0.2l7.3-4.2
		l0.4-0.2l-0.2-0.4l-1.2-2.1l-0.2-0.4l-0.4,0.2l-7.3,4.2L517.4,295.5z"/>
        <path class="st0" d="M589.4,170.3h3.7v9.8h-3.7V170.3z"/>
        <path class="st8" d="M592.7,170.8v9h-2.9v-9H592.7 M593.6,169.9H589v10.8h4.7L593.6,169.9L593.6,169.9z"/>
        <path class="st10" d="M592.5,171v8.5h-2.4V171H592.5 M592.9,170.5h-3.4v9.5h3.4V170.5z"/>
        <path class="st13" d="M591.3,169.8c-47,0-85,38.1-85,85c0,47,38.1,85,85,85s85-38.1,85-85S638.2,169.8,591.3,169.8L591.3,169.8z
		 M591.3,332.6c-42.9,0-77.7-34.8-77.7-77.7s34.8-77.7,77.7-77.7S669,212,669,254.9S634.2,332.6,591.3,332.6L591.3,332.6z"/>
        <path class="st0" d="M589.8,170.8h2.9v9h-2.9V170.8z"/>
        <path class="st8" d="M592.5,171v8.5h-2.4V171H592.5 M592.9,170.5h-3.4v9.5h3.4V170.5z"/>
        <path class="st0" d="M655.5,293.7l1.5-2.5l7.8,4.5l-1.5,2.5L655.5,293.7z"/>
        <path class="st8" d="M663.3,297.8l-7.3-4.2l1.2-2.1l7.3,4.2L663.3,297.8 M663.4,298.5l0.2-0.4l1.2-2.1l0.2-0.4l-0.4-0.2l-7.3-4.2
		l-0.4-0.2l-0.2,0.4l-1.2,2.1l-0.2,0.4l0.4,0.2l7.3,4.2L663.4,298.5z"/>
        <path class="st0" d="M517.8,295.6l7.8-4.5l1.5,2.5l-7.8,4.5L517.8,295.6z"/>
        <path class="st8" d="M518.1,295.7l7.3-4.2l1.2,2.1l-7.3,4.2L518.1,295.7 M517.4,295.5l0.2,0.4l1.2,2.1l0.2,0.4l0.4-0.2l7.3-4.2
		l0.4-0.2l-0.2-0.4l-1.2-2.1l-0.2-0.4l-0.4,0.2l-7.3,4.2L517.4,295.5z"/>
        <path class="st0" d="M589.8,170.8h2.9v9h-2.9V170.8z"/>
        <path class="st8" d="M592.5,171v8.5h-2.4V171H592.5 M592.9,170.5h-3.4v9.5h3.4V170.5z"/>
        <text transform="matrix(1 0 0 1 544.008 263.91)" class="st8 st3 st12">Unit C</text>
</g>
    <g id="Layer_7">
	<text transform="matrix(1 0 0 1 230.242 287.334)" class="st8 st3 st9">Within 6” </text>
        <text transform="matrix(1 0 0 1 349.9534 287.334)" class="st3 st5">         </text>
        <text transform="matrix(1 0 0 1 230.242 314.5341)" class="st8 st3 st14">(even though more </text>
        <text transform="matrix(1 0 0 1 426.8959 314.5341)" class="st3 st5">         </text>
        <text transform="matrix(1 0 0 1 230.242 341.734)" class="st8 st3 st14">than 2” from edge)</text>
        <text transform="matrix(1 0 0 1 690.473 89.497)" class="st8 st3 st9">Within 2” of Edge </text>
        <text transform="matrix(1 0 0 1 915.7778 89.497)" class="st3 st5">             </text>
        <text transform="matrix(1 0 0 1 690.473 116.697)" class="st8 st3 st14">(even though not within 6”)</text>
        <path class="st15" d="M134,349.7l-42.3-42.3l22-22l20.3,20.2l58.1-58.2l22.1,22.1L134,349.7z M591,142l-42.3-42.2l22.1-22.1L591,98
		l58.2-58.2l22,22L591,142z"/>
        <path class="st16" d="M1053.1,172.7l-22-22l-23.6,23.6l-23.6-23.6l-22,22l23.6,23.6l-23.6,23.6l22,22l23.6-23.5l23.6,23.5l22-22
		l-23.5-23.6L1053.1,172.7z"/>
</g>
    <text id="Layer_5" transform="matrix(1 0 0 1 458.377 1634.6541)" class="st8 st3 st9">Forest Area Terrain</text>
</svg>
