<svg xmlns="http://www.w3.org/2000/svg" viewBox="0 0 1160.7 1040.3" style="enable-background:new 0 0 1160.7 1040.3"
     xml:space="preserve"><style>.st2{font-family:&apos;ArialMT&apos;}.st3{font-size:36.8504px}.st4,.st5{fill:none;stroke:#231f20;stroke-miterlimit:10}.st5{fill:#e0e0e0}.st6{fill:#231f20}.st7{font-size:28.3465px}.st10,.st9{fill:#fff}.st10{stroke:#231f20;stroke-width:.8504;stroke-miterlimit:10}.st13{font-size:34.0158px}.st14{fill:#2e9ca4;stroke:#000;stroke-width:.8504;stroke-miterlimit:10}.st15{font-size:22.6772px}</style>
    <g id="Layer_10"><path d="M288.9-92.4C123.8-139.8-53-278.7-34.8 410.2c2.1 77.6-202.2 263.7 139.4 336 47.6 10.1 148.6 33.9 217.1 2.9 170.2-77 127.4-271.2 221.2-269.7 153 2.4 510.8 190.3 608.1-55.8 52.2-132.1 95.4-497-24.1-482.3-103.2 12.6-672.9 13.8-838-33.7z" style="fill:#9ccf89;stroke:#231f20;stroke-width:2.8346;stroke-miterlimit:10"/>
        <text transform="translate(42.52 74.143)" class="st2 st3"
              style="opacity:.8;fill:#231f20">Forest Area Terrain</text>
        <text transform="translate(817.047 897.403)"><tspan x="0" y="0" class="st2 st3">Unit A has LOS to </tspan>
            <tspan x="0" y="44.2" class="st2 st3">Unit B and Unit C </tspan>
            <tspan x="0" y="88.4" class="st2 st3">but not Unit D</tspan></text></g>
    <path class="st4" d="m605.2 196.3-163.1 736M135.7 465.4l306.4 466.9m-395.6-333c44.8-53.3 100.6-97.9 164.9-129.9"
          id="guides"/>
    <g id="Layer_1"><path transform="rotate(56.729 299.97 677.162)" class="st5" d="M228 656h144v42.5H228z"/>
        <text transform="rotate(56.722 -481.437 599.189)" class="st6 st2 st7">2”</text>
        <path d="M-372.2 471.9h144v42.5h-144z"
              style="fill:#727373;fill-opacity:.3;stroke:#231f20;stroke-miterlimit:10"/>
        <text transform="translate(-312.84 504.53)" class="st6 st2 st7">2”</text>
        <path class="st4"
              d="M376.9 877.6 46 599.9m330.9 277.7-26.4 2.3m26.4-2.3-2.3-26.4M46 599.9l26.4-2.3M46 599.9l2.3 26.5"/>
        <text transform="rotate(39.995 -889.961 639.077)" class="st6 st2 st7">6”</text>
        <path class="st4"
              d="m500.7 870.7 297.8-313m-297.8 313-.6-26.5m.6 26.5 26.5-.7m271.3-312.3.7 26.6m-.7-26.6-26.5.7"/>
        <text transform="rotate(-46.417 1148.825 -386.294)" class="st6 st2 st7">6”</text>
        <path transform="rotate(-77.115 538.309 404.41)" class="st5" d="M466.3 383.1h144v42.5h-144z"/>
        <text transform="rotate(-77.115 536.284 -133.236)" class="st6 st2 st7">2”</text>
        <path class="st4" d="M948.7 399.1 442.1 932.3"/>
        <path transform="rotate(-46.044 852.494 470.209)" class="st5" d="M780.5 449h144v42.5h-144z"/>
        <text transform="rotate(-46.044 999.228 -758.784)" class="st6 st2 st7">2”</text></g>
    <g id="Layer_8"><path class="st9" d="M442.1 847.2c-47 0-85 38.1-85 85 0 47 38.1 85 85 85s85-38.1 85-85-38-85-85-85z"/>
        <path class="st9" d="M440.2 847.8h3.7v9.8h-3.7z"/>
        <path class="st6" d="M443.5 848.2v9h-2.9v-9h2.9m.9-.8h-4.7v10.8h4.7v-10.8z"/>
        <path class="st10" d="M443.3 848.4v8.5h-2.4v-8.5h2.4m.5-.4h-3.4v9.5h3.4V848z"/>
        <path transform="rotate(-60 510.966 972.062)" class="st9" d="M509.1 967.2h3.7v9.8h-3.7z"/>
        <path class="st6"
              d="m507.9 968.6 7.8 4.5-1.4 2.5-7.8-4.5 1.4-2.5m-.4-1.2-.4.7-1.4 2.5-.4.7.7.4 7.8 4.5.7.4.4-.7 1.4-2.5.4-.7-.7-.4-7.8-4.5-.7-.4z"/>
        <path class="st10"
              d="m514.1 975.2-7.3-4.2 1.2-2.1 7.3 4.2-1.2 2.1m.2.7.2-.4 1.2-2.1.2-.4-.4-.2-7.3-4.2-.4-.2-.2.4-1.2 2.1-.2.4.4.2 7.3 4.2.4.2z"/>
        <path transform="rotate(-30.006 373.114 971.976)" class="st9" d="M368.3 970.2h9.8v3.7h-9.8z"/>
        <path class="st6"
              d="m376.3 968.6 1.4 2.5-7.8 4.5-1.4-2.5 7.8-4.5m.3-1.2-.7.4-7.8 4.5-.7.4.4.7 1.4 2.5.4.7.7-.4 7.8-4.5.7-.4-.4-.7-1.4-2.5-.4-.7z"/>
        <path class="st10"
              d="m368.9 973.1 7.3-4.2 1.2 2.1-7.3 4.2-1.2-2.1m-.7-.1.2.4 1.2 2.1.2.4.4-.2 7.3-4.2.4-.2-.2-.4-1.2-2.1-.2-.4-.4.2-7.3 4.2-.4.2z"/>
        <path class="st9" d="M440.2 847.8h3.7v9.8h-3.7z"/>
        <path class="st6" d="M443.5 848.2v9h-2.9v-9h2.9m.9-.8h-4.7v10.8h4.7v-10.8z"/>
        <path class="st10" d="M443.3 848.4v8.5h-2.4v-8.5h2.4m.5-.4h-3.4v9.5h3.4V848z"/>
        <path d="M442.1 847.2c-47 0-85 38.1-85 85 0 47 38.1 85 85 85s85-38.1 85-85-38-85-85-85zm0 162.8c-42.9 0-77.7-34.8-77.7-77.7 0-42.9 34.8-77.7 77.7-77.7 42.9 0 77.7 34.8 77.7 77.7 0 42.9-34.8 77.7-77.7 77.7z"
              style="fill:#e59a2a;stroke:#000;stroke-width:.8504;stroke-miterlimit:10"/>
        <path class="st9" d="M440.7 848.2h2.9v9h-2.9z"/>
        <path class="st6" d="M443.3 848.4v8.5h-2.4v-8.5h2.4m.5-.4h-3.4v9.5h3.4V848z"/>
        <path transform="rotate(-60 511.016 972.093)" class="st9" d="M509.6 967.6h2.9v9h-2.9z"/>
        <path class="st6"
              d="m514.1 975.2-7.3-4.2 1.2-2.1 7.3 4.2-1.2 2.1m.2.7.2-.4 1.2-2.1.2-.4-.4-.2-7.3-4.2-.4-.2-.2.4-1.2 2.1-.2.4.4.2 7.3 4.2.4.2z"/>
        <path transform="rotate(-30 373.12 972.071)" class="st9" d="M368.7 970.6h9v2.9h-9z"/>
        <path class="st6"
              d="m368.9 973.1 7.3-4.2 1.2 2.1-7.3 4.2-1.2-2.1m-.7-.1.2.4 1.2 2.1.2.4.4-.2 7.3-4.2.4-.2-.2-.4-1.2-2.1-.2-.4-.4.2-7.3 4.2-.4.2z"/>
        <path class="st9" d="M440.7 848.2h2.9v9h-2.9z"/>
        <path class="st6" d="M443.3 848.4v8.5h-2.4v-8.5h2.4m.5-.4h-3.4v9.5h3.4V848z"/>
        <text transform="translate(394.808 941.345)" class="st6 st2 st13">Unit A</text>
        <path class="st9"
              d="M139.5 374.7c-54.8 0-99.2 44.4-99.2 99.2 0 54.8 44.4 99.2 99.2 99.2s99.2-44.4 99.2-99.2c.1-54.8-44.4-99.2-99.2-99.2z"/>
        <path class="st9" d="M134.1 375.7h3.7v10.7h-3.7z"/>
        <path class="st6" d="M137.3 376.1v9.9h-2.8v-9.9h2.8m.9-.8h-4.6V387h4.6v-11.7z"/>
        <path transform="rotate(-30 60.818 523.372)" class="st9" d="M55.5 521.6h10.8v3.7H55.5z"/>
        <path class="st6"
              d="m64.4 519.7 1.4 2.4-8.6 5-1.4-2.4 8.6-5m.4-1.1-.8.4-8.6 5-.7.4.4.7 1.4 2.4.4.7.7-.4 8.6-5 .7-.4-.4-.7-1.4-2.4-.3-.7z"/>
        <path transform="rotate(-30.006 57.293 517.215)" class="st9" d="M51.9 515.4h10.8v3.7H51.9z"/>
        <path class="st6"
              d="m60.9 513.6 1.4 2.4-8.6 5-1.4-2.4 8.6-5m.3-1.2-.7.4-8.6 5-.7.4.4.7 1.4 2.4.4.7.7-.4 8.6-5 .7-.4-.4-.7-1.4-2.4-.4-.7z"/>
        <path transform="rotate(-60 221.664 517.266)" class="st9" d="M219.9 511.9h3.7v10.8h-3.7z"/>
        <path class="st6"
              d="m218.1 513.6 8.6 5-1.4 2.4-8.6-5 1.4-2.4m-.3-1.2-.4.7-1.4 2.4-.4.7.7.4 8.6 5 .7.4.4-.7 1.4-2.4.4-.7-.7-.4-8.6-5-.7-.4z"/>
        <path class="st9" d="M141.2 375.7h3.7v10.7h-3.7z"/>
        <path class="st6" d="M144.4 376.1v9.9h-2.8v-9.9h2.8m.9-.8h-4.6V387h4.6v-11.7z"/>
        <path transform="rotate(-60 218.114 523.415)" class="st9" d="M216.3 518h3.7v10.8h-3.7z"/>
        <path class="st6"
              d="m214.5 519.7 8.6 5-1.4 2.4-8.6-5 1.4-2.4m-.3-1.1-.4.7-1.4 2.4-.4.7.7.4 8.6 5 .7.4.4-.7 1.4-2.4.4-.7-.7-.4-8.6-5-.7-.4z"/>
        <path class="st14"
              d="M139.5 374.7c-54.8 0-99.2 44.4-99.2 99.2 0 54.8 44.4 99.2 99.2 99.2s99.2-44.4 99.2-99.2c.1-54.8-44.4-99.2-99.2-99.2zm0 189.9c-50.1 0-90.7-40.6-90.7-90.7s40.6-90.7 90.7-90.7 90.7 40.6 90.7 90.7-40.6 90.7-90.7 90.7z"/>
        <path class="st9" d="M134.3 375.8h3.4v10.5h-3.4z"/>
        <path class="st6" d="M137.3 376.1v9.9h-2.8v-9.9h2.8m.6-.6H134v11.1h4v-11.1h-.1z"/>
        <path transform="rotate(-29.991 60.88 523.426)" class="st9" d="M55.6 521.7h10.5v3.4H55.6z"/>
        <path class="st6"
              d="m64.4 519.7 1.4 2.4-8.6 5-1.4-2.4 8.6-5m.3-.8-.5.3-8.6 5-.5.3.3.5 1.4 2.4.3.5.5-.3 8.6-5 .5-.3-.3-.5-1.4-2.4-.3-.5z"/>
        <path transform="rotate(-30.006 57.308 517.254)" class="st9" d="M52.1 515.6h10.5v3.4H52.1z"/>
        <path class="st6"
              d="m60.9 513.6 1.4 2.4-8.6 5-1.4-2.4 8.6-5m.2-.8-.5.3-8.6 5-.5.3.3.5 1.4 2.4.3.5.5-.3 8.6-5 .5-.3-.3-.5-1.4-2.4-.3-.5z"/>
        <path transform="rotate(-60 221.672 517.272)" class="st9" d="M220 512h3.4v10.5H220z"/>
        <path class="st6"
              d="m218.1 513.6 8.6 5-1.4 2.4-8.6-5 1.4-2.4m-.2-.8-.3.5-1.4 2.4-.3.5.5.3 8.6 5 .5.3.3-.5 1.4-2.4.3-.5-.5-.3-8.6-5-.5-.3z"/>
        <path class="st9" d="M141.4 375.8h3.4v10.5h-3.4z"/>
        <path class="st6" d="M144.4 376.1v9.9h-2.8v-9.9h2.8m.6-.6h-4v11.1h4v-11.1z"/>
        <path transform="rotate(-60 218.114 523.415)" class="st9" d="M216.4 518.2h3.4v10.5h-3.4z"/>
        <path class="st6"
              d="m214.5 519.7 8.6 5-1.4 2.4-8.6-5 1.4-2.4m-.2-.8-.3.5-1.4 2.4-.3.5.5.3 8.6 5 .5.3.3-.5 1.4-2.4.3-.5-.5-.3-8.6-5-.5-.3z"/>
        <text transform="translate(93.227 482.983)" class="st6 st2 st13">Unit B</text>
        <path class="st9" d="M1009.2 253.5c-47 0-85 38.1-85 85 0 47 38.1 85 85 85s85-38.1 85-85-38-85-85-85z"/>
        <path class="st9" d="M1007.3 254h3.7v9.8h-3.7z"/>
        <path class="st6" d="M1010.6 254.5v9h-2.9v-9h2.9m.9-.9h-4.7v10.8h4.7v-10.8z"/>
        <path class="st10" d="M1010.4 254.7v8.5h-2.4v-8.5h2.4m.5-.5h-3.4v9.5h3.4v-9.5z"/>
        <path transform="rotate(-59.987 1078.075 378.35)" class="st9" d="M1076.3 373.4h3.7v9.8h-3.7z"/>
        <path class="st6"
              d="m1075 374.8 7.8 4.5-1.4 2.5-7.8-4.5 1.4-2.5m-.4-1.1-.4.7-1.4 2.5-.4.7.7.4 7.8 4.5.7.4.4-.7 1.4-2.5.4-.7-.7-.4-7.8-4.5-.7-.4z"/>
        <path class="st10"
              d="m1081.2 381.5-7.3-4.2 1.2-2.1 7.3 4.2-1.2 2.1m.2.7.2-.4 1.2-2.1.2-.4-.4-.2-7.3-4.2-.4-.2-.2.4-1.2 2.1-.2.4.4.2 7.3 4.2.4.2z"/>
        <path transform="rotate(-30 940.28 378.375)" class="st9" d="M935.4 376.5h9.8v3.7h-9.8z"/>
        <path class="st6"
              d="m943.4 374.8 1.4 2.5-7.8 4.5-1.4-2.5 7.8-4.5m.4-1.1-.7.4-7.8 4.5-.7.4.4.7 1.4 2.5.4.7.7-.4 7.8-4.5.7-.4-.4-.7-1.4-2.5-.4-.7z"/>
        <path class="st10"
              d="m936 379.4 7.3-4.2 1.2 2.1-7.3 4.2-1.2-2.1m-.7-.2.2.4 1.2 2.1.2.4.4-.2 7.3-4.2.4-.2v-.5l-1.2-2.1-.2-.4-.4.2-7.3 4.2-.6.3z"/>
        <path class="st9" d="M1007.3 254h3.7v9.8h-3.7z"/>
        <path class="st6" d="M1010.6 254.5v9h-2.9v-9h2.9m.9-.9h-4.7v10.8h4.7v-10.8z"/>
        <path class="st10" d="M1010.4 254.7v8.5h-2.4v-8.5h2.4m.5-.5h-3.4v9.5h3.4v-9.5z"/>
        <path class="st14"
              d="M1009.2 253.5c-47 0-85 38.1-85 85 0 47 38.1 85 85 85s85-38.1 85-85-38-85-85-85zm0 162.8c-42.9 0-77.7-34.8-77.7-77.7s34.8-77.7 77.7-77.7 77.7 34.8 77.7 77.7c0 42.9-34.8 77.7-77.7 77.7z"/>
        <path class="st9" d="M1007.8 254.5h2.9v9h-2.9z"/>
        <path class="st6" d="M1010.4 254.7v8.5h-2.4v-8.5h2.4m.5-.5h-3.4v9.5h3.4v-9.5z"/>
        <path transform="rotate(-60 1078.142 378.353)" class="st9" d="M1076.7 373.8h2.9v9h-2.9z"/>
        <path class="st6"
              d="m1081.2 381.5-7.3-4.2 1.2-2.1 7.3 4.2-1.2 2.1m.2.7.2-.4 1.2-2.1.2-.4-.4-.2-7.3-4.2-.4-.2-.2.4-1.2 2.1-.2.4.4.2 7.3 4.2.4.2z"/>
        <path transform="rotate(-30 940.247 378.371)" class="st9" d="M935.8 376.9h9v2.9h-9z"/>
        <path class="st6"
              d="m936 379.4 7.3-4.2 1.2 2.1-7.3 4.2-1.2-2.1m-.7-.2.2.4 1.2 2.1.2.4.4-.2 7.3-4.2.4-.2v-.5l-1.2-2.1-.2-.4-.4.2-7.3 4.2-.6.3z"/>
        <path class="st9" d="M1007.8 254.5h2.9v9h-2.9z"/>
        <path class="st6" d="M1010.4 254.7v8.5h-2.4v-8.5h2.4m.5-.5h-3.4v9.5h3.4v-9.5z"/>
        <text transform="translate(961.946 347.61)" class="st6 st2 st13">Unit D</text>
        <path class="st9" d="M591.3 169.8c-47 0-85 38.1-85 85 0 47 38.1 85 85 85s85-38.1 85-85-38.1-85-85-85z"/>
        <path class="st9" d="M589.4 170.3h3.7v9.8h-3.7z"/>
        <path class="st6" d="M592.7 170.8v9h-2.9v-9h2.9m.9-.9H589v10.8h4.7v-10.8h-.1z"/>
        <path class="st10" d="M592.5 171v8.5h-2.4V171h2.4m.4-.5h-3.4v9.5h3.4v-9.5z"/>
        <path transform="rotate(-59.987 660.153 294.639)" class="st9" d="M658.3 289.7h3.7v9.8h-3.7z"/>
        <path class="st6"
              d="m657 291.1 7.8 4.5-1.4 2.5-7.8-4.5 1.4-2.5m-.3-1.1-.4.7-1.4 2.5-.4.7.7.4 7.8 4.5.7.4.4-.7 1.4-2.5.4-.7-.7-.4-7.8-4.5-.7-.4z"/>
        <path class="st10"
              d="m663.3 297.8-7.3-4.2 1.2-2.1 7.3 4.2-1.2 2.1m.1.7.2-.4 1.2-2.1.2-.4-.4-.2-7.3-4.2-.4-.2-.2.4-1.2 2.1-.2.4.4.2 7.3 4.2.4.2z"/>
        <path transform="rotate(-30 522.337 294.656)" class="st9" d="M517.4 292.8h9.8v3.7h-9.8z"/>
        <path class="st6"
              d="m525.5 291.1 1.4 2.5-7.8 4.5-1.4-2.5 7.8-4.5m.3-1.1-.7.4-7.8 4.5-.7.4.4.7 1.4 2.5.4.7.7-.4 7.8-4.5.7-.4-.4-.7-1.4-2.5-.4-.7z"/>
        <path class="st10"
              d="m518.1 295.7 7.3-4.2 1.2 2.1-7.3 4.2-1.2-2.1m-.7-.2.2.4 1.2 2.1.2.4.4-.2 7.3-4.2.4-.2-.2-.4-1.2-2.1-.2-.4-.4.2-7.3 4.2-.4.2z"/>
        <path class="st9" d="M589.4 170.3h3.7v9.8h-3.7z"/>
        <path class="st6" d="M592.7 170.8v9h-2.9v-9h2.9m.9-.9H589v10.8h4.7v-10.8h-.1z"/>
        <path class="st10" d="M592.5 171v8.5h-2.4V171h2.4m.4-.5h-3.4v9.5h3.4v-9.5z"/>
        <path class="st14"
              d="M591.3 169.8c-47 0-85 38.1-85 85 0 47 38.1 85 85 85s85-38.1 85-85-38.1-85-85-85zm0 162.8c-42.9 0-77.7-34.8-77.7-77.7s34.8-77.7 77.7-77.7S669 212 669 254.9c0 42.9-34.8 77.7-77.7 77.7z"/>
        <path class="st9" d="M589.8 170.8h2.9v9h-2.9z"/>
        <path class="st6" d="M592.5 171v8.5h-2.4V171h2.4m.4-.5h-3.4v9.5h3.4v-9.5z"/>
        <path transform="rotate(-60 660.195 294.644)" class="st9" d="M658.7 290.1h2.9v9h-2.9z"/>
        <path class="st6"
              d="m663.3 297.8-7.3-4.2 1.2-2.1 7.3 4.2-1.2 2.1m.1.7.2-.4 1.2-2.1.2-.4-.4-.2-7.3-4.2-.4-.2-.2.4-1.2 2.1-.2.4.4.2 7.3 4.2.4.2z"/>
        <path transform="rotate(-30 522.318 294.65)" class="st9" d="M517.9 293.2h9v2.9h-9z"/>
        <path class="st6"
              d="m518.1 295.7 7.3-4.2 1.2 2.1-7.3 4.2-1.2-2.1m-.7-.2.2.4 1.2 2.1.2.4.4-.2 7.3-4.2.4-.2-.2-.4-1.2-2.1-.2-.4-.4.2-7.3 4.2-.4.2z"/>
        <path class="st9" d="M589.8 170.8h2.9v9h-2.9z"/>
        <path class="st6" d="M592.5 171v8.5h-2.4V171h2.4m.4-.5h-3.4v9.5h3.4v-9.5z"/>
        <text transform="translate(544.008 263.91)" class="st6 st2 st13">Unit C</text></g>
    <g id="Layer_7"><text transform="translate(230.242 287.334)"><tspan x="0" y="0" class="st6 st2 st7">Within 6” </tspan>
        <tspan x="0" y="27.2" class="st6 st2 st15">(even though more </tspan>
        <tspan x="0" y="54.4" class="st6 st2 st15">than 2” from edge)</tspan></text>
        <text transform="translate(690.473 89.497)"><tspan x="0" y="0" class="st6 st2 st7">Within 2” of Edge </tspan>
            <tspan x="0" y="27.2" class="st6 st2 st15">(even though not within 6”)</tspan></text>
        <path d="m134 349.7-42.3-42.3 22-22 20.3 20.2 58.1-58.2 22.1 22.1zM591 142l-42.3-42.2 22.1-22.1L591 98l58.2-58.2 22 22z"
              style="fill:#9ef471;stroke:#0a0a0a;stroke-width:2.8346;stroke-miterlimit:10"/>
        <path style="fill:#f27272;stroke:#000;stroke-width:2.8346;stroke-miterlimit:10"
              d="m1053.1 172.7-22-22-23.6 23.6-23.6-23.6-22 22 23.6 23.6-23.6 23.6 22 22 23.6-23.5 23.6 23.5 22-22-23.5-23.6z"/></g>
    <text transform="translate(458.377 1634.654)" class="st6 st2 st7" id="Layer_5">Forest Area Terrain</text></svg>
