<?xml version="1.0" encoding="utf-8"?>
<!-- Generator: Adobe Illustrator 25.4.8, SVG Export Plug-In . SVG Version: 6.00 Build 0)  -->
<svg version="1.1" xmlns="http://www.w3.org/2000/svg" xmlns:xlink="http://www.w3.org/1999/xlink" x="0px" y="0px"
     viewBox="0 0 1160.7 1040.3" style="enable-background:new 0 0 1160.7 1040.3;" xml:space="preserve">
<style type="text/css">
	.st0{fill:#9CCF89;stroke:#231F20;stroke-width:2.8346;stroke-miterlimit:10;}
	.st1{opacity:0.8;fill:#231F20;}
	.st2{font-family:'ArialMT';}
	.st3{font-size:36.8504px;}
	.st4{fill:none;stroke:#231F20;stroke-miterlimit:10;}
	.st5{fill:#E0E0E0;stroke:#231F20;stroke-miterlimit:10;}
	.st6{fill:#231F20;}
	.st7{font-size:28.3465px;}
	.st8{fill:#727373;fill-opacity:0.3;stroke:#231F20;stroke-miterlimit:10;}
	.st9{fill:#FFFFFF;}
	.st10{fill:#FFFFFF;stroke:#231F20;stroke-width:0.8504;stroke-miterlimit:10;}
	.st11{fill:#E59A2A;stroke:#000000;stroke-width:0.8504;stroke-miterlimit:10;}
	.st12{fill:#FFFFFF;stroke:#231F20;stroke-width:0.5669;stroke-miterlimit:10;}
	.st13{font-size:34.0158px;}
	.st14{fill:#2E9CA4;stroke:#000000;stroke-width:0.8504;stroke-miterlimit:10;}
	.st15{font-size:22.6772px;}
	.st16{fill:#9EF471;stroke:#0A0A0A;stroke-width:2.8346;stroke-miterlimit:10;}
	.st17{fill:#F27272;stroke:#000000;stroke-width:2.8346;stroke-miterlimit:10;}
	.st18{display:none;}
	.st19{display:inline;}
</style>
    <g id="Layer_10">
	<path class="st0" d="M288.9-92.4C123.8-139.8-53-278.7-34.8,410.2c2.1,77.6-202.2,263.7,139.4,336c47.6,10.1,148.6,33.9,217.1,2.9
		c170.2-77,127.4-271.2,221.2-269.7c153,2.4,510.8,190.3,608.1-55.8c52.2-132.1,95.4-497-24.1-482.3
		C1023.7-46.1,454-44.9,288.9-92.4z"/>
        <text transform="matrix(1 0 0 1 42.5196 74.143)" class="st1 st2 st3">Forest Area Terrain</text>
        <text transform="matrix(1 0 0 1 817.0466 897.4026)"><tspan x="0" y="0" class="st2 st3">Unit A has LOS to </tspan>
            <tspan x="0" y="44.2" class="st2 st3">Unit B and Unit C </tspan>
            <tspan x="0" y="88.4" class="st2 st3">but not Unit D</tspan></text>
</g>
    <g id="guides">
	<line class="st4" x1="605.2" y1="196.3" x2="442.1" y2="932.3"/>
        <line class="st4" x1="135.7" y1="465.4" x2="442.1" y2="932.3"/>
        <path class="st4" d="M46.5,599.3c44.8-53.3,100.6-97.9,164.9-129.9"/>
</g>
    <g id="Layer_9">
</g>
    <g id="Layer_1">
	<g>
		
			<rect x="228" y="656" transform="matrix(0.5486 0.8361 -0.8361 0.5486 701.5822 54.8658)" class="st5"
                  width="144" height="42.5"/>
        <g>
			<text transform="matrix(0.5487 0.836 -0.836 0.5487 283.6495 672.8948)" class="st6 st2 st7">2”</text>
		</g>
	</g>
        <g>
		<g>
			<rect x="-372.2" y="471.9" class="st8" width="144" height="42.5"/>
		</g>
            <g>
			<text transform="matrix(1 0 0 1 -312.8402 504.5296)" class="st6 st2 st7">2”</text>
		</g>
	</g>
        <g>
		<path class="st6" d="M442.1,932.3"/>
            <g>
			<g>
				<line class="st4" x1="376.9" y1="877.6" x2="46" y2="599.9"/>
                <line class="st4" x1="376.9" y1="877.6" x2="350.5" y2="879.9"/>
                <line class="st4" x1="376.9" y1="877.6" x2="374.6" y2="851.2"/>
                <line class="st4" x1="46" y1="599.9" x2="72.4" y2="597.6"/>
                <line class="st4" x1="46" y1="599.9" x2="48.3" y2="626.4"/>
			</g>
                <g>
				<g>
					<text transform="matrix(0.7661 0.6427 -0.6427 0.7661 202.573 721.4582)"
                          class="st6 st2 st7">6”</text>
				</g>
			</g>
		</g>
	</g>
        <g>
		<path class="st6" d="M442.1,932.3"/>
            <g>
			<g>
				<line class="st4" x1="500.7" y1="870.7" x2="798.5" y2="557.7"/>
                <line class="st4" x1="500.7" y1="870.7" x2="500.1" y2="844.2"/>
                <line class="st4" x1="500.7" y1="870.7" x2="527.2" y2="870"/>
                <line class="st4" x1="798.5" y1="557.7" x2="799.2" y2="584.3"/>
                <line class="st4" x1="798.5" y1="557.7" x2="772" y2="558.4"/>
			</g>
                <g>
				<g>
					<text transform="matrix(0.6894 -0.7244 0.7244 0.6894 636.6562 712.2256)"
                          class="st6 st2 st7">6”</text>
				</g>
			</g>
		</g>
	</g>
        <g>
		
			<rect x="466.3" y="383.1" transform="matrix(0.223 -0.9748 0.9748 0.223 24.0467 838.9705)" class="st5"
                  width="144" height="42.5"/>
            <g>
			<text transform="matrix(0.223 -0.9748 0.9748 0.223 546.5717 419.2453)" class="st6 st2 st7">2”</text>
		</g>
	</g>
        <line class="st4" x1="948.7" y1="399.1" x2="442.1" y2="932.3"/>
        <g>
		
			<rect x="780.5" y="449" transform="matrix(0.6941 -0.7199 0.7199 0.6941 -77.7253 757.5472)" class="st5"
                  width="144" height="42.5"/>
            <g>
			<text transform="matrix(0.6941 -0.7199 0.7199 0.6941 851.9122 487.2319)" class="st6 st2 st7">2”</text>
		</g>
	</g>
</g>
    <g id="Layer_8">
	<g>
		<g>
			<path class="st9"
                  d="M442.1,847.2c-47,0-85,38.1-85,85c0,47,38.1,85,85,85s85-38.1,85-85C527.1,885.3,489.1,847.2,442.1,847.2z"
            />
		</g>
        <g>
			<g>
				<g>
					<g>
						<rect x="440.2" y="847.8" class="st9" width="3.7" height="9.8"/>
                        <path class="st6" d="M443.5,848.2v9h-2.9v-9H443.5 M444.4,847.4h-0.9h-2.9h-0.9v0.9v9v0.9h0.9h2.9h0.9v-0.9v-9V847.4
							L444.4,847.4z"/>
					</g>
                    <path class="st10" d="M443.3,848.4v8.5h-2.4v-8.5H443.3 M443.8,848h-0.5h-2.4h-0.5v0.5v8.5v0.5h0.5h2.4h0.5v-0.5v-8.5V848
						L443.8,848z"/>
				</g>
                <path class="st10" d="M442.1,932.3"/>
			</g>
            <g>
				<g>
					<g>
						
							<rect x="509.1" y="967.2" transform="matrix(0.5 -0.866 0.866 0.5 -586.3228 928.5271)"
                                  class="st9" width="3.7" height="9.8"/>
                        <path class="st6" d="M507.9,968.6l7.8,4.5l-1.4,2.5l-7.8-4.5L507.9,968.6 M507.5,967.4l-0.4,0.7l-1.4,2.5l-0.4,0.7l0.7,0.4
							l7.8,4.5l0.7,0.4l0.4-0.7l1.4-2.5l0.4-0.7l-0.7-0.4l-7.8-4.5L507.5,967.4L507.5,967.4z"/>
					</g>
                    <path class="st10" d="M514.1,975.2l-7.3-4.2l1.2-2.1l7.3,4.2L514.1,975.2 M514.3,975.9l0.2-0.4l1.2-2.1l0.2-0.4l-0.4-0.2
						l-7.3-4.2l-0.4-0.2l-0.2,0.4l-1.2,2.1l-0.2,0.4l0.4,0.2l7.3,4.2L514.3,975.9L514.3,975.9z"/>
				</g>
                <path class="st10" d="M442.1,932.3"/>
			</g>
            <g>
				<g>
					<g>
						
							<rect x="368.3" y="970.2" transform="matrix(0.866 -0.5001 0.5001 0.866 -436.0772 316.8664)"
                                  class="st9" width="9.8" height="3.7"/>
                        <path class="st6" d="M376.3,968.6l1.4,2.5l-7.8,4.5l-1.4-2.5L376.3,968.6 M376.6,967.4l-0.7,0.4l-7.8,4.5l-0.7,0.4l0.4,0.7
							l1.4,2.5l0.4,0.7l0.7-0.4l7.8-4.5l0.7-0.4l-0.4-0.7l-1.4-2.5L376.6,967.4L376.6,967.4z"/>
					</g>
                    <path class="st10" d="M368.9,973.1l7.3-4.2l1.2,2.1l-7.3,4.2L368.9,973.1 M368.2,973l0.2,0.4l1.2,2.1l0.2,0.4l0.4-0.2l7.3-4.2
						l0.4-0.2l-0.2-0.4l-1.2-2.1l-0.2-0.4l-0.4,0.2l-7.3,4.2L368.2,973L368.2,973z"/>
				</g>
                <path class="st10" d="M442.1,932.3"/>
			</g>
            <g>
				<g>
					<g>
						<rect x="440.2" y="847.8" class="st9" width="3.7" height="9.8"/>
                        <path class="st6" d="M443.5,848.2v9h-2.9v-9H443.5 M444.4,847.4h-0.9h-2.9h-0.9v0.9v9v0.9h0.9h2.9h0.9v-0.9v-9V847.4
							L444.4,847.4z"/>
					</g>
                    <path class="st10" d="M443.3,848.4v8.5h-2.4v-8.5H443.3 M443.8,848h-0.5h-2.4h-0.5v0.5v8.5v0.5h0.5h2.4h0.5v-0.5v-8.5V848
						L443.8,848z"/>
				</g>
                <path class="st10" d="M442.1,932.3"/>
			</g>
		</g>
        <g>
			<path class="st11" d="M442.1,847.2c-47,0-85,38.1-85,85c0,47,38.1,85,85,85s85-38.1,85-85C527.1,885.3,489.1,847.2,442.1,847.2z
				 M442.1,1010c-42.9,0-77.7-34.8-77.7-77.7c0-42.9,34.8-77.7,77.7-77.7c42.9,0,77.7,34.8,77.7,77.7
				C519.8,975.2,485,1010,442.1,1010z"/>
		</g>
        <g>
			<g>
				<g>
					<rect x="440.7" y="848.2" class="st9" width="2.9" height="9"/>
                    <path class="st6" d="M443.3,848.4v8.5h-2.4v-8.5H443.3 M443.8,848h-0.5h-2.4h-0.5v0.5v8.5v0.5h0.5h2.4h0.5v-0.5v-8.5V848
						L443.8,848z"/>
				</g>
                <path class="st12" d="M442.1,932.3"/>
			</g>
            <g>
				<g>
					<rect x="509.6" y="967.6" transform="matrix(0.5 -0.866 0.866 0.5 -586.325 928.5864)" class="st9"
                          width="2.9" height="9"/>
                    <path class="st6" d="M514.1,975.2l-7.3-4.2l1.2-2.1l7.3,4.2L514.1,975.2 M514.3,975.9l0.2-0.4l1.2-2.1l0.2-0.4l-0.4-0.2
						l-7.3-4.2l-0.4-0.2l-0.2,0.4l-1.2,2.1l-0.2,0.4l0.4,0.2l7.3,4.2L514.3,975.9L514.3,975.9z"/>
				</g>
                <path class="st12" d="M442.1,932.3"/>
			</g>
            <g>
				<g>
					<rect x="368.7" y="970.6" transform="matrix(0.866 -0.5 0.5 0.866 -436.0377 316.8174)" class="st9"
                          width="9" height="2.9"/>
                    <path class="st6" d="M368.9,973.1l7.3-4.2l1.2,2.1l-7.3,4.2L368.9,973.1 M368.2,973l0.2,0.4l1.2,2.1l0.2,0.4l0.4-0.2l7.3-4.2
						l0.4-0.2l-0.2-0.4l-1.2-2.1l-0.2-0.4l-0.4,0.2l-7.3,4.2L368.2,973L368.2,973z"/>
				</g>
                <path class="st12" d="M442.1,932.3"/>
			</g>
            <g>
				<g>
					<rect x="440.7" y="848.2" class="st9" width="2.9" height="9"/>
                    <path class="st6" d="M443.3,848.4v8.5h-2.4v-8.5H443.3 M443.8,848h-0.5h-2.4h-0.5v0.5v8.5v0.5h0.5h2.4h0.5v-0.5v-8.5V848
						L443.8,848z"/>
				</g>
                <path class="st12" d="M442.1,932.3"/>
			</g>
		</g>
	</g>
        <text transform="matrix(1 0 0 1 394.8075 941.3453)" class="st6 st2 st13">Unit A</text>
        <g>
		<g>
			<path class="st9" d="M139.5,374.7c-54.8,0-99.2,44.4-99.2,99.2c0,54.8,44.4,99.2,99.2,99.2s99.2-44.4,99.2-99.2
				C238.8,419.1,194.3,374.7,139.5,374.7z"/>
            <g>
				<g>
					<rect x="134.1" y="375.7" class="st9" width="3.7" height="10.7"/>
                    <path class="st6" d="M137.3,376.1v9.9h-2.8v-9.9H137.3 M138.2,375.3h-0.9h-2.8h-0.9v0.9v9.9v0.9h0.9h2.8h0.9V386v-9.9V375.3
						L138.2,375.3z"/>
				</g>
                <g>
					
						<rect x="55.5" y="521.6" transform="matrix(0.866 -0.5 0.5 0.866 -253.5364 100.5408)" class="st9"
                              width="10.8" height="3.7"/>
                    <path class="st6" d="M64.4,519.7l1.4,2.4l-8.6,5l-1.4-2.4L64.4,519.7 M64.8,518.6L64,519l-8.6,5l-0.7,0.4l0.4,0.7l1.4,2.4
						l0.4,0.7l0.7-0.4l8.6-5l0.7-0.4l-0.4-0.7l-1.4-2.4L64.8,518.6L64.8,518.6z"/>
				</g>
                <g>
					
						<rect x="51.9" y="515.4" transform="matrix(0.866 -0.5001 0.5001 0.866 -250.9802 97.9735)"
                              class="st9" width="10.8" height="3.7"/>
                    <path class="st6" d="M60.9,513.6l1.4,2.4l-8.6,5l-1.4-2.4L60.9,513.6 M61.2,512.4l-0.7,0.4l-8.6,5l-0.7,0.4l0.4,0.7l1.4,2.4
						l0.4,0.7l0.7-0.4l8.6-5l0.7-0.4l-0.4-0.7l-1.4-2.4L61.2,512.4L61.2,512.4z"/>
				</g>
                <g>
					
						<rect x="219.9" y="511.9" transform="matrix(0.5 -0.866 0.866 0.5 -337.1204 450.5938)"
                              class="st9" width="3.7" height="10.8"/>
                    <path class="st6" d="M218.1,513.6l8.6,5l-1.4,2.4l-8.6-5L218.1,513.6 M217.8,512.4l-0.4,0.7l-1.4,2.4l-0.4,0.7l0.7,0.4l8.6,5
						l0.7,0.4l0.4-0.7l1.4-2.4l0.4-0.7l-0.7-0.4l-8.6-5L217.8,512.4L217.8,512.4z"/>
				</g>
                <g>
					<rect x="141.2" y="375.7" class="st9" width="3.7" height="10.7"/>
                    <path class="st6" d="M144.4,376.1v9.9h-2.8v-9.9H144.4 M145.3,375.3h-0.9h-2.8h-0.9v0.9v9.9v0.9h0.9h2.8h0.9V386v-9.9V375.3
						L145.3,375.3z"/>
				</g>
                <g>
					<rect x="216.3" y="518" transform="matrix(0.5 -0.866 0.866 0.5 -344.2202 450.5939)" class="st9"
                          width="3.7" height="10.8"/>
                    <path class="st6" d="M214.5,519.7l8.6,5l-1.4,2.4l-8.6-5L214.5,519.7 M214.2,518.6l-0.4,0.7l-1.4,2.4l-0.4,0.7l0.7,0.4l8.6,5
						l0.7,0.4l0.4-0.7l1.4-2.4l0.4-0.7l-0.7-0.4l-8.6-5L214.2,518.6L214.2,518.6z"/>
				</g>
			</g>
            <path class="st14" d="M139.5,374.7c-54.8,0-99.2,44.4-99.2,99.2c0,54.8,44.4,99.2,99.2,99.2s99.2-44.4,99.2-99.2
				C238.8,419.1,194.3,374.7,139.5,374.7z M139.5,564.6c-50.1,0-90.7-40.6-90.7-90.7s40.6-90.7,90.7-90.7
				c50.1,0,90.7,40.6,90.7,90.7C230.2,524,189.6,564.6,139.5,564.6z"/>
            <g>
				<g>
					<rect x="134.3" y="375.8" class="st9" width="3.4" height="10.5"/>
                    <path class="st6" d="M137.3,376.1v9.9h-2.8v-9.9H137.3 M137.9,375.5h-0.6h-2.8H134v0.6v9.9v0.6h0.6h2.8h0.6V386v-9.9V375.5
						L137.9,375.5z"/>
				</g>
                <g>
					
						<rect x="55.6" y="521.7" transform="matrix(0.8661 -0.4999 0.4999 0.8661 -253.5088 100.5202)"
                              class="st9" width="10.5" height="3.4"/>
                    <path class="st6" d="M64.4,519.7l1.4,2.4l-8.6,5l-1.4-2.4L64.4,519.7 M64.7,518.9l-0.5,0.3l-8.6,5l-0.5,0.3l0.3,0.5l1.4,2.4
						l0.3,0.5l0.5-0.3l8.6-5l0.5-0.3l-0.3-0.5l-1.4-2.4L64.7,518.9L64.7,518.9z"/>
				</g>
                <g>
					
						<rect x="52.1" y="515.6" transform="matrix(0.866 -0.5001 0.5001 0.866 -250.9976 97.9863)"
                              class="st9" width="10.5" height="3.4"/>
                    <path class="st6" d="M60.9,513.6l1.4,2.4l-8.6,5l-1.4-2.4L60.9,513.6 M61.1,512.8l-0.5,0.3l-8.6,5l-0.5,0.3l0.3,0.5l1.4,2.4
						l0.3,0.5l0.5-0.3l8.6-5l0.5-0.3l-0.3-0.5l-1.4-2.4L61.1,512.8L61.1,512.8z"/>
				</g>
                <g>
					<rect x="220" y="512" transform="matrix(0.5 -0.866 0.866 0.5 -337.1217 450.6045)" class="st9"
                          width="3.4" height="10.5"/>
                    <path class="st6" d="M218.1,513.6l8.6,5l-1.4,2.4l-8.6-5L218.1,513.6 M217.9,512.8l-0.3,0.5l-1.4,2.4l-0.3,0.5l0.5,0.3l8.6,5
						l0.5,0.3l0.3-0.5l1.4-2.4l0.3-0.5l-0.5-0.3l-8.6-5L217.9,512.8L217.9,512.8z"/>
				</g>
                <g>
					<rect x="141.4" y="375.8" class="st9" width="3.4" height="10.5"/>
                    <path class="st6" d="M144.4,376.1v9.9h-2.8v-9.9H144.4 M145,375.5h-0.6h-2.8h-0.6v0.6v9.9v0.6h0.6h2.8h0.6V386v-9.9V375.5
						L145,375.5z"/>
				</g>
                <g>
					
						<rect x="216.4" y="518.2" transform="matrix(0.5 -0.866 0.866 0.5 -344.2202 450.5938)"
                              class="st9" width="3.4" height="10.5"/>
                    <path class="st6" d="M214.5,519.7l8.6,5l-1.4,2.4l-8.6-5L214.5,519.7 M214.3,518.9l-0.3,0.5l-1.4,2.4l-0.3,0.5l0.5,0.3l8.6,5
						l0.5,0.3l0.3-0.5l1.4-2.4l0.3-0.5l-0.5-0.3l-8.6-5L214.3,518.9L214.3,518.9z"/>
				</g>
			</g>
		</g>
            <text transform="matrix(1 0 0 1 93.2274 482.9832)" class="st6 st2 st13">Unit B</text>
	</g>
        <g>
		<g>
			<g>
				<path class="st9" d="M1009.2,253.5c-47,0-85,38.1-85,85c0,47,38.1,85,85,85s85-38.1,85-85
					C1094.2,291.6,1056.2,253.5,1009.2,253.5z"/>
			</g>
            <g>
				<g>
					<g>
						<g>
							<rect x="1007.3" y="254" class="st9" width="3.7" height="9.8"/>
                            <path class="st6" d="M1010.6,254.5v9h-2.9v-9H1010.6 M1011.5,253.6h-0.9h-2.9h-0.9v0.9v9v0.9h0.9h2.9h0.9v-0.9v-9V253.6
								L1011.5,253.6z"/>
						</g>
                        <path class="st10" d="M1010.4,254.7v8.5h-2.4v-8.5H1010.4 M1010.9,254.2h-0.5h-2.4h-0.5v0.5v8.5v0.5h0.5h2.4h0.5v-0.5v-8.5
							V254.2L1010.9,254.2z"/>
					</g>
                    <path class="st10" d="M1009.2,338.5"/>
				</g>
                <g>
					<g>
						<g>
							
								<rect x="1076.3" y="373.4"
                                      transform="matrix(0.5002 -0.8659 0.8659 0.5002 211.2087 1122.6039)" class="st9"
                                      width="3.7" height="9.8"/>
                            <path class="st6" d="M1075,374.8l7.8,4.5l-1.4,2.5l-7.8-4.5L1075,374.8 M1074.6,373.7l-0.4,0.7l-1.4,2.5l-0.4,0.7l0.7,0.4
								l7.8,4.5l0.7,0.4l0.4-0.7l1.4-2.5l0.4-0.7l-0.7-0.4l-7.8-4.5L1074.6,373.7L1074.6,373.7z"/>
						</g>
                        <path class="st10" d="M1081.2,381.5l-7.3-4.2l1.2-2.1l7.3,4.2L1081.2,381.5 M1081.4,382.2l0.2-0.4l1.2-2.1l0.2-0.4l-0.4-0.2
							l-7.3-4.2l-0.4-0.2l-0.2,0.4l-1.2,2.1l-0.2,0.4l0.4,0.2l7.3,4.2L1081.4,382.2L1081.4,382.2z"/>
					</g>
                    <path class="st10" d="M1009.2,338.5"/>
				</g>
                <g>
					<g>
						<g>
							
								<rect x="935.4" y="376.5" transform="matrix(0.866 -0.5 0.5 0.866 -63.1901 520.8423)"
                                      class="st9" width="9.8" height="3.7"/>
                            <path class="st6" d="M943.4,374.8l1.4,2.5l-7.8,4.5l-1.4-2.5L943.4,374.8 M943.8,373.7l-0.7,0.4l-7.8,4.5l-0.7,0.4l0.4,0.7
								l1.4,2.5l0.4,0.7l0.7-0.4l7.8-4.5l0.7-0.4l-0.4-0.7l-1.4-2.5L943.8,373.7L943.8,373.7z"/>
						</g>
                        <path class="st10" d="M936,379.4l7.3-4.2l1.2,2.1l-7.3,4.2L936,379.4 M935.3,379.2l0.2,0.4l1.2,2.1l0.2,0.4l0.4-0.2l7.3-4.2
							l0.4-0.2L945,377l-1.2-2.1l-0.2-0.4l-0.4,0.2l-7.3,4.2L935.3,379.2L935.3,379.2z"/>
					</g>
                    <path class="st10" d="M1009.2,338.5"/>
				</g>
                <g>
					<g>
						<g>
							<rect x="1007.3" y="254" class="st9" width="3.7" height="9.8"/>
                            <path class="st6" d="M1010.6,254.5v9h-2.9v-9H1010.6 M1011.5,253.6h-0.9h-2.9h-0.9v0.9v9v0.9h0.9h2.9h0.9v-0.9v-9V253.6
								L1011.5,253.6z"/>
						</g>
                        <path class="st10" d="M1010.4,254.7v8.5h-2.4v-8.5H1010.4 M1010.9,254.2h-0.5h-2.4h-0.5v0.5v8.5v0.5h0.5h2.4h0.5v-0.5v-8.5
							V254.2L1010.9,254.2z"/>
					</g>
                    <path class="st10" d="M1009.2,338.5"/>
				</g>
			</g>
            <g>
				<path class="st14" d="M1009.2,253.5c-47,0-85,38.1-85,85c0,47,38.1,85,85,85s85-38.1,85-85
					C1094.2,291.6,1056.2,253.5,1009.2,253.5z M1009.2,416.3c-42.9,0-77.7-34.8-77.7-77.7s34.8-77.7,77.7-77.7s77.7,34.8,77.7,77.7
					C1086.9,381.5,1052.1,416.3,1009.2,416.3z"/>
			</g>
            <g>
				<g>
					<g>
						<rect x="1007.8" y="254.5" class="st9" width="2.9" height="9"/>
                        <path class="st6" d="M1010.4,254.7v8.5h-2.4v-8.5H1010.4 M1010.9,254.2h-0.5h-2.4h-0.5v0.5v8.5v0.5h0.5h2.4h0.5v-0.5v-8.5
							V254.2L1010.9,254.2z"/>
					</g>
                    <path class="st12" d="M1009.2,338.5"/>
				</g>
                <g>
					<g>
						
							<rect x="1076.7" y="373.8" transform="matrix(0.5 -0.866 0.866 0.5 211.4174 1122.8469)"
                                  class="st9" width="2.9" height="9"/>
                        <path class="st6" d="M1081.2,381.5l-7.3-4.2l1.2-2.1l7.3,4.2L1081.2,381.5 M1081.4,382.2l0.2-0.4l1.2-2.1l0.2-0.4l-0.4-0.2
							l-7.3-4.2l-0.4-0.2l-0.2,0.4l-1.2,2.1l-0.2,0.4l0.4,0.2l7.3,4.2L1081.4,382.2L1081.4,382.2z"/>
					</g>
                    <path class="st12" d="M1009.2,338.5"/>
				</g>
                <g>
					<g>
						<rect x="935.8" y="376.9" transform="matrix(0.866 -0.5 0.5 0.866 -63.1925 520.825)" class="st9"
                              width="9" height="2.9"/>
                        <path class="st6" d="M936,379.4l7.3-4.2l1.2,2.1l-7.3,4.2L936,379.4 M935.3,379.2l0.2,0.4l1.2,2.1l0.2,0.4l0.4-0.2l7.3-4.2
							l0.4-0.2L945,377l-1.2-2.1l-0.2-0.4l-0.4,0.2l-7.3,4.2L935.3,379.2L935.3,379.2z"/>
					</g>
                    <path class="st12" d="M1009.2,338.5"/>
				</g>
                <g>
					<g>
						<rect x="1007.8" y="254.5" class="st9" width="2.9" height="9"/>
                        <path class="st6" d="M1010.4,254.7v8.5h-2.4v-8.5H1010.4 M1010.9,254.2h-0.5h-2.4h-0.5v0.5v8.5v0.5h0.5h2.4h0.5v-0.5v-8.5
							V254.2L1010.9,254.2z"/>
					</g>
                    <path class="st12" d="M1009.2,338.5"/>
				</g>
			</g>
		</g>
            <text transform="matrix(1 0 0 1 961.9457 347.6107)" class="st6 st2 st13">Unit D</text>
	</g>
        <g>
		<g>
			<g>
				<path class="st9"
                      d="M591.3,169.8c-47,0-85,38.1-85,85c0,47,38.1,85,85,85s85-38.1,85-85C676.3,207.9,638.2,169.8,591.3,169.8z"
                />
			</g>
            <g>
				<g>
					<g>
						<g>
							<rect x="589.4" y="170.3" class="st9" width="3.7" height="9.8"/>
                            <path class="st6" d="M592.7,170.8v9h-2.9v-9H592.7 M593.6,169.9h-0.9h-2.9H589v0.9v9v0.9h0.9h2.9h0.9v-0.9v-9V169.9
								L593.6,169.9z"/>
						</g>
                        <path class="st10" d="M592.5,171v8.5h-2.4V171H592.5 M592.9,170.5h-0.5h-2.4h-0.5v0.5v8.5v0.5h0.5h2.4h0.5v-0.5V171V170.5
							L592.9,170.5z"/>
					</g>
                    <path class="st10" d="M591.3,254.8"/>
				</g>
                <g>
					<g>
						<g>
							
								<rect x="658.3" y="289.7"
                                      transform="matrix(0.5002 -0.8659 0.8659 0.5002 74.817 718.887)" class="st9"
                                      width="3.7" height="9.8"/>
                            <path class="st6" d="M657,291.1l7.8,4.5l-1.4,2.5l-7.8-4.5L657,291.1 M656.7,290l-0.4,0.7l-1.4,2.5l-0.4,0.7l0.7,0.4l7.8,4.5
								l0.7,0.4l0.4-0.7l1.4-2.5l0.4-0.7l-0.7-0.4l-7.8-4.5L656.7,290L656.7,290z"/>
						</g>
                        <path class="st10" d="M663.3,297.8l-7.3-4.2l1.2-2.1l7.3,4.2L663.3,297.8 M663.4,298.5l0.2-0.4l1.2-2.1l0.2-0.4l-0.4-0.2
							l-7.3-4.2l-0.4-0.2l-0.2,0.4l-1.2,2.1l-0.2,0.4l0.4,0.2l7.3,4.2L663.4,298.5L663.4,298.5z"/>
					</g>
                    <path class="st10" d="M591.3,254.8"/>
				</g>
                <g>
					<g>
						<g>
							
								<rect x="517.4" y="292.8" transform="matrix(0.866 -0.5 0.5 0.866 -77.3348 300.6523)"
                                      class="st9" width="9.8" height="3.7"/>
                            <path class="st6" d="M525.5,291.1l1.4,2.5l-7.8,4.5l-1.4-2.5L525.5,291.1 M525.8,290l-0.7,0.4l-7.8,4.5l-0.7,0.4l0.4,0.7
								l1.4,2.5l0.4,0.7l0.7-0.4l7.8-4.5l0.7-0.4l-0.4-0.7l-1.4-2.5L525.8,290L525.8,290z"/>
						</g>
                        <path class="st10" d="M518.1,295.7l7.3-4.2l1.2,2.1l-7.3,4.2L518.1,295.7 M517.4,295.5l0.2,0.4l1.2,2.1l0.2,0.4l0.4-0.2
							l7.3-4.2l0.4-0.2l-0.2-0.4l-1.2-2.1l-0.2-0.4l-0.4,0.2l-7.3,4.2L517.4,295.5L517.4,295.5z"/>
					</g>
                    <path class="st10" d="M591.3,254.8"/>
				</g>
                <g>
					<g>
						<g>
							<rect x="589.4" y="170.3" class="st9" width="3.7" height="9.8"/>
                            <path class="st6" d="M592.7,170.8v9h-2.9v-9H592.7 M593.6,169.9h-0.9h-2.9H589v0.9v9v0.9h0.9h2.9h0.9v-0.9v-9V169.9
								L593.6,169.9z"/>
						</g>
                        <path class="st10" d="M592.5,171v8.5h-2.4V171H592.5 M592.9,170.5h-0.5h-2.4h-0.5v0.5v8.5v0.5h0.5h2.4h0.5v-0.5V171V170.5
							L592.9,170.5z"/>
					</g>
                    <path class="st10" d="M591.3,254.8"/>
				</g>
			</g>
            <g>
				<path class="st14" d="M591.3,169.8c-47,0-85,38.1-85,85c0,47,38.1,85,85,85s85-38.1,85-85C676.3,207.9,638.2,169.8,591.3,169.8z
					 M591.3,332.6c-42.9,0-77.7-34.8-77.7-77.7s34.8-77.7,77.7-77.7s77.7,34.8,77.7,77.7C669,297.8,634.2,332.6,591.3,332.6z"/>
			</g>
            <g>
				<g>
					<g>
						<rect x="589.8" y="170.8" class="st9" width="2.9" height="9"/>
                        <path class="st6" d="M592.5,171v8.5h-2.4V171H592.5 M592.9,170.5h-0.5h-2.4h-0.5v0.5v8.5v0.5h0.5h2.4h0.5v-0.5V171V170.5
							L592.9,170.5z"/>
					</g>
                    <path class="st12" d="M591.3,254.8"/>
				</g>
                <g>
					<g>
						<rect x="658.7" y="290.1" transform="matrix(0.5 -0.866 0.866 0.5 74.9359 719.0511)" class="st9"
                              width="2.9" height="9"/>
                        <path class="st6" d="M663.3,297.8l-7.3-4.2l1.2-2.1l7.3,4.2L663.3,297.8 M663.4,298.5l0.2-0.4l1.2-2.1l0.2-0.4l-0.4-0.2
							l-7.3-4.2l-0.4-0.2l-0.2,0.4l-1.2,2.1l-0.2,0.4l0.4,0.2l7.3,4.2L663.4,298.5L663.4,298.5z"/>
					</g>
                    <path class="st12" d="M591.3,254.8"/>
				</g>
                <g>
					<g>
						<rect x="517.9" y="293.2" transform="matrix(0.866 -0.5 0.5 0.866 -77.3349 300.642)" class="st9"
                              width="9" height="2.9"/>
                        <path class="st6" d="M518.1,295.7l7.3-4.2l1.2,2.1l-7.3,4.2L518.1,295.7 M517.4,295.5l0.2,0.4l1.2,2.1l0.2,0.4l0.4-0.2
							l7.3-4.2l0.4-0.2l-0.2-0.4l-1.2-2.1l-0.2-0.4l-0.4,0.2l-7.3,4.2L517.4,295.5L517.4,295.5z"/>
					</g>
                    <path class="st12" d="M591.3,254.8"/>
				</g>
                <g>
					<g>
						<rect x="589.8" y="170.8" class="st9" width="2.9" height="9"/>
                        <path class="st6" d="M592.5,171v8.5h-2.4V171H592.5 M592.9,170.5h-0.5h-2.4h-0.5v0.5v8.5v0.5h0.5h2.4h0.5v-0.5V171V170.5
							L592.9,170.5z"/>
					</g>
                    <path class="st12" d="M591.3,254.8"/>
				</g>
			</g>
		</g>
            <text transform="matrix(1 0 0 1 544.0076 263.9093)" class="st6 st2 st13">Unit C</text>
	</g>
</g>
    <g id="Layer_7">
	<text transform="matrix(1 0 0 1 230.2422 287.3339)"><tspan x="0" y="0" class="st6 st2 st7">Within 6” </tspan>
        <tspan x="0" y="27.2" class="st6 st2 st15">(even though more </tspan>
        <tspan x="0" y="54.4" class="st6 st2 st15">than 2” from edge)</tspan></text>
        <text transform="matrix(1 0 0 1 690.4734 89.4966)"><tspan x="0" y="0" class="st6 st2 st7">Within 2” of Edge </tspan>
            <tspan x="0" y="27.2" class="st6 st2 st15">(even though not within 6”)</tspan></text>
        <g>
		<polygon class="st16" points="134,349.7 91.7,307.4 113.7,285.4 134,305.6 192.1,247.4 214.2,269.5 		"/>
	</g>
        <g>
		<polygon class="st16" points="591,142 548.7,99.8 570.8,77.7 591,98 649.2,39.8 671.2,61.8 		"/>
	</g>
        <polygon class="st17" points="1053.1,172.7 1031.1,150.7 1007.5,174.3 983.9,150.7 961.9,172.7 985.5,196.3 961.9,219.9
		983.9,241.9 1007.5,218.4 1031.1,241.9 1053.1,219.9 1029.6,196.3 	"/>
</g>
    <g id="Layer_11" class="st18">
	<g class="st19">
		<g>
			
				<rect x="148.3" y="668.8" transform="matrix(0.3549 0.9349 -0.9349 0.3549 856.9363 138.2351)" class="st8"
                      width="360" height="42.5"/>
		</g>
        <g>
			<text transform="matrix(0.355 0.9349 -0.9349 0.355 313.192 682.3889)" class="st6 st2 st7">5”</text>
		</g>
	</g>
        <g class="st19">
		<g>
			
				<rect x="410.2" y="652.5" transform="matrix(0.6957 -0.7183 0.7183 0.6957 -282.4862 680.7448)"
                      class="st8" width="504" height="42.5"/>
		</g>
            <g>
			<text transform="matrix(0.6957 -0.7183 0.7183 0.6957 661.6599 690.7373)" class="st6 st2 st7">7”</text>
		</g>
	</g>
        <g class="st19">
		<path class="st6" d="M442.1,932.3"/>
            <g>
			<g>
				<line class="st4" x1="501.4" y1="871.3" x2="802.7" y2="561.7"/>
                <line class="st4" x1="501.4" y1="871.3" x2="501" y2="844.8"/>
                <line class="st4" x1="501.4" y1="871.3" x2="527.9" y2="871"/>
                <line class="st4" x1="802.7" y1="561.7" x2="803.1" y2="588.3"/>
                <line class="st4" x1="776.2" y1="562.1" x2="802.7" y2="561.7"/>
			</g>
                <g>
				<g>
					<text transform="matrix(0.6975 -0.7166 0.7166 0.6975 668.5941 742.8538)"
                          class="st6 st2 st7">6”</text>
				</g>
			</g>
		</g>
	</g>
</g>
    <g id="Layer_5">
	<text transform="matrix(1 0 0 1 458.3767 1634.6543)" class="st6 st2 st7">Forest Area Terrain</text>
</g>
    <g id="Layer_6">
</g>
</svg>
