<?xml version="1.0" encoding="utf-8"?>
<!-- Generator: Adobe Illustrator 27.5.0, SVG Export Plug-In . SVG Version: 6.00 Build 0)  -->
<svg version="1.1" xmlns="http://www.w3.org/2000/svg" x="0px" y="0px"
	 viewBox="0 0 919.9 728.7" style="enable-background:new 0 0 919.9 728.7;" xml:space="preserve">
<style type="text/css">
	.st0{fill:#FFFFFF;}
	.st1{fill:#2EDAFF;stroke:#003665;stroke-miterlimit:10;}
	.st2{fill:#FFFFFF;stroke:#000000;stroke-width:0.8504;stroke-miterlimit:10;}
	.st3{fill:#E69B2B;stroke:#000000;stroke-width:0.8504;stroke-miterlimit:10;}
	.st4{enable-background:new    ;}
	.st5{font-family:'ArialMT';}
	.st6{font-size:25.5118px;}
	.st7{font-family:'Arial-ItalicMT';}
	.st8{fill:none;stroke:#231F20;stroke-miterlimit:10;}
	.st9{fill:#9EF471;stroke:#0A0A0A;stroke-width:2.8346;stroke-miterlimit:10;}
	.st10{fill:#F27272;stroke:#000000;stroke-width:2.8346;stroke-miterlimit:10;}
</style>
	<g id="Layer_2">
	<rect class="st0" width="919.9" height="728.7"/>
</g>
	<g id="Layer_1">
	<polygon class="st1"
			 points="506.8,596.2 485.4,574.8 485.4,585.8 220.8,585.8 220.8,608.6 485.4,608.6 485.4,617.7 	"/>
		<polygon class="st1"
				 points="437,396.9 415.5,375.5 415.5,386.5 220.8,386.5 220.8,409.4 415.5,409.4 415.5,418.4 	"/>
		<polygon class="st1"
				 points="257,197.7 235.5,176.2 235.5,187.3 220.8,187.3 220.8,210.1 235.5,210.1 235.5,219.1 	"/>
		<g id="Layer_8_00000124853913451119550500000016742983203407585696_">
		<path class="st0" d="M220.8,596.2c0-47-38.1-85-85-85c-47,0-85,38.1-85,85c0,46.9,38.1,85,85,85
			C182.8,681.3,220.8,643.2,220.8,596.2L220.8,596.2z"/>
			<path class="st0" d="M220.3,594.4v3.7h-9.8v-3.7H220.3z"/>
			<path d="M219.9,597.7h-9v-2.9h9V597.7 M220.7,598.5v-4.7h-10.8v4.7H220.7z"/>
			<path class="st2" d="M219.6,597.4h-8.5V595h8.5V597.4 M220.1,597.9v-3.4h-9.5v3.4H220.1z"/>
			<path class="st0" d="M96.9,660l3.2,1.9l-4.9,8.5l-3.2-1.9L96.9,660z"/>
			<path d="M99.5,662l-4.5,7.8l-2.5-1.4l4.5-7.8L99.5,662 M100.7,661.7l-0.7-0.4l-2.5-1.4l-0.7-0.4l-0.4,0.7l-4.5,7.8l-0.4,0.7
			l0.7,0.4l2.5,1.4l0.7,0.4l0.4-0.7l4.5-7.8L100.7,661.7z"/>
			<path class="st2" d="M92.8,668.2l4.2-7.3l2.1,1.2l-4.2,7.3L92.8,668.2 M92.2,668.4l0.4,0.2l2.1,1.2l0.4,0.2l0.2-0.4l4.2-7.3
			l0.2-0.4l-0.4-0.2l-2.1-1.2l-0.4-0.2l-0.2,0.4l-4.2,7.3L92.2,668.4z"/>
			<path class="st0" d="M95.2,522.1l4.9,8.5l-3.2,1.9L92,524L95.2,522.1z"/>
			<path d="M99.5,530.5l-2.5,1.4l-4.5-7.8l2.5-1.4L99.5,530.5 M100.7,530.8l-0.4-0.7l-4.5-7.8l-0.4-0.7l-0.7,0.4l-2.5,1.4l-0.7,0.4
			l0.4,0.7l4.5,7.8l0.4,0.7l0.7-0.4l2.5-1.4L100.7,530.8z"/>
			<path class="st2" d="M94.9,523l4.2,7.3l-2.1,1.2l-4.2-7.3L94.9,523 M95.1,522.4l-0.4,0.2l-2.1,1.2l-0.4,0.2l0.2,0.4l4.2,7.3
			l0.2,0.4l0.4-0.2l2.1-1.2l0.4-0.2l-0.2-0.4l-4.2-7.3L95.1,522.4z"/>
			<path class="st0" d="M220.3,594.4v3.7h-9.8v-3.7H220.3z"/>
			<path d="M219.9,597.7h-9v-2.9h9V597.7 M220.7,598.5v-4.7h-10.8v4.7H220.7z"/>
			<path class="st2" d="M219.6,597.4h-8.5V595h8.5V597.4 M220.1,597.9v-3.4h-9.5v3.4H220.1z"/>
			<path class="st3" d="M220.8,596.2c0-47-38.1-85-85-85c-47,0-85,38.1-85,85c0,46.9,38.1,85,85,85
			C182.8,681.3,220.8,643.2,220.8,596.2L220.8,596.2z M58,596.2c0-42.9,34.8-77.7,77.7-77.7s77.7,34.8,77.7,77.7
			c0,42.9-34.8,77.7-77.7,77.7C92.8,674,58,639.2,58,596.2z"/>
			<path class="st0" d="M219.9,594.8v2.9h-9v-2.9H219.9z"/>
			<path d="M219.6,597.4h-8.5V595h8.5V597.4 M220.1,597.9v-3.4h-9.5v3.4H220.1z"/>
			<path class="st0" d="M97,660.5l2.5,1.5l-4.5,7.8l-2.5-1.5L97,660.5z"/>
			<path d="M92.8,668.2l4.2-7.3l2.1,1.2l-4.2,7.3L92.8,668.2 M92.2,668.4l0.4,0.2l2.1,1.2l0.4,0.2l0.2-0.4l4.2-7.3l0.2-0.4l-0.4-0.2
			l-2.1-1.2l-0.4-0.2l-0.2,0.4l-4.2,7.3L92.2,668.4z"/>
			<path class="st0" d="M95,522.7l4.5,7.8l-2.5,1.4l-4.5-7.8L95,522.7z"/>
			<path d="M94.9,523l4.2,7.3l-2.1,1.2l-4.2-7.3L94.9,523 M95.1,522.4l-0.4,0.2l-2.1,1.2l-0.4,0.2l0.2,0.4l4.2,7.3l0.2,0.4l0.4-0.2
			l2.1-1.2l0.4-0.2l-0.2-0.4l-4.2-7.3L95.1,522.4z"/>
			<path class="st0" d="M219.9,594.8v2.9h-9v-2.9H219.9z"/>
			<path d="M219.6,597.4h-8.5V595h8.5V597.4 M220.1,597.9v-3.4h-9.5v3.4H220.1z"/>
	</g>
		<g id="Layer_8_00000044872235746828299530000007469143872960233914_">
		<path class="st0" d="M676.8,596.2c0-47-38.1-85-85-85c-47,0-85,38.1-85,85c0,46.9,38.1,85,85,85
			C638.8,681.3,676.8,643.2,676.8,596.2L676.8,596.2z"/>
			<path class="st0" d="M676.3,594.4v3.7h-9.8v-3.7H676.3z"/>
			<path d="M675.9,597.7h-9v-2.9h9V597.7 M676.7,598.5v-4.7h-10.8v4.7H676.7z"/>
			<path class="st2" d="M675.6,597.4h-8.5V595h8.5V597.4 M676.1,597.9v-3.4h-9.5v3.4H676.1z"/>
			<path class="st0" d="M552.9,660l3.2,1.9l-4.9,8.5l-3.2-1.9L552.9,660z"/>
			<path d="M555.5,662l-4.5,7.8l-2.5-1.4l4.5-7.8L555.5,662 M556.7,661.7l-0.7-0.4l-2.5-1.4l-0.7-0.4l-0.4,0.7l-4.5,7.8l-0.4,0.7
			l0.7,0.4l2.5,1.4l0.7,0.4l0.4-0.7l4.5-7.8L556.7,661.7z"/>
			<path class="st2" d="M548.8,668.2l4.2-7.3l2.1,1.2l-4.2,7.3L548.8,668.2 M548.2,668.4l0.4,0.2l2.1,1.2l0.4,0.2l0.2-0.4l4.2-7.3
			l0.2-0.4l-0.4-0.2l-2.1-1.2l-0.4-0.2l-0.2,0.4l-4.2,7.3L548.2,668.4z"/>
			<path class="st0" d="M551.2,522.1l4.9,8.5l-3.2,1.9L548,524L551.2,522.1z"/>
			<path d="M555.5,530.5l-2.5,1.4l-4.5-7.8l2.5-1.4L555.5,530.5 M556.7,530.8l-0.4-0.7l-4.5-7.8l-0.4-0.7l-0.7,0.4l-2.5,1.4l-0.7,0.4
			l0.4,0.7l4.5,7.8l0.4,0.7l0.7-0.4l2.5-1.4L556.7,530.8z"/>
			<path class="st2" d="M550.9,523l4.2,7.3l-2.1,1.2l-4.2-7.3L550.9,523 M551.1,522.4l-0.4,0.2l-2.1,1.2l-0.4,0.2l0.2,0.4l4.2,7.3
			l0.2,0.4l0.4-0.2l2.1-1.2l0.4-0.2l-0.2-0.4l-4.2-7.3L551.1,522.4z"/>
			<path class="st0" d="M676.3,594.4v3.7h-9.8v-3.7H676.3z"/>
			<path d="M675.9,597.7h-9v-2.9h9V597.7 M676.7,598.5v-4.7h-10.8v4.7H676.7z"/>
			<path class="st2" d="M675.6,597.4h-8.5V595h8.5V597.4 M676.1,597.9v-3.4h-9.5v3.4H676.1z"/>
			<path class="st3" d="M676.8,596.2c0-47-38.1-85-85-85c-47,0-85,38.1-85,85c0,46.9,38.1,85,85,85
			C638.8,681.3,676.8,643.2,676.8,596.2L676.8,596.2z M514,596.2c0-42.9,34.8-77.7,77.7-77.7s77.7,34.8,77.7,77.7
			c0,42.9-34.8,77.7-77.7,77.7C548.8,674,514,639.2,514,596.2z"/>
			<path class="st0" d="M675.9,594.8v2.9h-9v-2.9H675.9z"/>
			<path d="M675.6,597.4h-8.5V595h8.5V597.4 M676.1,597.9v-3.4h-9.5v3.4H676.1z"/>
			<path class="st0" d="M553,660.5l2.5,1.5l-4.5,7.8l-2.5-1.5L553,660.5z"/>
			<path d="M548.8,668.2l4.2-7.3l2.1,1.2l-4.2,7.3L548.8,668.2 M548.2,668.4l0.4,0.2l2.1,1.2l0.4,0.2l0.2-0.4l4.2-7.3l0.2-0.4
			l-0.4-0.2l-2.1-1.2l-0.4-0.2l-0.2,0.4l-4.2,7.3L548.2,668.4z"/>
			<path class="st0" d="M551,522.7l4.5,7.8l-2.5,1.4l-4.5-7.8L551,522.7z"/>
			<path d="M550.9,523l4.2,7.3l-2.1,1.2l-4.2-7.3L550.9,523 M551.1,522.4l-0.4,0.2l-2.1,1.2l-0.4,0.2l0.2,0.4l4.2,7.3l0.2,0.4
			l0.4-0.2l2.1-1.2l0.4-0.2l-0.2-0.4l-4.2-7.3L551.1,522.4z"/>
			<path class="st0" d="M675.9,594.8v2.9h-9v-2.9H675.9z"/>
			<path d="M675.6,597.4h-8.5V595h8.5V597.4 M676.1,597.9v-3.4h-9.5v3.4H676.1z"/>
	</g>
		<g id="Layer_4">
		<text transform="matrix(1 0 0 1 506.8237 58.2481)" class="st4"><tspan x="0" y="0" class="st5 st6">Example of </tspan>
			<tspan x="134.7" y="0" class="st7 st6">Place within 3”</tspan>
			<tspan x="300.6" y="0" class="st5 st6"> Ability</tspan></text>
	</g>
		<g id="Layer_8">
		<path class="st0" d="M220.8,396.9c0-47-38.1-85-85-85c-47,0-85,38.1-85,85s38.1,85,85,85C182.8,482,220.8,443.9,220.8,396.9
			L220.8,396.9z"/>
			<path class="st0" d="M220.3,395.1v3.7h-9.8v-3.7H220.3z"/>
			<path d="M219.9,398.4h-9v-2.9h9V398.4 M220.7,399.2v-4.7h-10.8v4.7H220.7z"/>
			<path class="st2" d="M219.6,398.1h-8.5v-2.4h8.5V398.1 M220.1,398.6v-3.4h-9.5v3.4H220.1z"/>
			<path class="st0" d="M96.9,460.7l3.2,1.9l-4.9,8.5l-3.2-1.9L96.9,460.7z"/>
			<path d="M99.5,462.7l-4.5,7.8l-2.5-1.4l4.5-7.8L99.5,462.7 M100.7,462.4L100,462l-2.5-1.4l-0.7-0.4l-0.4,0.7l-4.5,7.8l-0.4,0.7
			l0.7,0.4l2.5,1.4l0.7,0.4l0.4-0.7l4.5-7.8L100.7,462.4z"/>
			<path class="st2" d="M92.8,468.9l4.2-7.3l2.1,1.2l-4.2,7.3L92.8,468.9 M92.2,469.1l0.4,0.2l2.1,1.2l0.4,0.2l0.2-0.4l4.2-7.3
			l0.2-0.4l-0.4-0.2l-2.1-1.2l-0.4-0.2l-0.2,0.4l-4.2,7.3L92.2,469.1z"/>
			<path class="st0" d="M95.2,322.8l4.9,8.5l-3.2,1.9l-4.9-8.5L95.2,322.8z"/>
			<path d="M99.5,331.2l-2.5,1.4l-4.5-7.8l2.5-1.4L99.5,331.2 M100.7,331.5l-0.4-0.7l-4.5-7.8l-0.4-0.7l-0.7,0.4l-2.5,1.4l-0.7,0.4
			l0.4,0.7l4.5,7.8l0.4,0.7l0.7-0.4l2.5-1.4L100.7,331.5z"/>
			<path class="st2" d="M94.9,323.7l4.2,7.3l-2.1,1.2l-4.2-7.3L94.9,323.7 M95.1,323.1l-0.4,0.2l-2.1,1.2l-0.4,0.2l0.2,0.4l4.2,7.3
			l0.2,0.4l0.4-0.2l2.1-1.2l0.4-0.2l-0.2-0.4l-4.2-7.3L95.1,323.1z"/>
			<path class="st0" d="M220.3,395.1v3.7h-9.8v-3.7H220.3z"/>
			<path d="M219.9,398.4h-9v-2.9h9V398.4 M220.7,399.2v-4.7h-10.8v4.7H220.7z"/>
			<path class="st2" d="M219.6,398.1h-8.5v-2.4h8.5V398.1 M220.1,398.6v-3.4h-9.5v3.4H220.1z"/>
			<path class="st3" d="M220.8,396.9c0-47-38.1-85-85-85c-47,0-85,38.1-85,85s38.1,85,85,85C182.8,482,220.8,443.9,220.8,396.9
			L220.8,396.9z M58,396.9c0-42.9,34.8-77.7,77.7-77.7s77.7,34.8,77.7,77.7s-34.8,77.7-77.7,77.7C92.8,474.7,58,439.9,58,396.9z"/>
			<path class="st0" d="M219.9,395.5v2.9h-9v-2.9H219.9z"/>
			<path d="M219.6,398.1h-8.5v-2.4h8.5V398.1 M220.1,398.6v-3.4h-9.5v3.4H220.1z"/>
			<path class="st0" d="M97,461.2l2.5,1.5l-4.5,7.8l-2.5-1.5L97,461.2z"/>
			<path d="M92.8,468.9l4.2-7.3l2.1,1.2l-4.2,7.3L92.8,468.9 M92.2,469.1l0.4,0.2l2.1,1.2l0.4,0.2l0.2-0.4l4.2-7.3l0.2-0.4l-0.4-0.2
			l-2.1-1.2l-0.4-0.2l-0.2,0.4l-4.2,7.3L92.2,469.1z"/>
			<path class="st0" d="M95,323.4l4.5,7.8l-2.5,1.4l-4.5-7.8L95,323.4z"/>
			<path d="M94.9,323.7l4.2,7.3l-2.1,1.2l-4.2-7.3L94.9,323.7 M95.1,323.1l-0.4,0.2l-2.1,1.2l-0.4,0.2l0.2,0.4l4.2,7.3l0.2,0.4
			l0.4-0.2l2.1-1.2l0.4-0.2l-0.2-0.4l-4.2-7.3L95.1,323.1z"/>
			<path class="st0" d="M219.9,395.5v2.9h-9v-2.9H219.9z"/>
			<path d="M219.6,398.1h-8.5v-2.4h8.5V398.1 M220.1,398.6v-3.4h-9.5v3.4H220.1z"/>
	</g>
		<g id="Layer_8_00000124863110025176925550000007466998779156447375_">
		<path class="st0" d="M606.8,396.9c0-47-38.1-85-85-85c-47,0-85,38.1-85,85s38.1,85,85,85C568.8,482,606.8,443.9,606.8,396.9
			L606.8,396.9z"/>
			<path class="st0" d="M606.3,395.1v3.7h-9.8v-3.7H606.3z"/>
			<path d="M605.9,398.4h-9v-2.9h9V398.4 M606.7,399.2v-4.7h-10.8v4.7H606.7z"/>
			<path class="st2" d="M605.6,398.1h-8.5v-2.4h8.5V398.1 M606.1,398.6v-3.4h-9.5v3.4H606.1z"/>
			<path class="st0" d="M482.9,460.7l3.2,1.9l-4.9,8.5l-3.2-1.9L482.9,460.7z"/>
			<path d="M485.5,462.7l-4.5,7.8l-2.5-1.4l4.5-7.8L485.5,462.7 M486.7,462.4L486,462l-2.5-1.4l-0.7-0.4l-0.4,0.7l-4.5,7.8l-0.4,0.7
			l0.7,0.4l2.5,1.4l0.7,0.4l0.4-0.7l4.5-7.8L486.7,462.4z"/>
			<path class="st2" d="M478.8,468.9l4.2-7.3l2.1,1.2l-4.2,7.3L478.8,468.9 M478.2,469.1l0.4,0.2l2.1,1.2l0.4,0.2l0.2-0.4l4.2-7.3
			l0.2-0.4l-0.4-0.2l-2.1-1.2l-0.4-0.2l-0.2,0.4l-4.2,7.3L478.2,469.1z"/>
			<path class="st0" d="M481.2,322.8l4.9,8.5l-3.2,1.9l-4.9-8.5L481.2,322.8z"/>
			<path d="M485.5,331.2l-2.5,1.4l-4.5-7.8l2.5-1.4L485.5,331.2 M486.7,331.5l-0.4-0.7l-4.5-7.8l-0.4-0.7l-0.7,0.4l-2.5,1.4l-0.7,0.4
			l0.4,0.7l4.5,7.8l0.4,0.7l0.7-0.4l2.5-1.4L486.7,331.5z"/>
			<path class="st2" d="M480.9,323.7l4.2,7.3l-2.1,1.2l-4.2-7.3L480.9,323.7 M481.1,323.1l-0.4,0.2l-2.1,1.2l-0.4,0.2l0.2,0.4
			l4.2,7.3l0.2,0.4l0.4-0.2l2.1-1.2l0.4-0.2l-0.2-0.4l-4.2-7.3L481.1,323.1z"/>
			<path class="st0" d="M606.3,395.1v3.7h-9.8v-3.7H606.3z"/>
			<path d="M605.9,398.4h-9v-2.9h9V398.4 M606.7,399.2v-4.7h-10.8v4.7H606.7z"/>
			<path class="st2" d="M605.6,398.1h-8.5v-2.4h8.5V398.1 M606.1,398.6v-3.4h-9.5v3.4H606.1z"/>
			<path class="st3" d="M606.8,396.9c0-47-38.1-85-85-85c-47,0-85,38.1-85,85s38.1,85,85,85C568.8,482,606.8,443.9,606.8,396.9
			L606.8,396.9z M444,396.9c0-42.9,34.8-77.7,77.7-77.7s77.7,34.8,77.7,77.7s-34.8,77.7-77.7,77.7C478.8,474.7,444,439.9,444,396.9z
			"/>
			<path class="st0" d="M605.9,395.5v2.9h-9v-2.9H605.9z"/>
			<path d="M605.6,398.1h-8.5v-2.4h8.5V398.1 M606.1,398.6v-3.4h-9.5v3.4H606.1z"/>
			<path class="st0" d="M483,461.2l2.5,1.5l-4.5,7.8l-2.5-1.5L483,461.2z"/>
			<path d="M478.8,468.9l4.2-7.3l2.1,1.2l-4.2,7.3L478.8,468.9 M478.2,469.1l0.4,0.2l2.1,1.2l0.4,0.2l0.2-0.4l4.2-7.3l0.2-0.4
			l-0.4-0.2l-2.1-1.2l-0.4-0.2l-0.2,0.4l-4.2,7.3L478.2,469.1z"/>
			<path class="st0" d="M481,323.4l4.5,7.8l-2.5,1.4l-4.5-7.8L481,323.4z"/>
			<path d="M480.9,323.7l4.2,7.3l-2.1,1.2l-4.2-7.3L480.9,323.7 M481.1,323.1l-0.4,0.2l-2.1,1.2l-0.4,0.2l0.2,0.4l4.2,7.3l0.2,0.4
			l0.4-0.2l2.1-1.2l0.4-0.2l-0.2-0.4l-4.2-7.3L481.1,323.1z"/>
			<path class="st0" d="M605.9,395.5v2.9h-9v-2.9H605.9z"/>
			<path d="M605.6,398.1h-8.5v-2.4h8.5V398.1 M606.1,398.6v-3.4h-9.5v3.4H606.1z"/>
	</g>
		<path d="M440,366.2"/>
		<g id="Layer_8_00000183240368574268881970000005835468639801210248_">
		<path class="st0" d="M220.8,197.7c0-47-38.1-85-85-85c-47,0-85,38.1-85,85s38.1,85,85,85C182.8,282.8,220.8,244.7,220.8,197.7
			L220.8,197.7z"/>
			<path class="st0" d="M220.3,195.9v3.7h-9.8v-3.7H220.3z"/>
			<path d="M219.9,199.2h-9v-2.9h9V199.2 M220.7,200v-4.7h-10.8v4.7H220.7z"/>
			<path class="st2" d="M219.6,198.9h-8.5v-2.4h8.5V198.9 M220.1,199.4V196h-9.5v3.4H220.1z"/>
			<path class="st0" d="M96.9,261.5l3.2,1.9l-4.9,8.5L92,270L96.9,261.5z"/>
			<path d="M99.5,263.5l-4.5,7.8l-2.5-1.4l4.5-7.8L99.5,263.5 M100.7,263.2l-0.7-0.4l-2.5-1.4l-0.7-0.4l-0.4,0.7l-4.5,7.8l-0.4,0.7
			l0.7,0.4l2.5,1.4l0.7,0.4l0.4-0.7l4.5-7.8L100.7,263.2z"/>
			<path class="st2" d="M92.8,269.7l4.2-7.3l2.1,1.2l-4.2,7.3L92.8,269.7 M92.2,269.9l0.4,0.2l2.1,1.2l0.4,0.2l0.2-0.4l4.2-7.3
			l0.2-0.4l-0.4-0.2l-2.1-1.2l-0.4-0.2l-0.2,0.4l-4.2,7.3L92.2,269.9z"/>
			<path class="st0" d="M95.2,123.6l4.9,8.5l-3.2,1.9l-4.9-8.5L95.2,123.6z"/>
			<path d="M99.5,132l-2.5,1.4l-4.5-7.8l2.5-1.4L99.5,132 M100.7,132.3l-0.4-0.7l-4.5-7.8l-0.4-0.7l-0.7,0.4l-2.5,1.4l-0.7,0.4
			l0.4,0.7l4.5,7.8l0.4,0.7l0.7-0.4l2.5-1.4L100.7,132.3z"/>
			<path class="st2" d="M94.9,124.5l4.2,7.3L97,133l-4.2-7.3L94.9,124.5 M95.1,123.9l-0.4,0.2l-2.1,1.2l-0.4,0.2l0.2,0.4l4.2,7.3
			l0.2,0.4l0.4-0.2l2.1-1.2l0.4-0.2l-0.2-0.4l-4.2-7.3L95.1,123.9z"/>
			<path class="st0" d="M220.3,195.9v3.7h-9.8v-3.7H220.3z"/>
			<path d="M219.9,199.2h-9v-2.9h9V199.2 M220.7,200v-4.7h-10.8v4.7H220.7z"/>
			<path class="st2" d="M219.6,198.9h-8.5v-2.4h8.5V198.9 M220.1,199.4V196h-9.5v3.4H220.1z"/>
			<path class="st3" d="M220.8,197.7c0-47-38.1-85-85-85c-47,0-85,38.1-85,85s38.1,85,85,85C182.8,282.8,220.8,244.7,220.8,197.7
			L220.8,197.7z M58,197.7c0-42.9,34.8-77.7,77.7-77.7s77.7,34.8,77.7,77.7s-34.8,77.7-77.7,77.7C92.8,275.5,58,240.7,58,197.7z"/>
			<path class="st0" d="M219.9,196.3v2.9h-9v-2.9H219.9z"/>
			<path d="M219.6,198.9h-8.5v-2.4h8.5V198.9 M220.1,199.4V196h-9.5v3.4H220.1z"/>
			<path class="st0" d="M97,262l2.5,1.5l-4.5,7.8l-2.5-1.5L97,262z"/>
			<path d="M92.8,269.7l4.2-7.3l2.1,1.2l-4.2,7.3L92.8,269.7 M92.2,269.9l0.4,0.2l2.1,1.2l0.4,0.2l0.2-0.4l4.2-7.3l0.2-0.4l-0.4-0.2
			l-2.1-1.2l-0.4-0.2l-0.2,0.4l-4.2,7.3L92.2,269.9z"/>
			<path class="st0" d="M95,124.2l4.5,7.8l-2.5,1.4l-4.5-7.8L95,124.2z"/>
			<path d="M94.9,124.5l4.2,7.3L97,133l-4.2-7.3L94.9,124.5 M95.1,123.9l-0.4,0.2l-2.1,1.2l-0.4,0.2l0.2,0.4l4.2,7.3l0.2,0.4l0.4-0.2
			l2.1-1.2l0.4-0.2l-0.2-0.4l-4.2-7.3L95.1,123.9z"/>
			<path class="st0" d="M219.9,196.3v2.9h-9v-2.9H219.9z"/>
			<path d="M219.6,198.9h-8.5v-2.4h8.5V198.9 M220.1,199.4V196h-9.5v3.4H220.1z"/>
	</g>
		<g>
		<g id="Layer_8_00000072967229331853829490000014517050763820948157_">
			<path class="st0" d="M426.8,197.7c0-47-38.1-85-85-85c-47,0-85,38.1-85,85s38.1,85,85,85C388.8,282.8,426.8,244.7,426.8,197.7
				L426.8,197.7z"/>
			<path class="st0" d="M426.3,195.9v3.7h-9.8v-3.7H426.3z"/>
			<path d="M425.9,199.2h-9v-2.9h9V199.2 M426.7,200v-4.7h-10.8v4.7H426.7z"/>
			<path class="st2" d="M425.6,198.9h-8.5v-2.4h8.5V198.9 M426.1,199.4V196h-9.5v3.4H426.1z"/>
			<path class="st0" d="M302.9,261.5l3.2,1.9l-4.9,8.5L298,270L302.9,261.5z"/>
			<path d="M305.5,263.5l-4.5,7.8l-2.5-1.4l4.5-7.8L305.5,263.5 M306.7,263.2l-0.7-0.4l-2.5-1.4l-0.7-0.4l-0.4,0.7l-4.5,7.8
				l-0.4,0.7l0.7,0.4l2.5,1.4l0.7,0.4l0.4-0.7l4.5-7.8L306.7,263.2z"/>
			<path class="st2" d="M298.8,269.7l4.2-7.3l2.1,1.2l-4.2,7.3L298.8,269.7 M298.2,269.9l0.4,0.2l2.1,1.2l0.4,0.2l0.2-0.4l4.2-7.3
				l0.2-0.4l-0.4-0.2l-2.1-1.2l-0.4-0.2l-0.2,0.4l-4.2,7.3L298.2,269.9z"/>
			<path class="st0" d="M301.2,123.6l4.9,8.5l-3.2,1.9l-4.9-8.5L301.2,123.6z"/>
			<path d="M305.5,132l-2.5,1.4l-4.5-7.8l2.5-1.4L305.5,132 M306.7,132.3l-0.4-0.7l-4.5-7.8l-0.4-0.7l-0.7,0.4l-2.5,1.4l-0.7,0.4
				l0.4,0.7l4.5,7.8l0.4,0.7l0.7-0.4l2.5-1.4L306.7,132.3z"/>
			<path class="st2" d="M300.9,124.5l4.2,7.3L303,133l-4.2-7.3L300.9,124.5 M301.1,123.9l-0.4,0.2l-2.1,1.2l-0.4,0.2l0.2,0.4
				l4.2,7.3l0.2,0.4l0.4-0.2l2.1-1.2l0.4-0.2l-0.2-0.4l-4.2-7.3L301.1,123.9z"/>
			<path class="st0" d="M426.3,195.9v3.7h-9.8v-3.7H426.3z"/>
			<path d="M425.9,199.2h-9v-2.9h9V199.2 M426.7,200v-4.7h-10.8v4.7H426.7z"/>
			<path class="st2" d="M425.6,198.9h-8.5v-2.4h8.5V198.9 M426.1,199.4V196h-9.5v3.4H426.1z"/>
			<path class="st3" d="M426.8,197.7c0-47-38.1-85-85-85c-47,0-85,38.1-85,85s38.1,85,85,85C388.8,282.8,426.8,244.7,426.8,197.7
				L426.8,197.7z M264,197.7c0-42.9,34.8-77.7,77.7-77.7s77.7,34.8,77.7,77.7s-34.8,77.7-77.7,77.7C298.8,275.5,264,240.7,264,197.7
				z"/>
			<path class="st0" d="M425.9,196.3v2.9h-9v-2.9H425.9z"/>
			<path d="M425.6,198.9h-8.5v-2.4h8.5V198.9 M426.1,199.4V196h-9.5v3.4H426.1z"/>
			<path class="st0" d="M303,262l2.5,1.5l-4.5,7.8l-2.5-1.5L303,262z"/>
			<path d="M298.8,269.7l4.2-7.3l2.1,1.2l-4.2,7.3L298.8,269.7 M298.2,269.9l0.4,0.2l2.1,1.2l0.4,0.2l0.2-0.4l4.2-7.3l0.2-0.4
				l-0.4-0.2l-2.1-1.2l-0.4-0.2l-0.2,0.4l-4.2,7.3L298.2,269.9z"/>
			<path class="st0" d="M301,124.2l4.5,7.8l-2.5,1.4l-4.5-7.8L301,124.2z"/>
			<path d="M300.9,124.5l4.2,7.3L303,133l-4.2-7.3L300.9,124.5 M301.1,123.9l-0.4,0.2l-2.1,1.2l-0.4,0.2l0.2,0.4l4.2,7.3l0.2,0.4
				l0.4-0.2l2.1-1.2l0.4-0.2l-0.2-0.4l-4.2-7.3L301.1,123.9z"/>
			<path class="st0" d="M425.9,196.3v2.9h-9v-2.9H425.9z"/>
			<path d="M425.6,198.9h-8.5v-2.4h8.5V198.9 M426.1,199.4V196h-9.5v3.4H426.1z"/>
		</g>
	</g>
		<g id="Layer_4_00000077291321311878835980000004323887934012244909_">
		<text transform="matrix(1 0 0 1 317.481 58.348)" class="st5 st6">3”</text>
	</g>
		<path d="M440,153.1"/>
		<path class="st8" d="M220.8,67.6l18.8-18.7 M220.8,67.6l18.8,18.7 M436.8,67.6L418,86.4 M436.8,67.6L418,48.9"/>
		<path class="st8" d="M436.8,67.7l-216,0"/>
		<polygon class="st9" points="681,448 638.7,405.8 660.8,383.7 681,404 739.2,345.8 761.2,367.8 	"/>
		<polygon class="st9" points="501,248.8 458.7,206.6 480.8,184.5 501,204.8 559.2,146.6 581.2,168.6 	"/>
		<path class="st10" d="M800.5,572.6l-22-22l-23.6,23.6l-23.6-23.6l-22,22l23.6,23.6l-23.6,23.6l22,22l23.6-23.5l23.6,23.5l22-22
		L777,596.2L800.5,572.6z"/>
		<line class="st8" x1="436.8" y1="19.7" x2="436.8" y2="681.2"/>
		<line class="st8" x1="220.8" y1="19.7" x2="220.8" y2="681.2"/>
</g>
</svg>
